<svg fill="none" height="777" viewBox="0 0 1440 777" width="1440" xmlns="http://www.w3.org/2000/svg" xmlns:xlink="http://www.w3.org/1999/xlink"><clipPath id="a"><path d="m0 0h1127v776h-1127z" transform="matrix(-1 0 0 1 1838 .321777)"/></clipPath><clipPath id="b"><path d="m-398 .321777h1127v776h-1127z"/></clipPath><g clip-path="url(#a)" opacity=".05"><path d="m1182.87 646.696h57v133.3h-57z" fill="#333"/><path d="m1213.96 639.971h25.91v7.588h-25.91z" fill="#333"/><path d="m1224.84 635.66h15.03v4.311h-15.03z" fill="#333"/><path d="m1206.71 656.008h9.32v6.898h-9.32z" fill="#fff" opacity=".06"/><path d="m1206.71 673.08h9.32v6.898h-9.32z" fill="#fff" opacity=".12"/><path d="m1206.71 707.224h9.32v6.898h-9.32z" fill="#fff" opacity=".19"/><path d="m1206.71 741.368h9.32v6.898h-9.32z" fill="#fff" opacity=".14"/><path d="m1206.71 758.44h9.32v6.898h-9.32z" fill="#fff" opacity=".1"/><path d="m1325.88 661.181h78.07v71.392h-78.07z" fill="#333"/><path d="m1338.15 654.801h53.37v30.695h-53.37z" fill="#333"/><path d="m1320.18 706.189h78.07v71.392h-78.07z" fill="#333"/><path d="m1332.62 699.808h53.37v30.695h-53.37z" fill="#333"/><path d="m1216.21 696.704h78.07v82.257h-78.07z" fill="#333"/><path d="m1228.47 689.462h53.37v35.523h-53.37z" fill="#333"/><path d="m954.881 721.71h78.069v79.496h-78.069z" fill="#333"/><path d="m967.144 714.639h53.366v34.317h-53.366z" fill="#333"/><path d="m1124.15 557.542h87.22v221.247h-87.22z" fill="#333"/><path d="m1185.98 567.544h21.07v3.967h-21.07z" fill="#e6e6e6" opacity=".46"/><path d="m1157.14 567.544h21.07v3.967h-21.07z" fill="#e6e6e6" opacity=".34"/><path d="m1128.46 567.544h21.08v3.967h-21.08z" fill="#e6e6e6" opacity=".52"/><path d="m1185.98 576.684h21.07v3.966h-21.07z" fill="#e6e6e6" opacity=".54"/><path d="m1157.14 576.684h21.07v3.966h-21.07z" fill="#e6e6e6" opacity=".3"/><path d="m1128.46 576.684h21.08v3.966h-21.08z" fill="#e6e6e6" opacity=".06"/><path d="m1185.98 585.823h21.07v3.967h-21.07z" fill="#e6e6e6" opacity=".15"/><path d="m1157.14 585.823h21.07v3.967h-21.07z" fill="#e6e6e6" opacity=".42"/><path d="m1128.46 585.823h21.08v3.967h-21.08z" fill="#e6e6e6" opacity=".48"/><path d="m1185.98 594.963h21.07v3.966h-21.07z" fill="#e6e6e6" opacity=".18"/><path d="m1128.46 594.963h21.08v3.966h-21.08z" fill="#e6e6e6" opacity=".28"/><path d="m1185.98 604.102h21.07v3.967h-21.07z" fill="#e6e6e6" opacity=".29"/><path d="m1157.14 604.102h21.07v3.967h-21.07z" fill="#e6e6e6" opacity=".28"/><path d="m1128.46 604.102h21.08v3.967h-21.08z" fill="#e6e6e6" opacity=".56"/><path d="m1185.98 613.242h21.07v3.966h-21.07z" fill="#e6e6e6" opacity=".41"/><path d="m1157.14 613.242h21.07v3.966h-21.07z" fill="#e6e6e6" opacity=".16"/><path d="m1128.46 613.242h21.08v3.966h-21.08z" fill="#e6e6e6" opacity=".4"/><path d="m1185.98 622.382h21.07v3.966h-21.07z" fill="#e6e6e6" opacity=".1"/><path d="m1157.14 622.382h21.07v3.966h-21.07z" fill="#e6e6e6" opacity=".17"/><path d="m1128.46 622.382h21.08v3.966h-21.08z" fill="#e6e6e6" opacity=".08"/><path d="m1185.98 631.521h21.07v3.966h-21.07z" fill="#e6e6e6" opacity=".49"/><path d="m1157.14 631.521h21.07v3.966h-21.07z" fill="#e6e6e6" opacity=".58"/><path d="m1128.46 631.521h21.08v3.966h-21.08z" fill="#e6e6e6" opacity=".58"/><path d="m1185.98 640.661h21.07v3.966h-21.07z" fill="#e6e6e6" opacity=".26"/><path d="m1157.14 640.661h21.07v3.966h-21.07z" fill="#e6e6e6" opacity=".37"/><path d="m1128.46 640.661h21.08v3.966h-21.08z" fill="#e6e6e6" opacity=".34"/><path d="m1185.98 649.8h21.07v3.966h-21.07z" fill="#e6e6e6" opacity=".55"/><path d="m1157.14 649.8h21.07v3.966h-21.07z" fill="#e6e6e6" opacity=".12"/><path d="m1128.46 649.8h21.08v3.966h-21.08z" fill="#e6e6e6" opacity=".6"/><path d="m1185.98 658.94h21.07v3.966h-21.07z" fill="#e6e6e6" opacity=".02"/><path d="m1157.14 658.94h21.07v3.966h-21.07z" fill="#e6e6e6" opacity=".28"/><path d="m1128.46 658.94h21.08v3.966h-21.08z" fill="#e6e6e6" opacity=".21"/><path d="m1185.98 668.079h21.07v3.967h-21.07z" fill="#e6e6e6" opacity=".57"/><path d="m1157.14 668.079h21.07v3.967h-21.07z" fill="#e6e6e6" opacity=".38"/><path d="m1128.46 668.079h21.08v3.967h-21.08z" fill="#e6e6e6" opacity=".25"/><path d="m1185.98 677.219h21.07v3.966h-21.07z" fill="#e6e6e6" opacity=".15"/><path d="m1157.14 677.219h21.07v3.966h-21.07z" fill="#e6e6e6" opacity=".47"/><path d="m1128.46 677.219h21.08v3.966h-21.08z" fill="#e6e6e6" opacity=".3"/><path d="m1185.98 686.358h21.07v3.967h-21.07z" fill="#e6e6e6" opacity=".4"/><path d="m1157.14 686.358h21.07v3.967h-21.07z" fill="#e6e6e6" opacity=".39"/><path d="m1128.46 686.358h21.08v3.967h-21.08z" fill="#e6e6e6" opacity=".24"/><path d="m1185.98 695.498h21.07v3.966h-21.07z" fill="#e6e6e6" opacity=".46"/><path d="m1157.14 695.498h21.07v3.966h-21.07z" fill="#e6e6e6" opacity=".22"/><path d="m1128.46 695.498h21.08v3.966h-21.08z" fill="#e6e6e6" opacity=".11"/><path d="m1157.14 704.638h21.07v3.966h-21.07z" fill="#e6e6e6" opacity=".11"/><path d="m1128.46 704.638h21.08v3.966h-21.08z" fill="#e6e6e6" opacity=".02"/><path d="m1185.98 713.777h21.07v3.967h-21.07z" fill="#e6e6e6" opacity=".27"/><path d="m1157.14 713.777h21.07v3.967h-21.07z" fill="#e6e6e6" opacity=".21"/><path d="m1128.46 713.777h21.08v3.967h-21.08z" fill="#e6e6e6" opacity=".49"/><path d="m1185.98 722.917h21.07v3.966h-21.07z" fill="#e6e6e6" opacity=".6"/><path d="m1157.14 722.917h21.07v3.966h-21.07z" fill="#e6e6e6" opacity=".31"/><path d="m1128.46 722.917h21.08v3.966h-21.08z" fill="#e6e6e6" opacity=".22"/><path d="m1185.98 732.056h21.07v3.967h-21.07z" fill="#e6e6e6" opacity=".54"/><path d="m1157.14 732.056h21.07v3.967h-21.07z" fill="#e6e6e6" opacity=".6"/><path d="m1128.46 732.056h21.08v3.967h-21.08z" fill="#e6e6e6" opacity=".08"/><path d="m1157.14 741.196h21.07v3.966h-21.07z" fill="#e6e6e6" opacity=".55"/><path d="m1128.46 741.196h21.08v3.966h-21.08z" fill="#e6e6e6"/><path d="m1184.6 567.544h1.38v177.618h-1.38z" fill="#e6e6e6" opacity=".6"/><path d="m1149.54 567.544h1.38v177.618h-1.38z" fill="#e6e6e6" opacity=".6"/><path d="m1080.62 557.542h43.53v221.247h-43.53z" fill="#4d4d4d"/><path d="m1087.01 567.544h32.82v3.967h-32.82z" fill="#e6e6e6" opacity=".69"/><path d="m1087.01 576.684h32.82v3.966h-32.82z" fill="#e6e6e6" opacity=".79"/><path d="m1087.01 585.823h32.82v3.967h-32.82z" fill="#e6e6e6" opacity=".19"/><path d="m1087.01 594.963h32.82v3.966h-32.82z" fill="#e6e6e6" opacity=".88"/><path d="m1087.01 604.102h32.82v3.967h-32.82z" fill="#e6e6e6" opacity=".5"/><path d="m1087.01 613.242h32.82v3.966h-32.82z" fill="#e6e6e6" opacity=".25"/><path d="m1087.01 622.382h32.82v3.966h-32.82z" fill="#e6e6e6" opacity=".91"/><path d="m1087.01 631.521h32.82v3.966h-32.82z" fill="#e6e6e6" opacity=".02"/><path d="m1087.01 640.661h32.82v3.966h-32.82z" fill="#e6e6e6" opacity=".53"/><path d="m1087.01 649.8h32.82v3.966h-32.82z" fill="#e6e6e6" opacity=".65"/><path d="m1087.01 658.94h32.82v3.966h-32.82z" fill="#e6e6e6"/><path d="m1087.01 668.079h32.82v3.967h-32.82z" fill="#e6e6e6" opacity=".8"/><path d="m1087.01 677.219h32.82v3.966h-32.82z" fill="#e6e6e6" opacity=".82"/><path d="m1087.01 686.358h32.82v3.967h-32.82z" fill="#e6e6e6" opacity=".75"/><path d="m1087.01 695.498h32.82v3.966h-32.82z" fill="#e6e6e6" opacity=".31"/><path d="m1087.01 704.638h32.82v3.966h-32.82z" fill="#e6e6e6" opacity=".22"/><path d="m1087.01 713.777h32.82v3.967h-32.82z" fill="#e6e6e6" opacity=".43"/><path d="m1087.01 722.917h32.82v3.966h-32.82z" fill="#e6e6e6" opacity=".68"/><path d="m1087.01 732.056h32.82v3.967h-32.82z" fill="#e6e6e6" opacity=".38"/><path d="m1087.01 741.196h32.82v3.966h-32.82z" fill="#e6e6e6" opacity=".84"/><path d="m1196 545.816v11.726h-56.48v-11.726zm-12.61 7.933h5.87v-3.967h-5.87zm-9.15 0h5.7v-3.967h-5.7zm-9.33 0h5.7v-3.967h-5.7zm-9.33 0h5.87v-3.967h-5.87zm-9.32 0h5.87v-3.967h-5.87z" fill="#333"/><path d="m1129.16 549.782h1.55v3.967h-1.55z" fill="#333"/><path d="m1139.52 545.816v11.726h-26.6v-11.726zm-10.36 7.933h5.7v-3.967h-5.7zm-12.27 0h5.7v-3.967h-5.7z" fill="#4d4d4d"/><path d="m1117.07 549.782h1.55v3.967h-1.55z" fill="#333"/><path d="m1112.57 793.79h117.45l-117.45-86.567z" fill="#333"/><path d="m1287.71 510.637h9.5v36.041h-9.5z" fill="#4d4d4d"/><path d="m1297.04 510.637h9.67v36.041h-9.67z" fill="#333"/><path d="m1277.87 510.637h9.67v36.041h-9.67z" fill="#666"/><path d="m1249.89 571.338h26.94v205.554h-26.94z" fill="#666"/><path d="m1308.44 571.338h23.49v205.554h-23.49z" fill="#333"/><path d="m1276.83 571.338h31.78v205.554h-31.78z" fill="#4d4d4d"/><path d="m1325.19 577.373h3.46v196.759h-3.46z" fill="#e6e6e6" opacity=".6"/><path d="m1318.46 577.373h3.45v196.759h-3.45z" fill="#e6e6e6" opacity=".6"/><path d="m1311.72 577.373h3.46v196.759h-3.46z" fill="#e6e6e6" opacity=".6"/><path d="m1271.48 577.373h3.45v196.759h-3.45z" fill="#e6e6e6"/><path d="m1264.74 577.373h3.46v196.759h-3.46z" fill="#e6e6e6"/><path d="m1251.61 577.373h3.46v196.759h-3.46z" fill="#e6e6e6"/><path d="m1258.01 577.373h3.45v196.759h-3.45z" fill="#e6e6e6"/><path d="m1304.64 774.132h-23.84v-196.759h23.84zm-3.8-193.31h-16.24v189.862h16.24z" fill="#e6e6e6" opacity=".8"/><path d="m1297.73 767.407h-10.19v-183.481h10.19zm-3.45-179.17h-1.21-.69-1.39v174.859h1.39.69 1.21z" fill="#e6e6e6" opacity=".8"/><path d="m1292.38 588.237h.69v174.859h-.69z" fill="#e6e6e6" opacity=".8"/><path d="m1280.46 535.297h23.83v36.041h-23.83z" fill="#4d4d4d"/><path d="m1280.46 535.297h23.83v36.041h-23.83z" fill="#4d4d4d"/><path d="m1256.62 535.297h23.84v36.041h-23.84z" fill="#666"/><path d="m1304.29 535.297h23.84v36.041h-23.84z" fill="#333"/><path d="m1278.04 510.637h28.67l-9.5 6.553h-9.67z" fill="#808080"/><path d="m765.58 497.359h13.817v40.525h-13.817z" fill="#4d4d4d"/><path d="m779.57 497.359h13.818v40.525h-13.818z" fill="#333"/><path d="m751.762 497.359h13.818v40.525h-13.818z" fill="#666"/><path d="m711 565.82h39.035v231.593h-39.035z" fill="#666"/><path d="m795.979 565.82h33.853v231.593h-33.853z" fill="#333"/><path d="m750.035 565.82h45.943v231.593h-45.943z" fill="#4d4d4d"/><path d="m820.159 572.717h5.009v221.591h-5.009z" fill="#e6e6e6" opacity=".4"/><path d="m810.314 572.717h5.009v221.591h-5.009z" fill="#e6e6e6" opacity=".4"/><path d="m800.469 572.717h5.009v221.591h-5.009z" fill="#e6e6e6" opacity=".4"/><path d="m742.262 572.717h5.009v221.591h-5.009z" fill="#e6e6e6"/><path d="m732.417 572.717h5.009v221.591h-5.009z" fill="#e6e6e6"/><path d="m713.591 572.717h5.009v221.591h-5.009z" fill="#e6e6e6"/><path d="m722.745 572.717h5.009v221.591h-5.009z" fill="#e6e6e6"/><path d="m790.106 794.308h-34.544v-221.591h34.544zm-5.354-217.797h-23.49v214.003h23.49z" fill="#e6e6e6"/><path d="m780.434 786.893h-14.854v-206.76h14.854zm-5.182-201.932h-1.9-.864-1.899v197.104h1.899.864 1.9z" fill="#e6e6e6"/><path d="m772.488 584.961h.864v197.104h-.864z" fill="#e6e6e6"/><path d="m755.216 525.295h34.544v40.525h-34.544z" fill="#4d4d4d"/><path d="m755.216 525.295h34.544v40.525h-34.544z" fill="#4d4d4d"/><path d="m720.672 525.295h34.544v40.525h-34.544z" fill="#666"/><path d="m789.588 525.295h34.544v40.525h-34.544z" fill="#333"/><path d="m751.589 497.359h41.799l-13.991 7.415h-13.817z" fill="#808080"/><path d="m865.239 597.894h94.478v31.384h-94.478z" fill="#e6e6e6"/><path d="m922.582 597.894h37.135v31.384h-37.135z" fill="#b3b3b3"/><path d="m922.582 629.451h73.407v152.441h-73.407z" fill="#333"/><path d="m807.896 629.451h114.686v152.441h-114.686z" fill="#4d4d4d"/><path d="m931.564 613.931h56.479v15.52h-56.479z" fill="#333"/><path d="m824.995 613.931h80.661v15.52h-80.661z" fill="#4d4d4d"/><path d="m890.284 585.995h32.298v11.898h-32.298z" fill="#e6e6e6"/><path d="m906.519 573.924h16.063v11.899h-16.063z" fill="#4d4d4d"/><path d="m922.755 573.924h16.063v11.899h-16.063z" fill="#333"/><path d="m922.582 585.995h24.699v11.898h-24.699z" fill="#b3b3b3"/><path d="m923.619 573.924-1.037-27.591-.863 27.591z" fill="#333"/><g fill="#fff"><path d="m972.844 635.659h6.045v6.035h-6.045z" opacity=".12"/><path d="m964.553 635.659h6.046v6.035h-6.046z" opacity=".25"/><path d="m956.263 635.659h6.045v6.035h-6.045z" opacity=".36"/><path d="m947.972 635.659h6.046v6.035h-6.046z" opacity=".12"/><path d="m939.682 635.659h6.045v6.035h-6.045z" opacity=".14"/><path d="m972.844 643.591h6.045v6.036h-6.045z" opacity=".28"/><path d="m964.553 643.591h6.046v6.036h-6.046z" opacity=".4"/><path d="m956.263 643.591h6.045v6.036h-6.045z" opacity=".16"/><path d="m939.682 643.591h6.045v6.036h-6.045z" opacity=".17"/><path d="m972.844 651.524h6.045v6.035h-6.045z" opacity=".27"/><path d="m964.553 651.524h6.046v6.035h-6.046z" opacity=".45"/><path d="m956.263 651.524h6.045v6.035h-6.045z" opacity=".45"/><path d="m947.972 651.524h6.046v6.035h-6.046z" opacity=".48"/><path d="m939.682 651.524h6.045v6.035h-6.045z" opacity=".25"/><path d="m972.844 659.456h6.045v6.036h-6.045z" opacity=".28"/><path d="m964.553 659.456h6.046v6.036h-6.046z" opacity=".13"/><path d="m956.263 659.456h6.045v6.036h-6.045z" opacity=".07"/><path d="m947.972 659.456h6.046v6.036h-6.046z" opacity=".39"/><path d="m939.682 659.456h6.045v6.036h-6.045z" opacity=".47"/><path d="m972.844 667.388h6.045v6.036h-6.045z" opacity=".28"/><path d="m964.553 667.388h6.046v6.036h-6.046z" opacity=".2"/><path d="m956.263 667.388h6.045v6.036h-6.045z" opacity=".04"/><path d="m947.972 667.388h6.046v6.036h-6.046z" opacity=".43"/><path d="m939.682 667.388h6.045v6.036h-6.045z" opacity=".48"/><path d="m972.844 675.321h6.045v6.036h-6.045z" opacity=".28"/><path d="m964.553 675.321h6.046v6.036h-6.046z" opacity=".19"/><path d="m956.263 675.321h6.045v6.036h-6.045z" opacity=".01"/><path d="m947.972 675.321h6.046v6.036h-6.046z" opacity=".27"/><path d="m939.682 675.321h6.045v6.036h-6.045z" opacity=".24"/><path d="m972.844 683.426h6.045v6.035h-6.045z" opacity=".07"/><path d="m964.553 683.426h6.046v6.035h-6.046z" opacity=".25"/><path d="m956.263 683.426h6.045v6.035h-6.045z" opacity=".26"/><path d="m947.972 683.426h6.046v6.035h-6.046z" opacity=".39"/><path d="m939.682 683.426h6.045v6.035h-6.045z" opacity=".22"/><path d="m972.844 691.358h6.045v6.036h-6.045z" opacity=".15"/><path d="m964.553 691.358h6.046v6.036h-6.046z" opacity=".23"/><path d="m956.263 691.358h6.045v6.036h-6.045z" opacity=".05"/><path d="m947.972 691.358h6.046v6.036h-6.046z" opacity=".2"/><path d="m939.682 691.358h6.045v6.036h-6.045z" opacity=".31"/><path d="m972.844 699.291h6.045v6.035h-6.045z" opacity=".15"/><path d="m964.553 699.291h6.046v6.035h-6.046z" opacity=".33"/><path d="m956.263 699.291h6.045v6.035h-6.045z" opacity=".46"/><path d="m947.972 699.291h6.046v6.035h-6.046z" opacity=".25"/><path d="m939.682 699.291h6.045v6.035h-6.045z" opacity=".43"/><path d="m972.844 707.223h6.045v6.036h-6.045z" opacity=".4"/><path d="m964.553 707.223h6.046v6.036h-6.046z" opacity=".39"/><path d="m956.263 707.223h6.045v6.036h-6.045z" opacity=".01"/><path d="m947.972 707.223h6.046v6.036h-6.046z" opacity=".12"/><path d="m939.682 707.223h6.045v6.036h-6.045z" opacity=".07"/><path d="m972.844 715.156h6.045v6.035h-6.045z" opacity=".07"/><path d="m964.553 715.156h6.046v6.035h-6.046z" opacity=".02"/><path d="m956.263 715.156h6.045v6.035h-6.045z" opacity=".12"/><path d="m947.972 715.156h6.046v6.035h-6.046z" opacity=".23"/><path d="m939.682 715.156h6.045v6.035h-6.045z" opacity=".26"/><path d="m972.844 723.088h6.045v6.036h-6.045z" opacity=".27"/><path d="m964.553 723.088h6.046v6.036h-6.046z" opacity=".38"/><path d="m956.263 723.088h6.045v6.036h-6.045z" opacity=".05"/><path d="m947.972 723.088h6.046v6.036h-6.046z" opacity=".45"/><path d="m939.682 723.088h6.045v6.036h-6.045z" opacity=".15"/><path d="m972.844 731.021h6.045v6.035h-6.045z" opacity=".06"/><path d="m964.553 731.021h6.046v6.035h-6.046z" opacity=".47"/><path d="m956.263 731.021h6.045v6.035h-6.045z" opacity=".15"/><path d="m947.972 731.021h6.046v6.035h-6.046z" opacity=".44"/><path d="m939.682 731.021h6.045v6.035h-6.045z" opacity=".14"/><path d="m972.844 738.953h6.045v6.036h-6.045z" opacity=".15"/><path d="m964.553 738.953h6.046v6.036h-6.046z" opacity=".43"/><path d="m956.263 738.953h6.045v6.036h-6.045z" opacity=".07"/><path d="m947.972 738.953h6.046v6.036h-6.046z" opacity=".47"/><path d="m939.682 738.953h6.045v6.036h-6.045z" opacity=".11"/><path d="m972.844 746.885h6.045v6.036h-6.045z" opacity=".07"/><path d="m964.553 746.885h6.046v6.036h-6.046z" opacity=".34"/><path d="m956.263 746.885h6.045v6.036h-6.045z" opacity=".5"/><path d="m947.972 746.885h6.046v6.036h-6.046z" opacity=".36"/><path d="m939.682 746.885h6.045v6.036h-6.045z" opacity=".34"/><path d="m972.844 754.818h6.045v6.036h-6.045z" opacity=".47"/><path d="m964.553 754.818h6.046v6.036h-6.046z" opacity=".41"/><path d="m956.263 754.818h6.045v6.036h-6.045z" opacity=".3"/><path d="m947.972 754.818h6.046v6.036h-6.046z" opacity=".33"/><path d="m939.682 754.818h6.045v6.036h-6.045z" opacity=".12"/><path d="m972.844 762.75h6.045v6.036h-6.045z" opacity=".24"/><path d="m964.553 762.75h6.046v6.036h-6.046z" opacity=".29"/><path d="m947.972 762.75h6.046v6.036h-6.046z" opacity=".27"/><path d="m939.682 762.75h6.045v6.036h-6.045z" opacity=".04"/><path d="m972.844 770.683h6.045v6.035h-6.045z" opacity=".11"/><path d="m964.553 770.683h6.046v6.035h-6.046z" opacity=".05"/><path d="m956.263 770.683h6.045v6.035h-6.045z" opacity=".04"/><path d="m947.972 770.683h6.046v6.035h-6.046z" opacity=".02"/><path d="m902.547 635.659h6.045v6.035h-6.045z" opacity=".3"/><path d="m894.602 635.659h6.045v6.035h-6.045z" opacity=".72"/><path d="m886.484 635.659h6.045v6.035h-6.045z" opacity=".7"/><path d="m878.366 635.659h6.045v6.035h-6.045z" opacity=".52"/><path d="m870.248 635.659h6.046v6.035h-6.046z" opacity=".2"/><path d="m862.303 635.659h6.045v6.035h-6.045z" opacity=".32"/><path d="m854.185 635.659h6.045v6.035h-6.045z" opacity=".13"/><path d="m846.067 635.659h6.046v6.035h-6.046z" opacity=".38"/><path d="m838.122 635.659h6.045v6.035h-6.045z" opacity=".61"/><path d="m830.004 635.659h6.046v6.035h-6.046z"/><path d="m821.887 635.659h6.045v6.035h-6.045z" opacity=".91"/><path d="m902.547 643.591h6.045v6.036h-6.045z" opacity=".66"/><path d="m894.602 643.591h6.045v6.036h-6.045z" opacity=".31"/><path d="m886.484 643.591h6.045v6.036h-6.045z" opacity=".95"/><path d="m878.366 643.591h6.045v6.036h-6.045z" opacity=".7"/><path d="m870.248 643.591h6.046v6.036h-6.046z" opacity=".12"/><path d="m862.303 643.591h6.045v6.036h-6.045z" opacity=".24"/><path d="m854.185 643.591h6.045v6.036h-6.045z" opacity=".66"/><path d="m846.067 643.591h6.046v6.036h-6.046z" opacity=".71"/><path d="m838.122 643.591h6.045v6.036h-6.045z" opacity=".42"/><path d="m830.004 643.591h6.046v6.036h-6.046z" opacity=".09"/><path d="m821.887 643.591h6.045v6.036h-6.045z" opacity=".32"/><path d="m902.547 651.524h6.045v6.035h-6.045z" opacity=".65"/><path d="m894.602 651.524h6.045v6.035h-6.045z"/><path d="m886.484 651.524h6.045v6.035h-6.045z"/><path d="m878.366 651.524h6.045v6.035h-6.045z" opacity=".71"/><path d="m870.248 651.524h6.046v6.035h-6.046z" opacity=".2"/><path d="m862.303 651.524h6.045v6.035h-6.045z" opacity=".19"/><path d="m854.185 651.524h6.045v6.035h-6.045z" opacity=".62"/><path d="m846.067 651.524h6.046v6.035h-6.046z" opacity=".93"/><path d="m838.122 651.524h6.045v6.035h-6.045z" opacity=".56"/><path d="m830.004 651.524h6.046v6.035h-6.046z" opacity=".57"/><path d="m821.887 651.524h6.045v6.035h-6.045z" opacity=".52"/><path d="m902.547 659.456h6.045v6.036h-6.045z" opacity=".74"/><path d="m894.602 659.456h6.045v6.036h-6.045z" opacity=".56"/><path d="m886.484 659.456h6.045v6.036h-6.045z" opacity=".78"/><path d="m878.366 659.456h6.045v6.036h-6.045z" opacity=".41"/><path d="m870.248 659.456h6.046v6.036h-6.046z" opacity=".14"/><path d="m862.303 659.456h6.045v6.036h-6.045z" opacity=".28"/><path d="m854.185 659.456h6.045v6.036h-6.045z" opacity=".36"/><path d="m846.067 659.456h6.046v6.036h-6.046z" opacity=".14"/><path d="m838.122 659.456h6.045v6.036h-6.045z" opacity=".5"/><path d="m830.004 659.456h6.046v6.036h-6.046z" opacity=".98"/><path d="m821.887 659.456h6.045v6.036h-6.045z" opacity=".59"/><path d="m902.547 667.388h6.045v6.036h-6.045z" opacity=".07"/><path d="m894.602 667.388h6.045v6.036h-6.045z" opacity=".1"/><path d="m886.484 667.388h6.045v6.036h-6.045z" opacity=".88"/><path d="m878.366 667.388h6.045v6.036h-6.045z" opacity=".68"/><path d="m870.248 667.388h6.046v6.036h-6.046z" opacity=".81"/><path d="m862.303 667.388h6.045v6.036h-6.045z" opacity=".62"/><path d="m854.185 667.388h6.045v6.036h-6.045z" opacity=".97"/><path d="m846.067 667.388h6.046v6.036h-6.046z" opacity=".81"/><path d="m838.122 667.388h6.045v6.036h-6.045z" opacity=".79"/><path d="m830.004 667.388h6.046v6.036h-6.046z" opacity=".03"/><path d="m821.887 667.388h6.045v6.036h-6.045z" opacity=".95"/><path d="m902.547 675.321h6.045v6.036h-6.045z" opacity=".62"/><path d="m894.602 675.321h6.045v6.036h-6.045z" opacity=".22"/><path d="m886.484 675.321h6.045v6.036h-6.045z" opacity=".42"/><path d="m878.366 675.321h6.045v6.036h-6.045z" opacity=".56"/><path d="m870.248 675.321h6.046v6.036h-6.046z" opacity=".03"/><path d="m862.303 675.321h6.045v6.036h-6.045z" opacity=".64"/><path d="m854.185 675.321h6.045v6.036h-6.045z" opacity=".82"/><path d="m846.067 675.321h6.046v6.036h-6.046z" opacity=".52"/><path d="m838.122 675.321h6.045v6.036h-6.045z" opacity=".46"/><path d="m830.004 675.321h6.046v6.036h-6.046z" opacity=".27"/><path d="m821.887 675.321h6.045v6.036h-6.045z" opacity=".46"/><path d="m902.547 683.426h6.045v6.035h-6.045z" opacity=".66"/><path d="m894.602 683.426h6.045v6.035h-6.045z" opacity=".7"/><path d="m886.484 683.426h6.045v6.035h-6.045z" opacity=".94"/><path d="m878.366 683.426h6.045v6.035h-6.045z" opacity=".5"/><path d="m870.248 683.426h6.046v6.035h-6.046z" opacity=".12"/><path d="m862.303 683.426h6.045v6.035h-6.045z" opacity=".36"/><path d="m854.185 683.426h6.045v6.035h-6.045z" opacity=".51"/><path d="m846.067 683.426h6.046v6.035h-6.046z" opacity=".37"/><path d="m838.122 683.426h6.045v6.035h-6.045z" opacity=".66"/><path d="m830.004 683.426h6.046v6.035h-6.046z" opacity=".42"/><path d="m821.887 683.426h6.045v6.035h-6.045z" opacity=".5"/><path d="m902.547 691.358h6.045v6.036h-6.045z" opacity=".52"/><path d="m894.602 691.358h6.045v6.036h-6.045z" opacity=".61"/><path d="m886.484 691.358h6.045v6.036h-6.045z" opacity=".84"/><path d="m878.366 691.358h6.045v6.036h-6.045z" opacity=".89"/><path d="m870.248 691.358h6.046v6.036h-6.046z" opacity=".33"/><path d="m862.303 691.358h6.045v6.036h-6.045z" opacity=".25"/><path d="m854.185 691.358h6.045v6.036h-6.045z" opacity=".95"/><path d="m846.067 691.358h6.046v6.036h-6.046z" opacity=".09"/><path d="m838.122 691.358h6.045v6.036h-6.045z" opacity=".44"/><path d="m830.004 691.358h6.046v6.036h-6.046z" opacity=".51"/><path d="m821.887 691.358h6.045v6.036h-6.045z" opacity=".97"/><path d="m902.547 699.291h6.045v6.035h-6.045z" opacity=".26"/><path d="m894.602 699.291h6.045v6.035h-6.045z" opacity=".92"/><path d="m886.484 699.291h6.045v6.035h-6.045z" opacity=".33"/><path d="m878.366 699.291h6.045v6.035h-6.045z" opacity=".23"/><path d="m870.248 699.291h6.046v6.035h-6.046z" opacity=".42"/><path d="m862.303 699.291h6.045v6.035h-6.045z" opacity=".57"/><path d="m854.185 699.291h6.045v6.035h-6.045z" opacity=".73"/><path d="m846.067 699.291h6.046v6.035h-6.046z" opacity=".87"/><path d="m838.122 699.291h6.045v6.035h-6.045z" opacity=".22"/><path d="m830.004 699.291h6.046v6.035h-6.046z" opacity=".89"/><path d="m821.887 699.291h6.045v6.035h-6.045z" opacity=".73"/><path d="m902.547 707.223h6.045v6.036h-6.045z" opacity=".35"/><path d="m894.602 707.223h6.045v6.036h-6.045z" opacity=".81"/><path d="m886.484 707.223h6.045v6.036h-6.045z" opacity=".56"/><path d="m878.366 707.223h6.045v6.036h-6.045z" opacity=".81"/><path d="m870.248 707.223h6.046v6.036h-6.046z" opacity=".87"/><path d="m862.303 707.223h6.045v6.036h-6.045z" opacity=".39"/><path d="m854.185 707.223h6.045v6.036h-6.045z" opacity=".31"/><path d="m846.067 707.223h6.046v6.036h-6.046z" opacity=".98"/><path d="m838.122 707.223h6.045v6.036h-6.045z" opacity=".17"/><path d="m830.004 707.223h6.046v6.036h-6.046z" opacity=".06"/><path d="m821.887 707.223h6.045v6.036h-6.045z" opacity=".57"/><path d="m902.547 715.156h6.045v6.035h-6.045z" opacity=".67"/><path d="m894.602 715.156h6.045v6.035h-6.045z" opacity=".83"/><path d="m886.484 715.156h6.045v6.035h-6.045z" opacity=".99"/><path d="m878.366 715.156h6.045v6.035h-6.045z" opacity=".62"/><path d="m870.248 715.156h6.046v6.035h-6.046z" opacity=".87"/><path d="m862.303 715.156h6.045v6.035h-6.045z" opacity=".14"/><path d="m854.185 715.156h6.045v6.035h-6.045z" opacity=".12"/><path d="m846.067 715.156h6.046v6.035h-6.046z" opacity=".11"/><path d="m838.122 715.156h6.045v6.035h-6.045z" opacity=".39"/><path d="m830.004 715.156h6.046v6.035h-6.046z" opacity=".58"/><path d="m821.887 715.156h6.045v6.035h-6.045z" opacity=".54"/><path d="m902.547 723.088h6.045v6.036h-6.045z" opacity=".99"/><path d="m894.602 723.088h6.045v6.036h-6.045z" opacity=".28"/><path d="m886.484 723.088h6.045v6.036h-6.045z" opacity=".78"/><path d="m878.366 723.088h6.045v6.036h-6.045z" opacity=".65"/><path d="m870.248 723.088h6.046v6.036h-6.046z" opacity=".32"/><path d="m862.303 723.088h6.045v6.036h-6.045z" opacity=".55"/><path d="m854.185 723.088h6.045v6.036h-6.045z" opacity=".4"/><path d="m846.067 723.088h6.046v6.036h-6.046z" opacity=".22"/><path d="m838.122 723.088h6.045v6.036h-6.045z" opacity=".87"/><path d="m830.004 723.088h6.046v6.036h-6.046z" opacity=".02"/><path d="m821.887 723.088h6.045v6.036h-6.045z" opacity=".39"/><path d="m902.547 731.021h6.045v6.035h-6.045z" opacity=".89"/><path d="m894.602 731.021h6.045v6.035h-6.045z" opacity=".97"/><path d="m886.484 731.021h6.045v6.035h-6.045z" opacity=".79"/><path d="m878.366 731.021h6.045v6.035h-6.045z" opacity=".41"/><path d="m870.248 731.021h6.046v6.035h-6.046z" opacity=".13"/><path d="m862.303 731.021h6.045v6.035h-6.045z" opacity=".9"/><path d="m854.185 731.021h6.045v6.035h-6.045z" opacity=".98"/><path d="m846.067 731.021h6.046v6.035h-6.046z" opacity=".67"/><path d="m838.122 731.021h6.045v6.035h-6.045z" opacity=".65"/><path d="m830.004 731.021h6.046v6.035h-6.046z" opacity=".89"/><path d="m821.887 731.021h6.045v6.035h-6.045z" opacity=".98"/><path d="m902.547 738.953h6.045v6.036h-6.045z" opacity=".29"/><path d="m894.602 738.953h6.045v6.036h-6.045z" opacity=".74"/><path d="m886.484 738.953h6.045v6.036h-6.045z" opacity=".64"/><path d="m878.366 738.953h6.045v6.036h-6.045z" opacity=".65"/><path d="m870.248 738.953h6.046v6.036h-6.046z" opacity=".07"/><path d="m862.303 738.953h6.045v6.036h-6.045z" opacity=".16"/><path d="m854.185 738.953h6.045v6.036h-6.045z" opacity=".84"/><path d="m846.067 738.953h6.046v6.036h-6.046z" opacity=".88"/><path d="m838.122 738.953h6.045v6.036h-6.045z" opacity=".57"/><path d="m830.004 738.953h6.046v6.036h-6.046z" opacity=".31"/><path d="m821.887 738.953h6.045v6.036h-6.045z" opacity=".03"/><path d="m902.547 746.885h6.045v6.036h-6.045z" opacity=".3"/><path d="m894.602 746.885h6.045v6.036h-6.045z" opacity=".59"/><path d="m886.484 746.885h6.045v6.036h-6.045z" opacity=".93"/><path d="m878.366 746.885h6.045v6.036h-6.045z" opacity=".06"/><path d="m870.248 746.885h6.046v6.036h-6.046z" opacity=".74"/><path d="m862.303 746.885h6.045v6.036h-6.045z" opacity=".22"/><path d="m854.185 746.885h6.045v6.036h-6.045z" opacity=".51"/><path d="m846.067 746.885h6.046v6.036h-6.046z" opacity=".7"/><path d="m838.122 746.885h6.045v6.036h-6.045z" opacity=".47"/><path d="m830.004 746.885h6.046v6.036h-6.046z" opacity=".08"/><path d="m821.887 746.885h6.045v6.036h-6.045z" opacity=".93"/><path d="m902.547 754.818h6.045v6.036h-6.045z" opacity=".81"/><path d="m894.602 754.818h6.045v6.036h-6.045z" opacity=".9"/><path d="m886.484 754.818h6.045v6.036h-6.045z" opacity=".55"/><path d="m878.366 754.818h6.045v6.036h-6.045z" opacity=".14"/><path d="m870.248 754.818h6.046v6.036h-6.046z" opacity=".66"/><path d="m862.303 754.818h6.045v6.036h-6.045z" opacity=".92"/><path d="m854.185 754.818h6.045v6.036h-6.045z" opacity=".4"/><path d="m846.067 754.818h6.046v6.036h-6.046z" opacity=".6"/><path d="m838.122 754.818h6.045v6.036h-6.045z" opacity=".99"/><path d="m830.004 754.818h6.046v6.036h-6.046z" opacity=".68"/><path d="m821.887 754.818h6.045v6.036h-6.045z" opacity=".01"/><path d="m902.547 762.75h6.045v6.036h-6.045z" opacity=".82"/><path d="m894.602 762.75h6.045v6.036h-6.045z" opacity=".92"/><path d="m886.484 762.75h6.045v6.036h-6.045z" opacity=".29"/><path d="m878.366 762.75h6.045v6.036h-6.045z" opacity=".73"/><path d="m870.248 762.75h6.046v6.036h-6.046z" opacity=".42"/><path d="m862.303 762.75h6.045v6.036h-6.045z" opacity=".06"/><path d="m854.185 762.75h6.045v6.036h-6.045z" opacity=".7"/><path d="m846.067 762.75h6.046v6.036h-6.046z" opacity=".97"/><path d="m838.122 762.75h6.045v6.036h-6.045z" opacity=".51"/><path d="m830.004 762.75h6.046v6.036h-6.046z" opacity=".69"/><path d="m821.887 762.75h6.045v6.036h-6.045z" opacity=".49"/><path d="m902.547 770.683h6.045v6.035h-6.045z" opacity=".45"/><path d="m894.602 770.683h6.045v6.035h-6.045z" opacity=".46"/><path d="m886.484 770.683h6.045v6.035h-6.045z" opacity=".04"/><path d="m878.366 770.683h6.045v6.035h-6.045z" opacity=".56"/><path d="m870.248 770.683h6.046v6.035h-6.046z" opacity=".4"/><path d="m862.303 770.683h6.045v6.035h-6.045z" opacity=".59"/><path d="m854.185 770.683h6.045v6.035h-6.045z" opacity=".82"/><path d="m846.067 770.683h6.046v6.035h-6.046z" opacity=".99"/><path d="m838.122 770.683h6.045v6.035h-6.045z" opacity=".1"/><path d="m830.004 770.683h6.046v6.035h-6.046z" opacity=".87"/><path d="m821.887 770.683h6.045v6.035h-6.045z"/></g><path d="m1004.62 596.859h57v178.308h-57z" fill="#333"/><path d="m1035.71 587.892h25.91v10.002h-25.91z" fill="#333"/><path d="m1046.6 582.029h15.02v5.863h-15.02z" fill="#333"/><path d="m1028.63 609.448h9.33v9.312h-9.33z" fill="#fff" opacity=".25"/><path d="m1028.63 632.383h9.33v9.312h-9.33z" fill="#fff" opacity=".15"/><path d="m1028.63 678.08h9.33v9.312h-9.33z" fill="#fff" opacity=".19"/><path d="m1028.63 700.843h9.33v9.312h-9.33z" fill="#fff" opacity=".17"/><path d="m1028.63 723.606h9.33v9.312h-9.33z" fill="#fff" opacity=".22"/><path d="m1028.63 746.541h9.33v9.312h-9.33z" fill="#fff"/><path d="m1046.94 696.187h53.37v15.692h-53.37z" fill="#333"/><path d="m1020.34 696.187h26.6v15.692h-26.6z" fill="#4d4d4d"/><path d="m1100.31 696.187-16.58-7.932-36.79 7.932z" fill="#333"/><path d="m1083.73 688.255-36.79 7.932h-26.6z" fill="#4d4d4d"/><path d="m1034.51 707.223h78.06v71.392h-78.06z" fill="#333"/><path d="m1008.6 707.223h25.91v71.392h-25.91z" fill="#4d4d4d"/><path d="m1014.64 712.224h13.99v5.174h-13.99z" fill="#fff" opacity=".81"/><path d="m1014.64 721.709h13.99v5.173h-13.99z" fill="#fff" opacity=".76"/><path d="m1014.64 731.193h13.99v5.174h-13.99z" fill="#fff" opacity=".32"/><path d="m1014.64 740.85h13.99v5.173h-13.99z" fill="#fff" opacity=".49"/><path d="m1014.64 759.819h13.99v5.173h-13.99z" fill="#fff" opacity=".99"/><path d="m1086.15 712.224h13.99v5.174h-13.99z" fill="#fff" opacity=".1"/><path d="m1066.63 712.224h13.99v5.174h-13.99z" fill="#fff" opacity=".04"/><path d="m1046.94 712.224h13.99v5.174h-13.99z" fill="#fff" opacity=".07"/><path d="m1086.15 721.709h13.99v5.173h-13.99z" fill="#fff" opacity=".06"/><path d="m1066.63 721.709h13.99v5.173h-13.99z" fill="#fff" opacity=".44"/><path d="m1046.94 721.709h13.99v5.173h-13.99z" fill="#fff" opacity=".24"/><path d="m1086.15 731.193h13.99v5.174h-13.99z" fill="#fff" opacity=".55"/><path d="m1066.63 731.193h13.99v5.174h-13.99z" fill="#fff" opacity=".02"/><path d="m1046.94 731.193h13.99v5.174h-13.99z" fill="#fff" opacity=".14"/><path d="m1086.15 740.85h13.99v5.173h-13.99z" fill="#fff" opacity=".43"/><path d="m1066.63 740.85h13.99v5.173h-13.99z" fill="#fff" opacity=".41"/><path d="m1046.94 740.85h13.99v5.173h-13.99z" fill="#fff" opacity=".46"/><path d="m1086.15 750.335h13.99v5.173h-13.99z" fill="#fff" opacity=".45"/><path d="m1066.63 750.335h13.99v5.173h-13.99z" fill="#fff" opacity=".33"/><path d="m1046.94 750.335h13.99v5.173h-13.99z" fill="#fff" opacity=".05"/><path d="m1086.15 759.819h13.99v5.174h-13.99z" fill="#fff" opacity=".27"/><path d="m1066.63 759.819h13.99v5.174h-13.99z" fill="#fff" opacity=".15"/><path d="m1046.94 759.819h13.99v5.174h-13.99z" fill="#fff" opacity=".7"/><path d="m1414.32 635.832h48.36v148.819h-48.36z" fill="#333"/><path d="m1359.22 635.832h54.92v148.819h-54.92z" fill="#4d4d4d"/><path d="m1414.32 648.42h48.36v2.587h-48.36z" fill="#4d4d4d"/><path d="m1359.22 648.42h54.92v2.587h-54.92z" fill="#333"/><path d="m1439.36 653.939h5.18v5.173h-5.18z" fill="#fff" opacity=".32"/><path d="m1432.28 653.939h5.18v5.173h-5.18z" fill="#fff" opacity=".25"/><path d="m1418.12 653.939h5.18v5.173h-5.18z" fill="#fff" opacity=".12"/><path d="m1439.36 661.009h5.18v5.173h-5.18z" fill="#fff" opacity=".22"/><path d="m1432.28 661.009h5.18v5.173h-5.18z" fill="#fff" opacity=".47"/><path d="m1425.2 661.009h5.18v5.173h-5.18z" fill="#fff" opacity=".22"/><path d="m1418.12 661.009h5.18v5.173h-5.18z" fill="#fff" opacity=".32"/><path d="m1439.36 668.079h5.18v5.173h-5.18z" fill="#fff" opacity=".18"/><path d="m1432.28 668.079h5.18v5.173h-5.18z" fill="#fff" opacity=".28"/><path d="m1418.12 668.079h5.18v5.173h-5.18z" fill="#fff" opacity=".2"/><path d="m1439.36 675.149h5.18v5.174h-5.18z" fill="#fff" opacity=".33"/><path d="m1432.28 675.149h5.18v5.174h-5.18z" fill="#fff" opacity=".05"/><path d="m1425.2 675.149h5.18v5.174h-5.18z" fill="#fff" opacity=".08"/><path d="m1432.28 682.219h5.18v5.174h-5.18z" fill="#fff" opacity=".08"/><path d="m1425.2 682.219h5.18v5.174h-5.18z" fill="#fff" opacity=".02"/><path d="m1439.36 689.29h5.18v5.173h-5.18z" fill="#fff" opacity=".05"/><path d="m1432.28 689.29h5.18v5.173h-5.18z" fill="#fff" opacity=".2"/><path d="m1425.2 689.29h5.18v5.173h-5.18z" fill="#fff" opacity=".23"/><path d="m1439.36 696.36h5.18v5.173h-5.18z" fill="#fff" opacity=".14"/><path d="m1425.2 696.36h5.18v5.173h-5.18z" fill="#fff" opacity=".24"/><path d="m1439.36 703.43h5.18v5.173h-5.18z" fill="#fff" opacity=".23"/><path d="m1432.28 703.43h5.18v5.173h-5.18z" fill="#fff" opacity=".02"/><path d="m1425.2 703.43h5.18v5.173h-5.18z" fill="#fff" opacity=".04"/><path d="m1418.12 703.43h5.18v5.173h-5.18z" fill="#fff" opacity=".3"/><path d="m1418.12 710.328h5.18v5.173h-5.18z" fill="#fff" opacity=".4"/><path d="m1439.36 717.398h5.18v5.174h-5.18z" fill="#fff" opacity=".12"/><path d="m1425.2 717.398h5.18v5.174h-5.18z" fill="#fff" opacity=".19"/><path d="m1418.12 717.398h5.18v5.174h-5.18z" fill="#fff" opacity=".43"/><path d="m1432.28 724.468h5.18v5.174h-5.18z" fill="#fff" opacity=".42"/><path d="m1418.12 724.468h5.18v5.174h-5.18z" fill="#fff" opacity=".31"/><path d="m1432.28 731.539h5.18v5.173h-5.18z" fill="#fff" opacity=".31"/><path d="m1418.12 731.539h5.18v5.173h-5.18z" fill="#fff" opacity=".33"/><path d="m1432.28 738.609h5.18v5.173h-5.18z" fill="#fff" opacity=".17"/><path d="m1425.2 738.609h5.18v5.173h-5.18z" fill="#fff" opacity=".01"/><path d="m1418.12 738.609h5.18v5.173h-5.18z" fill="#fff" opacity=".48"/><path d="m1439.36 745.679h5.18v5.173h-5.18z" fill="#fff" opacity=".28"/><path d="m1432.28 745.679h5.18v5.173h-5.18z" fill="#fff" opacity=".02"/><path d="m1425.2 745.679h5.18v5.173h-5.18z" fill="#fff" opacity=".17"/><path d="m1418.12 745.679h5.18v5.173h-5.18z" fill="#fff" opacity=".42"/><path d="m1439.36 752.749h5.18v5.174h-5.18z" fill="#fff" opacity=".11"/><path d="m1432.28 752.749h5.18v5.174h-5.18z" fill="#fff" opacity=".02"/><path d="m1418.12 752.749h5.18v5.174h-5.18z" fill="#fff" opacity=".3"/><path d="m1439.36 759.82h5.18v5.173h-5.18z" fill="#fff" opacity=".19"/><path d="m1432.28 759.82h5.18v5.173h-5.18z" fill="#fff" opacity=".05"/><path d="m1418.12 759.82h5.18v5.173h-5.18z" fill="#fff" opacity=".2"/><path d="m1432.28 766.89h5.18v5.173h-5.18z" fill="#fff" opacity=".27"/><path d="m1425.2 766.89h5.18v5.173h-5.18z" fill="#fff" opacity=".13"/><path d="m1439.36 773.96h5.18v5.173h-5.18z" fill="#fff" opacity=".46"/><path d="m1432.28 773.96h5.18v5.173h-5.18z" fill="#fff" opacity=".12"/><path d="m1425.2 773.96h5.18v5.173h-5.18z" fill="#fff" opacity=".04"/><path d="m1418.12 773.96h5.18v5.173h-5.18z" fill="#fff" opacity=".3"/><path d="m1425.2 653.939h5.18v5.173h-5.18z" fill="#fff" opacity=".08"/><path d="m1425.2 668.079h5.18v5.173h-5.18z" fill="#fff" opacity=".08"/><path d="m1418.12 675.149h5.18v5.174h-5.18z" fill="#fff" opacity=".01"/><path d="m1439.36 682.219h5.18v5.174h-5.18z" fill="#fff" opacity=".15"/><path d="m1418.12 682.219h5.18v5.174h-5.18z" fill="#fff" opacity=".12"/><path d="m1432.28 696.36h5.18v5.173h-5.18z" fill="#fff" opacity=".13"/><path d="m1418.12 696.36h5.18v5.173h-5.18z" fill="#fff" opacity=".07"/><path d="m1439.36 710.328h5.18v5.173h-5.18z" fill="#fff" opacity=".02"/><path d="m1432.28 710.328h5.18v5.173h-5.18z" fill="#fff" opacity=".02"/><path d="m1425.2 710.328h5.18v5.173h-5.18z" fill="#fff" opacity=".14"/><path d="m1439.36 724.468h5.18v5.174h-5.18z" fill="#fff" opacity=".09"/><path d="m1425.2 724.468h5.18v5.174h-5.18z" fill="#fff" opacity=".02"/><path d="m1439.36 731.539h5.18v5.173h-5.18z" fill="#fff" opacity=".19"/><path d="m1425.2 731.539h5.18v5.173h-5.18z" fill="#fff" opacity=".06"/><path d="m1439.36 738.609h5.18v5.173h-5.18z" fill="#fff" opacity=".16"/><path d="m1425.2 752.749h5.18v5.174h-5.18z" fill="#fff" opacity=".04"/><path d="m1425.2 759.82h5.18v5.173h-5.18z" fill="#fff" opacity=".04"/><path d="m1418.12 766.89h5.18v5.173h-5.18z" fill="#fff" opacity=".18"/><g fill="#e6e6e6" opacity=".7"><path d="m1403.78 651.007h5.36v127.091h-5.36z" opacity=".7"/><path d="m1394.63 651.007h5.35v127.091h-5.35z" opacity=".7"/><path d="m1385.3 651.007h5.35v127.091h-5.35z" opacity=".7"/><path d="m1375.97 651.007h5.36v127.091h-5.36z" opacity=".7"/><path d="m1366.65 651.007h5.35v127.091h-5.35z" opacity=".7"/></g><path d="m1331.58 778.099h107.44l-107.44-93.465z" fill="#333"/><path d="m1340.74 761.544h36.96v20.693h-36.96z" fill="#4d4d4d"/><path d="m1343.5 756.716h31.44v9.657h-31.44z" fill="#4d4d4d"/><path d="m1347.13 759.647h24.35l-8.46-14.14h-7.43z" fill="#4d4d4d"/><path d="m1350.58 765.683h17.28v12.588h-17.28z" fill="#fff"/><path d="m1348.51 770.684h21.42v2.586h-21.42z" fill="#4d4d4d"/><path d="m1175.79 795.515c-.52 13.451 9.85 25.005 23.49 25.522 13.47.517 25.04-10.002 25.56-23.452.52-13.451-9.84-25.005-23.49-25.522-13.47-.517-24.87 10.002-25.56 23.452z" fill="#333"/><path d="m1179.94 788.79c-.35 7.76 5.7 14.313 13.47 14.658s14.33-5.691 14.68-13.451c.34-7.76-5.7-14.313-13.47-14.658-7.78-.345-14.34 5.691-14.68 13.451z" fill="#4d4d4d"/><path d="m1422.43 770.166c0 3.277 2.77 6.036 6.05 6.036s6.05-2.759 6.05-6.036c0-3.276-2.77-6.035-6.05-6.035s-6.05 2.586-6.05 6.035z" fill="#333"/><path d="m1420.36 776.202c0 4.483 3.63 8.105 8.12 8.105s8.12-3.622 8.12-8.105c0-4.484-3.63-8.105-8.12-8.105s-8.12 3.621-8.12 8.105z" fill="#333"/><path d="m1424.51 764.993c0 2.242 1.72 4.139 3.97 4.139s3.97-1.897 3.97-4.139-1.72-4.139-3.97-4.139-3.97 1.897-3.97 4.139z" fill="#333"/><path d="m1423.3 770.166c0 1.897 1.55 3.449 3.45 3.449s3.46-1.552 3.46-3.449-1.56-3.449-3.46-3.449-3.45 1.552-3.45 3.449z" fill="#4d4d4d"/><path d="m1425.03 765.51c0 1.38 1.2 2.587 2.59 2.587 1.38 0 2.59-1.207 2.59-2.587 0-1.379-1.21-2.587-2.59-2.587-1.39-.172-2.59 1.035-2.59 2.587z" fill="#4d4d4d"/><path d="m1307.23 782.754c0 4.312 3.63 7.933 7.95 7.933 4.31 0 7.94-3.621 7.94-7.933 0-4.311-3.45-7.932-7.94-7.932-4.32 0-7.95 3.621-7.95 7.932z" fill="#333"/><path d="m1309.99 776.029c0 2.932 2.25 5.346 5.19 5.346 2.93 0 5.18-2.414 5.18-5.346 0-2.931-2.25-5.346-5.18-5.346-2.77 0-5.19 2.415-5.19 5.346z" fill="#333"/><path d="m1310.68 776.546c0 1.897 1.56 3.449 3.46 3.449s3.45-1.552 3.45-3.449-1.55-3.449-3.45-3.449-3.46 1.552-3.46 3.449z" fill="#4d4d4d"/><path d="m1317.94 788.618c.86 8.277 8.29 14.14 16.41 13.278 8.29-.862 14.16-8.277 13.3-16.382-.87-8.278-8.29-14.141-16.41-13.278-8.12.862-14.16 8.104-13.3 16.382z" fill="#333"/><path d="m1321.74 775.34c.52 5.518 5.35 9.657 10.88 9.139 5.35-.517 9.33-5.518 8.81-11.036s-5.36-9.657-10.88-9.14c-5.53.518-9.33 5.518-8.81 11.037z" fill="#333"/><path d="m1323.12 776.374c.35 3.622 3.63 6.208 7.08 5.863 3.63-.345 6.22-3.621 5.87-7.07-.34-3.621-3.62-6.208-7.08-5.863-3.62.345-6.21 3.621-5.87 7.07z" fill="#4d4d4d"/><path d="m1239.7 781.375c0 7.588 6.04 13.623 13.64 13.623s13.65-6.035 13.65-13.623-6.05-13.623-13.65-13.623c-7.43 0-13.64 6.035-13.64 13.623z" fill="#333"/><path d="m1244.53 769.649c0 5.173 3.98 9.312 8.98 9.312 5.01 0 8.99-4.139 8.99-9.312 0-5.174-3.98-9.312-8.99-9.312-5 .172-8.98 4.311-8.98 9.312z" fill="#333"/><path d="m1241.77 781.375c0 4.311 3.45 7.932 7.94 7.932 4.32 0 7.95-3.448 7.95-7.932 0-4.311-3.45-7.932-7.95-7.932-4.31.172-7.94 3.621-7.94 7.932z" fill="#4d4d4d"/><path d="m1245.74 770.856c0 3.276 2.59 6.035 6.05 6.035 3.28 0 6.04-2.586 6.04-6.035 0-3.277-2.59-5.863-6.04-5.863-3.46-.173-6.05 2.586-6.05 5.863z" fill="#4d4d4d"/><path d="m1269.92 792.756c0 9.657 7.95 17.589 17.62 17.589s17.62-7.932 17.62-17.589-7.95-17.589-17.62-17.589-17.62 7.76-17.62 17.589z" fill="#333"/><path d="m1275.97 777.581c0 6.553 5.18 11.899 11.57 11.899s11.57-5.346 11.57-11.899-5.18-11.899-11.57-11.899-11.57 5.346-11.57 11.899z" fill="#333"/><path d="m1277.52 779.133c0 4.311 3.46 7.588 7.78 7.588 4.31 0 7.77-3.449 7.77-7.588 0-4.311-3.46-7.76-7.77-7.76-4.32 0-7.78 3.449-7.78 7.76z" fill="#4d4d4d"/><path d="m1227.26 779.65c0 2.07 1.56 3.622 3.46 3.622s3.45-1.552 3.45-3.622c0-2.069-1.55-3.621-3.45-3.621s-3.46 1.552-3.46 3.621z" fill="#333"/><path d="m1152.99 775.34c0 6.725 5.36 12.071 12.09 12.071 6.74 0 12.09-5.346 12.09-12.071 0-6.726-5.35-12.072-12.09-12.072-6.73 0-12.09 5.346-12.09 12.072z" fill="#333"/><path d="m1148.85 787.411c0 8.967 7.25 16.21 16.23 16.21s16.24-7.243 16.24-16.21-7.26-16.21-16.24-16.21-16.23 7.243-16.23 16.21z" fill="#333"/><path d="m1157.14 764.993c0 4.484 3.62 8.277 7.94 8.277s7.95-3.621 7.95-8.277c0-4.484-3.63-8.277-7.95-8.277s-7.94 3.793-7.94 8.277z" fill="#333"/><path d="m1154.89 775.34c0 3.793 3.11 6.897 6.91 6.897s6.91-3.104 6.91-6.897c0-3.794-3.11-6.898-6.91-6.898s-6.91 3.104-6.91 6.898z" fill="#4d4d4d"/><path d="m1158.17 766.028c0 2.931 2.42 5.345 5.36 5.345 2.93 0 5.35-2.414 5.35-5.345 0-2.932-2.42-5.346-5.35-5.346-2.94 0-5.36 2.414-5.36 5.346z" fill="#4d4d4d"/><path d="m1107.91 790.515c0 8.967 7.26 16.209 16.24 16.209s16.23-7.242 16.23-16.209-7.25-16.21-16.23-16.21c-8.98.172-16.24 7.415-16.24 16.21z" fill="#333"/><path d="m1113.61 776.719c0 6.036 4.84 11.037 10.54 11.037 5.87 0 10.71-4.829 10.71-11.037 0-6.035-4.84-10.864-10.71-10.864-5.88 0-10.54 4.829-10.54 10.864z" fill="#333"/><path d="m1114.99 778.099c0 3.966 3.11 7.07 7.08 7.07 3.98 0 7.09-3.104 7.09-7.07s-3.11-7.07-7.09-7.07c-3.97 0-7.08 3.104-7.08 7.07z" fill="#4d4d4d"/><path d="m843.649 797.068c0 14.83 11.918 26.729 26.772 26.729s26.772-11.899 26.772-26.729c0-14.831-11.918-26.729-26.772-26.729s-26.772 12.071-26.772 26.729z" fill="#333"/><path d="m847.622 789.653c0 8.449 6.909 15.347 15.372 15.347s15.372-6.898 15.372-15.347c0-8.45-6.909-15.348-15.372-15.348s-15.372 6.898-15.372 15.348z" fill="#4d4d4d"/><path d="m809.278 785.514c0 12.416 10.19 22.59 22.626 22.59s22.627-10.174 22.627-22.59-10.191-22.59-22.627-22.59c-12.608 0-22.626 10.001-22.626 22.59z" fill="#333"/><path d="m812.732 779.133c0 7.243 5.873 12.934 12.954 12.934 7.255 0 12.954-5.863 12.954-12.934 0-7.07-5.872-12.933-12.954-12.933-7.081 0-12.954 5.863-12.954 12.933z" fill="#4d4d4d"/><path d="m866.966 789.135c0 12.416 10.191 22.59 22.627 22.59s22.626-10.174 22.626-22.59-10.19-22.59-22.626-22.59c-12.609 0-22.627 10.001-22.627 22.59z" fill="#333"/><path d="m870.421 782.755c0 7.242 5.872 12.933 12.954 12.933 7.081 0 12.954-5.863 12.954-12.933 0-7.243-5.873-12.934-12.954-12.934-7.082 0-12.954 5.691-12.954 12.934z" fill="#4d4d4d"/><path d="m936.745 794.309c0 12.416 10.191 22.59 22.627 22.59s22.626-10.174 22.626-22.59-10.19-22.59-22.626-22.59c-12.609 0-22.627 10.174-22.627 22.59z" fill="#333"/><path d="m940.2 787.928c0 7.243 5.872 12.934 12.954 12.934 7.254 0 12.954-5.863 12.954-12.934 0-7.242-5.873-12.933-12.954-12.933-7.082 0-12.954 5.863-12.954 12.933z" fill="#4d4d4d"/><path d="m964.035 790.515c0 12.416 10.191 22.59 22.627 22.59s22.628-10.174 22.628-22.59-10.192-22.59-22.628-22.59-22.627 10.001-22.627 22.59z" fill="#333"/><path d="m967.49 784.134c0 7.243 5.872 12.934 12.954 12.934 7.254 0 12.954-5.863 12.954-12.934 0-7.242-5.873-12.933-12.954-12.933-7.082 0-12.954 5.691-12.954 12.933z" fill="#4d4d4d"/><path d="m946.418 786.893c0 7.243 5.872 12.933 12.954 12.933 7.254 0 12.954-5.863 12.954-12.933 0-7.243-5.873-12.933-12.954-12.933-7.254 0-12.954 5.863-12.954 12.933z" fill="#4d4d4d"/><path d="m1042.97 787.928c0 8.105 6.56 14.83 14.85 14.83 8.12 0 14.86-6.553 14.86-14.83 0-8.105-6.57-14.831-14.86-14.831-8.29.173-14.85 6.726-14.85 14.831z" fill="#333"/><path d="m1045.21 783.789c0 4.656 3.8 8.45 8.47 8.45 4.66 0 8.46-3.794 8.46-8.45s-3.8-8.45-8.46-8.45c-4.67 0-8.47 3.794-8.47 8.45z" fill="#4d4d4d"/><path d="m1431.07 776.202c0 6.897 5.53 12.416 12.44 12.416s12.43-5.519 12.43-12.416c0-6.898-5.52-12.416-12.43-12.416-6.74-.173-12.44 5.518-12.44 12.416z" fill="#333"/><path d="m1426.93 788.618c0 9.312 7.42 16.727 16.75 16.727s16.75-7.415 16.75-16.727-7.42-16.727-16.75-16.727-16.75 7.415-16.75 16.727z" fill="#333"/><path d="m1435.39 765.51c0 4.656 3.63 8.45 8.29 8.45 4.49 0 8.29-3.794 8.29-8.45s-3.63-8.45-8.29-8.45-8.29 3.794-8.29 8.45z" fill="#333"/><path d="m1432.97 776.201c0 3.967 3.28 7.243 7.26 7.243 3.97 0 7.25-3.276 7.25-7.243 0-3.966-3.28-7.242-7.25-7.242-3.98 0-7.26 3.276-7.26 7.242z" fill="#4d4d4d"/><path d="m1436.43 766.545c0 2.931 2.41 5.518 5.52 5.518 2.94 0 5.53-2.414 5.53-5.518 0-2.932-2.42-5.518-5.53-5.518-2.93 0-5.52 2.414-5.52 5.518z" fill="#4d4d4d"/><path d="m1372.17 781.03c0 5.519 4.49 10.002 10.02 10.002s10.02-4.483 10.02-10.002c0-5.518-4.49-10.001-10.02-10.001s-10.02 4.483-10.02 10.001z" fill="#333"/><path d="m1375.63 772.408c0 3.794 2.93 6.898 6.56 6.898s6.56-3.104 6.56-6.898-2.93-6.898-6.56-6.898c-3.63.173-6.56 3.104-6.56 6.898z" fill="#333"/><path d="m1373.73 781.03c0 3.277 2.59 5.863 5.87 5.863s5.87-2.586 5.87-5.863c0-3.104-2.59-5.69-5.87-5.69-3.28-.173-5.87 2.414-5.87 5.69z" fill="#4d4d4d"/><path d="m1376.49 773.27c0 2.415 1.9 4.311 4.32 4.311s4.32-1.896 4.32-4.311c0-2.414-1.9-4.311-4.32-4.311-2.42-.172-4.32 1.897-4.32 4.311z" fill="#4d4d4d"/></g><g clip-path="url(#b)" opacity=".05"><path d="m257.128 646.696h-56.998v133.3h56.998z" fill="#333"/><path d="m226.038 639.971h-25.908v7.588h25.908z" fill="#333"/><path d="m215.157 635.66h-15.027v4.311h15.027z" fill="#333"/><path d="m233.293 656.008h-9.327v6.898h9.327z" fill="#fff" opacity=".06"/><path d="m233.293 673.08h-9.327v6.898h9.327z" fill="#fff" opacity=".12"/><path d="m233.293 707.224h-9.327v6.898h9.327z" fill="#fff" opacity=".19"/><path d="m233.293 741.368h-9.327v6.898h9.327z" fill="#fff" opacity=".14"/><path d="m233.293 758.44h-9.327v6.898h9.327z" fill="#fff" opacity=".1"/><path d="m114.116 661.181h-78.0699v71.392h78.0699z" fill="#333"/><path d="m101.853 654.801h-53.371v30.695h53.371z" fill="#333"/><path d="m119.815 706.189h-78.0692v71.392h78.0692z" fill="#333"/><path d="m107.38 699.808h-53.371v30.695h53.371z" fill="#333"/><path d="m223.793 696.704h-78.069v82.257h78.069z" fill="#333"/><path d="m211.53 689.462h-53.371v35.523h53.371z" fill="#333"/><path d="m485.119 721.71h-78.07v79.496h78.07z" fill="#333"/><path d="m472.856 714.639h-53.371v34.317h53.371z" fill="#333"/><path d="m315.853 557.542h-87.224v221.247h87.224z" fill="#333"/><path d="m254.019 567.544h-21.072v3.967h21.072z" fill="#e6e6e6" opacity=".46"/><path d="m282.863 567.544h-21.071v3.967h21.071z" fill="#e6e6e6" opacity=".34"/><path d="m311.535 567.544h-21.072v3.967h21.072z" fill="#e6e6e6" opacity=".52"/><path d="m254.019 576.684h-21.072v3.966h21.072z" fill="#e6e6e6" opacity=".54"/><path d="m282.863 576.684h-21.071v3.966h21.071z" fill="#e6e6e6" opacity=".3"/><path d="m311.535 576.684h-21.072v3.966h21.072z" fill="#e6e6e6" opacity=".06"/><path d="m254.019 585.823h-21.072v3.967h21.072z" fill="#e6e6e6" opacity=".15"/><path d="m282.863 585.823h-21.071v3.967h21.071z" fill="#e6e6e6" opacity=".42"/><path d="m311.535 585.823h-21.072v3.967h21.072z" fill="#e6e6e6" opacity=".48"/><path d="m254.019 594.963h-21.072v3.966h21.072z" fill="#e6e6e6" opacity=".18"/><path d="m311.535 594.963h-21.072v3.966h21.072z" fill="#e6e6e6" opacity=".28"/><path d="m254.019 604.102h-21.072v3.967h21.072z" fill="#e6e6e6" opacity=".29"/><path d="m282.863 604.102h-21.071v3.967h21.071z" fill="#e6e6e6" opacity=".28"/><path d="m311.535 604.102h-21.072v3.967h21.072z" fill="#e6e6e6" opacity=".56"/><path d="m254.019 613.242h-21.072v3.966h21.072z" fill="#e6e6e6" opacity=".41"/><path d="m282.863 613.242h-21.071v3.966h21.071z" fill="#e6e6e6" opacity=".16"/><path d="m311.535 613.242h-21.072v3.966h21.072z" fill="#e6e6e6" opacity=".4"/><path d="m254.019 622.382h-21.072v3.966h21.072z" fill="#e6e6e6" opacity=".1"/><path d="m282.863 622.382h-21.071v3.966h21.071z" fill="#e6e6e6" opacity=".17"/><path d="m311.535 622.382h-21.072v3.966h21.072z" fill="#e6e6e6" opacity=".08"/><path d="m254.019 631.521h-21.072v3.966h21.072z" fill="#e6e6e6" opacity=".49"/><path d="m282.863 631.521h-21.071v3.966h21.071z" fill="#e6e6e6" opacity=".58"/><path d="m311.535 631.521h-21.072v3.966h21.072z" fill="#e6e6e6" opacity=".58"/><path d="m254.019 640.661h-21.072v3.966h21.072z" fill="#e6e6e6" opacity=".26"/><path d="m282.863 640.661h-21.071v3.966h21.071z" fill="#e6e6e6" opacity=".37"/><path d="m311.535 640.661h-21.072v3.966h21.072z" fill="#e6e6e6" opacity=".34"/><path d="m254.019 649.8h-21.072v3.966h21.072z" fill="#e6e6e6" opacity=".55"/><path d="m282.863 649.8h-21.071v3.966h21.071z" fill="#e6e6e6" opacity=".12"/><path d="m311.535 649.8h-21.072v3.966h21.072z" fill="#e6e6e6" opacity=".6"/><path d="m254.019 658.94h-21.072v3.966h21.072z" fill="#e6e6e6" opacity=".02"/><path d="m282.863 658.94h-21.071v3.966h21.071z" fill="#e6e6e6" opacity=".28"/><path d="m311.535 658.94h-21.072v3.966h21.072z" fill="#e6e6e6" opacity=".21"/><path d="m254.019 668.079h-21.072v3.967h21.072z" fill="#e6e6e6" opacity=".57"/><path d="m282.863 668.079h-21.071v3.967h21.071z" fill="#e6e6e6" opacity=".38"/><path d="m311.535 668.079h-21.072v3.967h21.072z" fill="#e6e6e6" opacity=".25"/><path d="m254.019 677.219h-21.072v3.966h21.072z" fill="#e6e6e6" opacity=".15"/><path d="m282.863 677.219h-21.071v3.966h21.071z" fill="#e6e6e6" opacity=".47"/><path d="m311.535 677.219h-21.072v3.966h21.072z" fill="#e6e6e6" opacity=".3"/><path d="m254.019 686.358h-21.072v3.967h21.072z" fill="#e6e6e6" opacity=".4"/><path d="m282.863 686.358h-21.071v3.967h21.071z" fill="#e6e6e6" opacity=".39"/><path d="m311.535 686.358h-21.072v3.967h21.072z" fill="#e6e6e6" opacity=".24"/><path d="m254.019 695.498h-21.072v3.966h21.072z" fill="#e6e6e6" opacity=".46"/><path d="m282.863 695.498h-21.071v3.966h21.071z" fill="#e6e6e6" opacity=".22"/><path d="m311.535 695.498h-21.072v3.966h21.072z" fill="#e6e6e6" opacity=".11"/><path d="m282.863 704.638h-21.071v3.966h21.071z" fill="#e6e6e6" opacity=".11"/><path d="m311.535 704.638h-21.072v3.966h21.072z" fill="#e6e6e6" opacity=".02"/><path d="m254.019 713.777h-21.072v3.967h21.072z" fill="#e6e6e6" opacity=".27"/><path d="m282.863 713.777h-21.071v3.967h21.071z" fill="#e6e6e6" opacity=".21"/><path d="m311.535 713.777h-21.072v3.967h21.072z" fill="#e6e6e6" opacity=".49"/><path d="m254.019 722.917h-21.072v3.966h21.072z" fill="#e6e6e6" opacity=".6"/><path d="m282.863 722.917h-21.071v3.966h21.071z" fill="#e6e6e6" opacity=".31"/><path d="m311.535 722.917h-21.072v3.966h21.072z" fill="#e6e6e6" opacity=".22"/><path d="m254.019 732.056h-21.072v3.967h21.072z" fill="#e6e6e6" opacity=".54"/><path d="m282.863 732.056h-21.071v3.967h21.071z" fill="#e6e6e6" opacity=".6"/><path d="m311.535 732.056h-21.072v3.967h21.072z" fill="#e6e6e6" opacity=".08"/><path d="m282.863 741.196h-21.071v3.966h21.071z" fill="#e6e6e6" opacity=".55"/><path d="m311.535 741.196h-21.072v3.966h21.072z" fill="#e6e6e6"/><path d="m255.401 567.544h-1.382v177.618h1.382z" fill="#e6e6e6" opacity=".6"/><path d="m290.463 567.544h-1.382v177.618h1.382z" fill="#e6e6e6" opacity=".6"/><path d="m359.378 557.542h-43.525v221.247h43.525z" fill="#4d4d4d"/><path d="m352.988 567.544h-32.817v3.967h32.817z" fill="#e6e6e6" opacity=".69"/><path d="m352.988 576.684h-32.817v3.966h32.817z" fill="#e6e6e6" opacity=".79"/><path d="m352.988 585.823h-32.817v3.967h32.817z" fill="#e6e6e6" opacity=".19"/><path d="m352.988 594.963h-32.817v3.966h32.817z" fill="#e6e6e6" opacity=".88"/><path d="m352.988 604.102h-32.817v3.967h32.817z" fill="#e6e6e6" opacity=".5"/><path d="m352.988 613.242h-32.817v3.966h32.817z" fill="#e6e6e6" opacity=".25"/><path d="m352.988 622.382h-32.817v3.966h32.817z" fill="#e6e6e6" opacity=".91"/><path d="m352.988 631.521h-32.817v3.966h32.817z" fill="#e6e6e6" opacity=".02"/><path d="m352.988 640.661h-32.817v3.966h32.817z" fill="#e6e6e6" opacity=".53"/><path d="m352.988 649.8h-32.817v3.966h32.817z" fill="#e6e6e6" opacity=".65"/><path d="m352.988 658.94h-32.817v3.966h32.817z" fill="#e6e6e6"/><path d="m352.988 668.079h-32.817v3.967h32.817z" fill="#e6e6e6" opacity=".8"/><path d="m352.988 677.219h-32.817v3.966h32.817z" fill="#e6e6e6" opacity=".82"/><path d="m352.988 686.358h-32.817v3.967h32.817z" fill="#e6e6e6" opacity=".75"/><path d="m352.988 695.498h-32.817v3.966h32.817z" fill="#e6e6e6" opacity=".31"/><path d="m352.988 704.638h-32.817v3.966h32.817z" fill="#e6e6e6" opacity=".22"/><path d="m352.988 713.777h-32.817v3.967h32.817z" fill="#e6e6e6" opacity=".43"/><path d="m352.988 722.917h-32.817v3.966h32.817z" fill="#e6e6e6" opacity=".68"/><path d="m352.988 732.056h-32.817v3.967h32.817z" fill="#e6e6e6" opacity=".38"/><path d="m352.988 741.196h-32.817v3.966h32.817z" fill="#e6e6e6" opacity=".84"/><path d="m244.001 545.816v11.726h56.48v-11.726zm12.609 7.933h-5.873v-3.967h5.873zm9.154 0h-5.7v-3.967h5.7zm9.327 0h-5.7v-3.967h5.7zm9.327 0h-5.873v-3.967h5.873zm9.327 0h-5.873v-3.967h5.873z" fill="#333"/><path d="m310.844 549.782h-1.554v3.967h1.554z" fill="#333"/><path d="m300.481 545.816v11.726h26.599v-11.726zm10.363 7.933h-5.7v-3.967h5.7zm12.263 0h-5.699v-3.967h5.699z" fill="#4d4d4d"/><path d="m322.935 549.782h-1.555v3.967h1.555z" fill="#333"/><path d="m327.425 793.79h-117.449l117.449-86.567z" fill="#333"/><path d="m152.287 510.637h-9.5v36.041h9.5z" fill="#4d4d4d"/><path d="m142.96 510.637h-9.672v36.041h9.672z" fill="#333"/><path d="m162.132 510.637h-9.672v36.041h9.672z" fill="#666"/><path d="m190.113 571.338h-26.945v205.554h26.945z" fill="#666"/><path d="m131.561 571.338h-23.49v205.554h23.49z" fill="#333"/><path d="m163.168 571.338h-31.78v205.554h31.78z" fill="#4d4d4d"/><path d="m114.807 577.373h-3.455v196.759h3.455z" fill="#e6e6e6" opacity=".6"/><path d="m121.543 577.373h-3.455v196.759h3.455z" fill="#e6e6e6" opacity=".6"/><path d="m128.279 577.373h-3.454v196.759h3.454z" fill="#e6e6e6" opacity=".6"/><path d="m168.523 577.373h-3.455v196.759h3.455z" fill="#e6e6e6"/><path d="m175.259 577.373h-3.455v196.759h3.455z" fill="#e6e6e6"/><path d="m188.385 577.373h-3.454v196.759h3.454z" fill="#e6e6e6"/><path d="m181.995 577.373h-3.455v196.759h3.455z" fill="#e6e6e6"/><path d="m135.36 774.132h23.836v-196.759h-23.836zm3.8-193.31h16.236v189.862h-16.236z" fill="#e6e6e6" opacity=".8"/><path d="m142.269 767.407h10.191v-183.481h-10.191zm3.455-179.17h1.209.691 1.381v174.859h-1.381-.691-1.209z" fill="#e6e6e6" opacity=".8"/><path d="m147.624 588.237h-.691v174.859h.691z" fill="#e6e6e6" opacity=".8"/><path d="m159.541 535.297h-23.835v36.041h23.835z" fill="#4d4d4d"/><path d="m159.541 535.297h-23.835v36.041h23.835z" fill="#4d4d4d"/><path d="m183.377 535.297h-23.836v36.041h23.836z" fill="#666"/><path d="m135.706 535.297h-23.836v36.041h23.836z" fill="#333"/><path d="m161.959 510.637h-28.671l9.499 6.553h9.673z" fill="#808080"/><path d="m674.42 497.359h-13.817v40.525h13.817z" fill="#4d4d4d"/><path d="m660.43 497.359h-13.818v40.525h13.818z" fill="#333"/><path d="m688.238 497.359h-13.818v40.525h13.818z" fill="#666"/><path d="m729 565.82h-39.035v231.593h39.035z" fill="#666"/><path d="m644.021 565.82h-33.853v231.593h33.853z" fill="#333"/><path d="m689.965 565.82h-45.943v231.593h45.943z" fill="#4d4d4d"/><path d="m619.841 572.717h-5.009v221.591h5.009z" fill="#e6e6e6" opacity=".4"/><path d="m629.686 572.717h-5.009v221.591h5.009z" fill="#e6e6e6" opacity=".4"/><path d="m639.531 572.717h-5.009v221.591h5.009z" fill="#e6e6e6" opacity=".4"/><path d="m697.738 572.717h-5.009v221.591h5.009z" fill="#e6e6e6"/><path d="m707.583 572.717h-5.009v221.591h5.009z" fill="#e6e6e6"/><path d="m726.409 572.717h-5.009v221.591h5.009z" fill="#e6e6e6"/><path d="m717.255 572.717h-5.009v221.591h5.009z" fill="#e6e6e6"/><path d="m649.894 794.308h34.544v-221.591h-34.544zm5.354-217.797h23.49v214.003h-23.49z" fill="#e6e6e6"/><path d="m659.566 786.893h14.854v-206.76h-14.854zm5.182-201.932h1.9.864 1.899v197.104h-1.899-.864-1.9z" fill="#e6e6e6"/><path d="m667.512 584.961h-.864v197.104h.864z" fill="#e6e6e6"/><path d="m684.784 525.295h-34.544v40.525h34.544z" fill="#4d4d4d"/><path d="m684.784 525.295h-34.544v40.525h34.544z" fill="#4d4d4d"/><path d="m719.328 525.295h-34.544v40.525h34.544z" fill="#666"/><path d="m650.412 525.295h-34.544v40.525h34.544z" fill="#333"/><path d="m688.411 497.359h-41.799l13.991 7.415h13.817z" fill="#808080"/><path d="m574.761 597.894h-94.478v31.384h94.478z" fill="#e6e6e6"/><path d="m517.418 597.894h-37.135v31.384h37.135z" fill="#b3b3b3"/><path d="m517.418 629.451h-73.407v152.441h73.407z" fill="#333"/><path d="m632.104 629.451h-114.686v152.441h114.686z" fill="#4d4d4d"/><path d="m508.436 613.931h-56.479v15.52h56.479z" fill="#333"/><path d="m615.005 613.931h-80.661v15.52h80.661z" fill="#4d4d4d"/><path d="m549.716 585.995h-32.298v11.898h32.298z" fill="#e6e6e6"/><path d="m533.481 573.924h-16.063v11.899h16.063z" fill="#4d4d4d"/><path d="m517.245 573.924h-16.063v11.899h16.063z" fill="#333"/><path d="m517.418 585.995h-24.699v11.898h24.699z" fill="#b3b3b3"/><path d="m516.381 573.924 1.037-27.591.863 27.591z" fill="#333"/><g fill="#fff"><path d="m467.156 635.659h-6.045v6.035h6.045z" opacity=".12"/><path d="m475.447 635.659h-6.046v6.035h6.046z" opacity=".25"/><path d="m483.737 635.659h-6.045v6.035h6.045z" opacity=".36"/><path d="m492.028 635.659h-6.046v6.035h6.046z" opacity=".12"/><path d="m500.318 635.659h-6.045v6.035h6.045z" opacity=".14"/><path d="m467.156 643.591h-6.045v6.036h6.045z" opacity=".28"/><path d="m475.447 643.591h-6.046v6.036h6.046z" opacity=".4"/><path d="m483.737 643.591h-6.045v6.036h6.045z" opacity=".16"/><path d="m500.318 643.591h-6.045v6.036h6.045z" opacity=".17"/><path d="m467.156 651.524h-6.045v6.035h6.045z" opacity=".27"/><path d="m475.447 651.524h-6.046v6.035h6.046z" opacity=".45"/><path d="m483.737 651.524h-6.045v6.035h6.045z" opacity=".45"/><path d="m492.028 651.524h-6.046v6.035h6.046z" opacity=".48"/><path d="m500.318 651.524h-6.045v6.035h6.045z" opacity=".25"/><path d="m467.156 659.456h-6.045v6.036h6.045z" opacity=".28"/><path d="m475.447 659.456h-6.046v6.036h6.046z" opacity=".13"/><path d="m483.737 659.456h-6.045v6.036h6.045z" opacity=".07"/><path d="m492.028 659.456h-6.046v6.036h6.046z" opacity=".39"/><path d="m500.318 659.456h-6.045v6.036h6.045z" opacity=".47"/><path d="m467.156 667.388h-6.045v6.036h6.045z" opacity=".28"/><path d="m475.447 667.388h-6.046v6.036h6.046z" opacity=".2"/><path d="m483.737 667.388h-6.045v6.036h6.045z" opacity=".04"/><path d="m492.028 667.388h-6.046v6.036h6.046z" opacity=".43"/><path d="m500.318 667.388h-6.045v6.036h6.045z" opacity=".48"/><path d="m467.156 675.321h-6.045v6.036h6.045z" opacity=".28"/><path d="m475.447 675.321h-6.046v6.036h6.046z" opacity=".19"/><path d="m483.737 675.321h-6.045v6.036h6.045z" opacity=".01"/><path d="m492.028 675.321h-6.046v6.036h6.046z" opacity=".27"/><path d="m500.318 675.321h-6.045v6.036h6.045z" opacity=".24"/><path d="m467.156 683.426h-6.045v6.035h6.045z" opacity=".07"/><path d="m475.447 683.426h-6.046v6.035h6.046z" opacity=".25"/><path d="m483.737 683.426h-6.045v6.035h6.045z" opacity=".26"/><path d="m492.028 683.426h-6.046v6.035h6.046z" opacity=".39"/><path d="m500.318 683.426h-6.045v6.035h6.045z" opacity=".22"/><path d="m467.156 691.358h-6.045v6.036h6.045z" opacity=".15"/><path d="m475.447 691.358h-6.046v6.036h6.046z" opacity=".23"/><path d="m483.737 691.358h-6.045v6.036h6.045z" opacity=".05"/><path d="m492.028 691.358h-6.046v6.036h6.046z" opacity=".2"/><path d="m500.318 691.358h-6.045v6.036h6.045z" opacity=".31"/><path d="m467.156 699.291h-6.045v6.035h6.045z" opacity=".15"/><path d="m475.447 699.291h-6.046v6.035h6.046z" opacity=".33"/><path d="m483.737 699.291h-6.045v6.035h6.045z" opacity=".46"/><path d="m492.028 699.291h-6.046v6.035h6.046z" opacity=".25"/><path d="m500.318 699.291h-6.045v6.035h6.045z" opacity=".43"/><path d="m467.156 707.223h-6.045v6.036h6.045z" opacity=".4"/><path d="m475.447 707.223h-6.046v6.036h6.046z" opacity=".39"/><path d="m483.737 707.223h-6.045v6.036h6.045z" opacity=".01"/><path d="m492.028 707.223h-6.046v6.036h6.046z" opacity=".12"/><path d="m500.318 707.223h-6.045v6.036h6.045z" opacity=".07"/><path d="m467.156 715.156h-6.045v6.035h6.045z" opacity=".07"/><path d="m475.447 715.156h-6.046v6.035h6.046z" opacity=".02"/><path d="m483.737 715.156h-6.045v6.035h6.045z" opacity=".12"/><path d="m492.028 715.156h-6.046v6.035h6.046z" opacity=".23"/><path d="m500.318 715.156h-6.045v6.035h6.045z" opacity=".26"/><path d="m467.156 723.088h-6.045v6.036h6.045z" opacity=".27"/><path d="m475.447 723.088h-6.046v6.036h6.046z" opacity=".38"/><path d="m483.737 723.088h-6.045v6.036h6.045z" opacity=".05"/><path d="m492.028 723.088h-6.046v6.036h6.046z" opacity=".45"/><path d="m500.318 723.088h-6.045v6.036h6.045z" opacity=".15"/><path d="m467.156 731.021h-6.045v6.035h6.045z" opacity=".06"/><path d="m475.447 731.021h-6.046v6.035h6.046z" opacity=".47"/><path d="m483.737 731.021h-6.045v6.035h6.045z" opacity=".15"/><path d="m492.028 731.021h-6.046v6.035h6.046z" opacity=".44"/><path d="m500.318 731.021h-6.045v6.035h6.045z" opacity=".14"/><path d="m467.156 738.953h-6.045v6.036h6.045z" opacity=".15"/><path d="m475.447 738.953h-6.046v6.036h6.046z" opacity=".43"/><path d="m483.737 738.953h-6.045v6.036h6.045z" opacity=".07"/><path d="m492.028 738.953h-6.046v6.036h6.046z" opacity=".47"/><path d="m500.318 738.953h-6.045v6.036h6.045z" opacity=".11"/><path d="m467.156 746.885h-6.045v6.036h6.045z" opacity=".07"/><path d="m475.447 746.885h-6.046v6.036h6.046z" opacity=".34"/><path d="m483.737 746.885h-6.045v6.036h6.045z" opacity=".5"/><path d="m492.028 746.885h-6.046v6.036h6.046z" opacity=".36"/><path d="m500.318 746.885h-6.045v6.036h6.045z" opacity=".34"/><path d="m467.156 754.818h-6.045v6.036h6.045z" opacity=".47"/><path d="m475.447 754.818h-6.046v6.036h6.046z" opacity=".41"/><path d="m483.737 754.818h-6.045v6.036h6.045z" opacity=".3"/><path d="m492.028 754.818h-6.046v6.036h6.046z" opacity=".33"/><path d="m500.318 754.818h-6.045v6.036h6.045z" opacity=".12"/><path d="m467.156 762.75h-6.045v6.036h6.045z" opacity=".24"/><path d="m475.447 762.75h-6.046v6.036h6.046z" opacity=".29"/><path d="m492.028 762.75h-6.046v6.036h6.046z" opacity=".27"/><path d="m500.318 762.75h-6.045v6.036h6.045z" opacity=".04"/><path d="m467.156 770.683h-6.045v6.035h6.045z" opacity=".11"/><path d="m475.447 770.683h-6.046v6.035h6.046z" opacity=".05"/><path d="m483.737 770.683h-6.045v6.035h6.045z" opacity=".04"/><path d="m492.028 770.683h-6.046v6.035h6.046z" opacity=".02"/><path d="m537.453 635.659h-6.045v6.035h6.045z" opacity=".3"/><path d="m545.398 635.659h-6.045v6.035h6.045z" opacity=".72"/><path d="m553.516 635.659h-6.045v6.035h6.045z" opacity=".7"/><path d="m561.634 635.659h-6.045v6.035h6.045z" opacity=".52"/><path d="m569.752 635.659h-6.046v6.035h6.046z" opacity=".2"/><path d="m577.697 635.659h-6.045v6.035h6.045z" opacity=".32"/><path d="m585.815 635.659h-6.045v6.035h6.045z" opacity=".13"/><path d="m593.933 635.659h-6.046v6.035h6.046z" opacity=".38"/><path d="m601.878 635.659h-6.045v6.035h6.045z" opacity=".61"/><path d="m609.996 635.659h-6.046v6.035h6.046z"/><path d="m618.113 635.659h-6.045v6.035h6.045z" opacity=".91"/><path d="m537.453 643.591h-6.045v6.036h6.045z" opacity=".66"/><path d="m545.398 643.591h-6.045v6.036h6.045z" opacity=".31"/><path d="m553.516 643.591h-6.045v6.036h6.045z" opacity=".95"/><path d="m561.634 643.591h-6.045v6.036h6.045z" opacity=".7"/><path d="m569.752 643.591h-6.046v6.036h6.046z" opacity=".12"/><path d="m577.697 643.591h-6.045v6.036h6.045z" opacity=".24"/><path d="m585.815 643.591h-6.045v6.036h6.045z" opacity=".66"/><path d="m593.933 643.591h-6.046v6.036h6.046z" opacity=".71"/><path d="m601.878 643.591h-6.045v6.036h6.045z" opacity=".42"/><path d="m609.996 643.591h-6.046v6.036h6.046z" opacity=".09"/><path d="m618.113 643.591h-6.045v6.036h6.045z" opacity=".32"/><path d="m537.453 651.524h-6.045v6.035h6.045z" opacity=".65"/><path d="m545.398 651.524h-6.045v6.035h6.045z"/><path d="m553.516 651.524h-6.045v6.035h6.045z"/><path d="m561.634 651.524h-6.045v6.035h6.045z" opacity=".71"/><path d="m569.752 651.524h-6.046v6.035h6.046z" opacity=".2"/><path d="m577.697 651.524h-6.045v6.035h6.045z" opacity=".19"/><path d="m585.815 651.524h-6.045v6.035h6.045z" opacity=".62"/><path d="m593.933 651.524h-6.046v6.035h6.046z" opacity=".93"/><path d="m601.878 651.524h-6.045v6.035h6.045z" opacity=".56"/><path d="m609.996 651.524h-6.046v6.035h6.046z" opacity=".57"/><path d="m618.113 651.524h-6.045v6.035h6.045z" opacity=".52"/><path d="m537.453 659.456h-6.045v6.036h6.045z" opacity=".74"/><path d="m545.398 659.456h-6.045v6.036h6.045z" opacity=".56"/><path d="m553.516 659.456h-6.045v6.036h6.045z" opacity=".78"/><path d="m561.634 659.456h-6.045v6.036h6.045z" opacity=".41"/><path d="m569.752 659.456h-6.046v6.036h6.046z" opacity=".14"/><path d="m577.697 659.456h-6.045v6.036h6.045z" opacity=".28"/><path d="m585.815 659.456h-6.045v6.036h6.045z" opacity=".36"/><path d="m593.933 659.456h-6.046v6.036h6.046z" opacity=".14"/><path d="m601.878 659.456h-6.045v6.036h6.045z" opacity=".5"/><path d="m609.996 659.456h-6.046v6.036h6.046z" opacity=".98"/><path d="m618.113 659.456h-6.045v6.036h6.045z" opacity=".59"/><path d="m537.453 667.388h-6.045v6.036h6.045z" opacity=".07"/><path d="m545.398 667.388h-6.045v6.036h6.045z" opacity=".1"/><path d="m553.516 667.388h-6.045v6.036h6.045z" opacity=".88"/><path d="m561.634 667.388h-6.045v6.036h6.045z" opacity=".68"/><path d="m569.752 667.388h-6.046v6.036h6.046z" opacity=".81"/><path d="m577.697 667.388h-6.045v6.036h6.045z" opacity=".62"/><path d="m585.815 667.388h-6.045v6.036h6.045z" opacity=".97"/><path d="m593.933 667.388h-6.046v6.036h6.046z" opacity=".81"/><path d="m601.878 667.388h-6.045v6.036h6.045z" opacity=".79"/><path d="m609.996 667.388h-6.046v6.036h6.046z" opacity=".03"/><path d="m618.113 667.388h-6.045v6.036h6.045z" opacity=".95"/><path d="m537.453 675.321h-6.045v6.036h6.045z" opacity=".62"/><path d="m545.398 675.321h-6.045v6.036h6.045z" opacity=".22"/><path d="m553.516 675.321h-6.045v6.036h6.045z" opacity=".42"/><path d="m561.634 675.321h-6.045v6.036h6.045z" opacity=".56"/><path d="m569.752 675.321h-6.046v6.036h6.046z" opacity=".03"/><path d="m577.697 675.321h-6.045v6.036h6.045z" opacity=".64"/><path d="m585.815 675.321h-6.045v6.036h6.045z" opacity=".82"/><path d="m593.933 675.321h-6.046v6.036h6.046z" opacity=".52"/><path d="m601.878 675.321h-6.045v6.036h6.045z" opacity=".46"/><path d="m609.996 675.321h-6.046v6.036h6.046z" opacity=".27"/><path d="m618.113 675.321h-6.045v6.036h6.045z" opacity=".46"/><path d="m537.453 683.426h-6.045v6.035h6.045z" opacity=".66"/><path d="m545.398 683.426h-6.045v6.035h6.045z" opacity=".7"/><path d="m553.516 683.426h-6.045v6.035h6.045z" opacity=".94"/><path d="m561.634 683.426h-6.045v6.035h6.045z" opacity=".5"/><path d="m569.752 683.426h-6.046v6.035h6.046z" opacity=".12"/><path d="m577.697 683.426h-6.045v6.035h6.045z" opacity=".36"/><path d="m585.815 683.426h-6.045v6.035h6.045z" opacity=".51"/><path d="m593.933 683.426h-6.046v6.035h6.046z" opacity=".37"/><path d="m601.878 683.426h-6.045v6.035h6.045z" opacity=".66"/><path d="m609.996 683.426h-6.046v6.035h6.046z" opacity=".42"/><path d="m618.113 683.426h-6.045v6.035h6.045z" opacity=".5"/><path d="m537.453 691.358h-6.045v6.036h6.045z" opacity=".52"/><path d="m545.398 691.358h-6.045v6.036h6.045z" opacity=".61"/><path d="m553.516 691.358h-6.045v6.036h6.045z" opacity=".84"/><path d="m561.634 691.358h-6.045v6.036h6.045z" opacity=".89"/><path d="m569.752 691.358h-6.046v6.036h6.046z" opacity=".33"/><path d="m577.697 691.358h-6.045v6.036h6.045z" opacity=".25"/><path d="m585.815 691.358h-6.045v6.036h6.045z" opacity=".95"/><path d="m593.933 691.358h-6.046v6.036h6.046z" opacity=".09"/><path d="m601.878 691.358h-6.045v6.036h6.045z" opacity=".44"/><path d="m609.996 691.358h-6.046v6.036h6.046z" opacity=".51"/><path d="m618.113 691.358h-6.045v6.036h6.045z" opacity=".97"/><path d="m537.453 699.291h-6.045v6.035h6.045z" opacity=".26"/><path d="m545.398 699.291h-6.045v6.035h6.045z" opacity=".92"/><path d="m553.516 699.291h-6.045v6.035h6.045z" opacity=".33"/><path d="m561.634 699.291h-6.045v6.035h6.045z" opacity=".23"/><path d="m569.752 699.291h-6.046v6.035h6.046z" opacity=".42"/><path d="m577.697 699.291h-6.045v6.035h6.045z" opacity=".57"/><path d="m585.815 699.291h-6.045v6.035h6.045z" opacity=".73"/><path d="m593.933 699.291h-6.046v6.035h6.046z" opacity=".87"/><path d="m601.878 699.291h-6.045v6.035h6.045z" opacity=".22"/><path d="m609.996 699.291h-6.046v6.035h6.046z" opacity=".89"/><path d="m618.113 699.291h-6.045v6.035h6.045z" opacity=".73"/><path d="m537.453 707.223h-6.045v6.036h6.045z" opacity=".35"/><path d="m545.398 707.223h-6.045v6.036h6.045z" opacity=".81"/><path d="m553.516 707.223h-6.045v6.036h6.045z" opacity=".56"/><path d="m561.634 707.223h-6.045v6.036h6.045z" opacity=".81"/><path d="m569.752 707.223h-6.046v6.036h6.046z" opacity=".87"/><path d="m577.697 707.223h-6.045v6.036h6.045z" opacity=".39"/><path d="m585.815 707.223h-6.045v6.036h6.045z" opacity=".31"/><path d="m593.933 707.223h-6.046v6.036h6.046z" opacity=".98"/><path d="m601.878 707.223h-6.045v6.036h6.045z" opacity=".17"/><path d="m609.996 707.223h-6.046v6.036h6.046z" opacity=".06"/><path d="m618.113 707.223h-6.045v6.036h6.045z" opacity=".57"/><path d="m537.453 715.156h-6.045v6.035h6.045z" opacity=".67"/><path d="m545.398 715.156h-6.045v6.035h6.045z" opacity=".83"/><path d="m553.516 715.156h-6.045v6.035h6.045z" opacity=".99"/><path d="m561.634 715.156h-6.045v6.035h6.045z" opacity=".62"/><path d="m569.752 715.156h-6.046v6.035h6.046z" opacity=".87"/><path d="m577.697 715.156h-6.045v6.035h6.045z" opacity=".14"/><path d="m585.815 715.156h-6.045v6.035h6.045z" opacity=".12"/><path d="m593.933 715.156h-6.046v6.035h6.046z" opacity=".11"/><path d="m601.878 715.156h-6.045v6.035h6.045z" opacity=".39"/><path d="m609.996 715.156h-6.046v6.035h6.046z" opacity=".58"/><path d="m618.113 715.156h-6.045v6.035h6.045z" opacity=".54"/><path d="m537.453 723.088h-6.045v6.036h6.045z" opacity=".99"/><path d="m545.398 723.088h-6.045v6.036h6.045z" opacity=".28"/><path d="m553.516 723.088h-6.045v6.036h6.045z" opacity=".78"/><path d="m561.634 723.088h-6.045v6.036h6.045z" opacity=".65"/><path d="m569.752 723.088h-6.046v6.036h6.046z" opacity=".32"/><path d="m577.697 723.088h-6.045v6.036h6.045z" opacity=".55"/><path d="m585.815 723.088h-6.045v6.036h6.045z" opacity=".4"/><path d="m593.933 723.088h-6.046v6.036h6.046z" opacity=".22"/><path d="m601.878 723.088h-6.045v6.036h6.045z" opacity=".87"/><path d="m609.996 723.088h-6.046v6.036h6.046z" opacity=".02"/><path d="m618.113 723.088h-6.045v6.036h6.045z" opacity=".39"/><path d="m537.453 731.021h-6.045v6.035h6.045z" opacity=".89"/><path d="m545.398 731.021h-6.045v6.035h6.045z" opacity=".97"/><path d="m553.516 731.021h-6.045v6.035h6.045z" opacity=".79"/><path d="m561.634 731.021h-6.045v6.035h6.045z" opacity=".41"/><path d="m569.752 731.021h-6.046v6.035h6.046z" opacity=".13"/><path d="m577.697 731.021h-6.045v6.035h6.045z" opacity=".9"/><path d="m585.815 731.021h-6.045v6.035h6.045z" opacity=".98"/><path d="m593.933 731.021h-6.046v6.035h6.046z" opacity=".67"/><path d="m601.878 731.021h-6.045v6.035h6.045z" opacity=".65"/><path d="m609.996 731.021h-6.046v6.035h6.046z" opacity=".89"/><path d="m618.113 731.021h-6.045v6.035h6.045z" opacity=".98"/><path d="m537.453 738.953h-6.045v6.036h6.045z" opacity=".29"/><path d="m545.398 738.953h-6.045v6.036h6.045z" opacity=".74"/><path d="m553.516 738.953h-6.045v6.036h6.045z" opacity=".64"/><path d="m561.634 738.953h-6.045v6.036h6.045z" opacity=".65"/><path d="m569.752 738.953h-6.046v6.036h6.046z" opacity=".07"/><path d="m577.697 738.953h-6.045v6.036h6.045z" opacity=".16"/><path d="m585.815 738.953h-6.045v6.036h6.045z" opacity=".84"/><path d="m593.933 738.953h-6.046v6.036h6.046z" opacity=".88"/><path d="m601.878 738.953h-6.045v6.036h6.045z" opacity=".57"/><path d="m609.996 738.953h-6.046v6.036h6.046z" opacity=".31"/><path d="m618.113 738.953h-6.045v6.036h6.045z" opacity=".03"/><path d="m537.453 746.885h-6.045v6.036h6.045z" opacity=".3"/><path d="m545.398 746.885h-6.045v6.036h6.045z" opacity=".59"/><path d="m553.516 746.885h-6.045v6.036h6.045z" opacity=".93"/><path d="m561.634 746.885h-6.045v6.036h6.045z" opacity=".06"/><path d="m569.752 746.885h-6.046v6.036h6.046z" opacity=".74"/><path d="m577.697 746.885h-6.045v6.036h6.045z" opacity=".22"/><path d="m585.815 746.885h-6.045v6.036h6.045z" opacity=".51"/><path d="m593.933 746.885h-6.046v6.036h6.046z" opacity=".7"/><path d="m601.878 746.885h-6.045v6.036h6.045z" opacity=".47"/><path d="m609.996 746.885h-6.046v6.036h6.046z" opacity=".08"/><path d="m618.113 746.885h-6.045v6.036h6.045z" opacity=".93"/><path d="m537.453 754.818h-6.045v6.036h6.045z" opacity=".81"/><path d="m545.398 754.818h-6.045v6.036h6.045z" opacity=".9"/><path d="m553.516 754.818h-6.045v6.036h6.045z" opacity=".55"/><path d="m561.634 754.818h-6.045v6.036h6.045z" opacity=".14"/><path d="m569.752 754.818h-6.046v6.036h6.046z" opacity=".66"/><path d="m577.697 754.818h-6.045v6.036h6.045z" opacity=".92"/><path d="m585.815 754.818h-6.045v6.036h6.045z" opacity=".4"/><path d="m593.933 754.818h-6.046v6.036h6.046z" opacity=".6"/><path d="m601.878 754.818h-6.045v6.036h6.045z" opacity=".99"/><path d="m609.996 754.818h-6.046v6.036h6.046z" opacity=".68"/><path d="m618.113 754.818h-6.045v6.036h6.045z" opacity=".01"/><path d="m537.453 762.75h-6.045v6.036h6.045z" opacity=".82"/><path d="m545.398 762.75h-6.045v6.036h6.045z" opacity=".92"/><path d="m553.516 762.75h-6.045v6.036h6.045z" opacity=".29"/><path d="m561.634 762.75h-6.045v6.036h6.045z" opacity=".73"/><path d="m569.752 762.75h-6.046v6.036h6.046z" opacity=".42"/><path d="m577.697 762.75h-6.045v6.036h6.045z" opacity=".06"/><path d="m585.815 762.75h-6.045v6.036h6.045z" opacity=".7"/><path d="m593.933 762.75h-6.046v6.036h6.046z" opacity=".97"/><path d="m601.878 762.75h-6.045v6.036h6.045z" opacity=".51"/><path d="m609.996 762.75h-6.046v6.036h6.046z" opacity=".69"/><path d="m618.113 762.75h-6.045v6.036h6.045z" opacity=".49"/><path d="m537.453 770.683h-6.045v6.035h6.045z" opacity=".45"/><path d="m545.398 770.683h-6.045v6.035h6.045z" opacity=".46"/><path d="m553.516 770.683h-6.045v6.035h6.045z" opacity=".04"/><path d="m561.634 770.683h-6.045v6.035h6.045z" opacity=".56"/><path d="m569.752 770.683h-6.046v6.035h6.046z" opacity=".4"/><path d="m577.697 770.683h-6.045v6.035h6.045z" opacity=".59"/><path d="m585.815 770.683h-6.045v6.035h6.045z" opacity=".82"/><path d="m593.933 770.683h-6.046v6.035h6.046z" opacity=".99"/><path d="m601.878 770.683h-6.045v6.035h6.045z" opacity=".1"/><path d="m609.996 770.683h-6.046v6.035h6.046z" opacity=".87"/><path d="m618.113 770.683h-6.045v6.035h6.045z"/></g><path d="m435.375 596.859h-56.997v178.308h56.997z" fill="#333"/><path d="m404.286 587.892h-25.908v10.002h25.908z" fill="#333"/><path d="m393.404 582.029h-15.026v5.863h15.026z" fill="#333"/><path d="m411.367 609.448h-9.327v9.312h9.327z" fill="#fff" opacity=".25"/><path d="m411.367 632.383h-9.327v9.312h9.327z" fill="#fff" opacity=".15"/><path d="m411.367 678.08h-9.327v9.312h9.327z" fill="#fff" opacity=".19"/><path d="m411.367 700.843h-9.327v9.312h9.327z" fill="#fff" opacity=".17"/><path d="m411.367 723.606h-9.327v9.312h9.327z" fill="#fff" opacity=".22"/><path d="m411.367 746.541h-9.327v9.312h9.327z" fill="#fff"/><path d="m393.059 696.187h-53.371v15.692h53.371z" fill="#333"/><path d="m419.658 696.187h-26.599v15.692h26.599z" fill="#4d4d4d"/><path d="m339.688 696.187 16.582-7.932 36.789 7.932z" fill="#333"/><path d="m356.27 688.255 36.789 7.932h26.599z" fill="#4d4d4d"/><path d="m405.495 707.223h-78.07v71.392h78.07z" fill="#333"/><path d="m431.403 707.223h-25.908v71.392h25.908z" fill="#4d4d4d"/><path d="m425.358 712.224h-13.991v5.174h13.991z" fill="#fff" opacity=".81"/><path d="m425.358 721.709h-13.991v5.173h13.991z" fill="#fff" opacity=".76"/><path d="m425.358 731.193h-13.991v5.174h13.991z" fill="#fff" opacity=".32"/><path d="m425.358 740.85h-13.991v5.173h13.991z" fill="#fff" opacity=".49"/><path d="m425.358 759.819h-13.991v5.173h13.991z" fill="#fff" opacity=".99"/><path d="m353.852 712.224h-13.991v5.174h13.991z" fill="#fff" opacity=".1"/><path d="m373.369 712.224h-13.991v5.174h13.991z" fill="#fff" opacity=".04"/><path d="m393.059 712.224h-13.99v5.174h13.99z" fill="#fff" opacity=".07"/><path d="m353.852 721.709h-13.991v5.173h13.991z" fill="#fff" opacity=".06"/><path d="m373.369 721.709h-13.991v5.173h13.991z" fill="#fff" opacity=".44"/><path d="m393.059 721.709h-13.99v5.173h13.99z" fill="#fff" opacity=".24"/><path d="m353.852 731.193h-13.991v5.174h13.991z" fill="#fff" opacity=".55"/><path d="m373.369 731.193h-13.991v5.174h13.991z" fill="#fff" opacity=".02"/><path d="m393.059 731.193h-13.99v5.174h13.99z" fill="#fff" opacity=".14"/><path d="m353.852 740.85h-13.991v5.173h13.991z" fill="#fff" opacity=".43"/><path d="m373.369 740.85h-13.991v5.173h13.991z" fill="#fff" opacity=".41"/><path d="m393.059 740.85h-13.99v5.173h13.99z" fill="#fff" opacity=".46"/><path d="m353.852 750.335h-13.991v5.173h13.991z" fill="#fff" opacity=".45"/><path d="m373.369 750.335h-13.991v5.173h13.991z" fill="#fff" opacity=".33"/><path d="m393.059 750.335h-13.99v5.173h13.99z" fill="#fff" opacity=".05"/><path d="m353.852 759.819h-13.991v5.174h13.991z" fill="#fff" opacity=".27"/><path d="m373.369 759.819h-13.991v5.174h13.991z" fill="#fff" opacity=".15"/><path d="m393.059 759.819h-13.99v5.174h13.99z" fill="#fff" opacity=".7"/><path d="m25.6829 635.832h-48.3617v148.819h48.3617z" fill="#333"/><path d="m80.7806 635.832h-54.925v148.819h54.925z" fill="#4d4d4d"/><path d="m25.6829 648.42h-48.3617v2.587h48.3617z" fill="#4d4d4d"/><path d="m80.7806 648.42h-54.925v2.587h54.925z" fill="#333"/><path d="m.638458 653.939h-5.181668v5.173h5.181668z" fill="#fff" opacity=".32"/><path d="m7.71997 653.939h-5.18164v5.173h5.18164z" fill="#fff" opacity=".25"/><path d="m21.8831 653.939h-5.1817v5.173h5.1817z" fill="#fff" opacity=".12"/><path d="m.638458 661.009h-5.181668v5.173h5.181668z" fill="#fff" opacity=".22"/><path d="m7.71997 661.009h-5.18164v5.173h5.18164z" fill="#fff" opacity=".47"/><path d="m14.8015 661.009h-5.18157v5.173h5.18157z" fill="#fff" opacity=".22"/><path d="m21.8831 661.009h-5.1817v5.173h5.1817z" fill="#fff" opacity=".32"/><path d="m.638458 668.079h-5.181668v5.173h5.181668z" fill="#fff" opacity=".18"/><path d="m7.71997 668.079h-5.18164v5.173h5.18164z" fill="#fff" opacity=".28"/><path d="m21.8831 668.079h-5.1817v5.173h5.1817z" fill="#fff" opacity=".2"/><path d="m.638458 675.149h-5.181668v5.174h5.181668z" fill="#fff" opacity=".33"/><path d="m7.71997 675.149h-5.18164v5.174h5.18164z" fill="#fff" opacity=".05"/><path d="m14.8015 675.149h-5.18157v5.174h5.18157z" fill="#fff" opacity=".08"/><path d="m7.71997 682.219h-5.18164v5.174h5.18164z" fill="#fff" opacity=".08"/><path d="m14.8015 682.219h-5.18157v5.174h5.18157z" fill="#fff" opacity=".02"/><path d="m.638458 689.29h-5.181668v5.173h5.181668z" fill="#fff" opacity=".05"/><path d="m7.71997 689.29h-5.18164v5.173h5.18164z" fill="#fff" opacity=".2"/><path d="m14.8015 689.29h-5.18157v5.173h5.18157z" fill="#fff" opacity=".23"/><path d="m.638458 696.36h-5.181668v5.173h5.181668z" fill="#fff" opacity=".14"/><path d="m14.8015 696.36h-5.18157v5.173h5.18157z" fill="#fff" opacity=".24"/><path d="m.638458 703.43h-5.181668v5.173h5.181668z" fill="#fff" opacity=".23"/><path d="m7.71997 703.43h-5.18164v5.173h5.18164z" fill="#fff" opacity=".02"/><path d="m14.8015 703.43h-5.18157v5.173h5.18157z" fill="#fff" opacity=".04"/><path d="m21.8831 703.43h-5.1817v5.173h5.1817z" fill="#fff" opacity=".3"/><path d="m21.8831 710.328h-5.1817v5.173h5.1817z" fill="#fff" opacity=".4"/><path d="m.638458 717.398h-5.181668v5.174h5.181668z" fill="#fff" opacity=".12"/><path d="m14.8015 717.398h-5.18157v5.174h5.18157z" fill="#fff" opacity=".19"/><path d="m21.8831 717.398h-5.1817v5.174h5.1817z" fill="#fff" opacity=".43"/><path d="m7.71997 724.468h-5.18164v5.174h5.18164z" fill="#fff" opacity=".42"/><path d="m21.8831 724.468h-5.1817v5.174h5.1817z" fill="#fff" opacity=".31"/><path d="m7.71997 731.539h-5.18164v5.173h5.18164z" fill="#fff" opacity=".31"/><path d="m21.8831 731.539h-5.1817v5.173h5.1817z" fill="#fff" opacity=".33"/><path d="m7.71997 738.609h-5.18164v5.173h5.18164z" fill="#fff" opacity=".17"/><path d="m14.8015 738.609h-5.18157v5.173h5.18157z" fill="#fff" opacity=".01"/><path d="m21.8831 738.609h-5.1817v5.173h5.1817z" fill="#fff" opacity=".48"/><path d="m.638458 745.679h-5.181668v5.173h5.181668z" fill="#fff" opacity=".28"/><path d="m7.71997 745.679h-5.18164v5.173h5.18164z" fill="#fff" opacity=".02"/><path d="m14.8015 745.679h-5.18157v5.173h5.18157z" fill="#fff" opacity=".17"/><path d="m21.8831 745.679h-5.1817v5.173h5.1817z" fill="#fff" opacity=".42"/><path d="m.638458 752.749h-5.181668v5.174h5.181668z" fill="#fff" opacity=".11"/><path d="m7.71997 752.749h-5.18164v5.174h5.18164z" fill="#fff" opacity=".02"/><path d="m21.8831 752.749h-5.1817v5.174h5.1817z" fill="#fff" opacity=".3"/><path d="m.638458 759.82h-5.181668v5.173h5.181668z" fill="#fff" opacity=".19"/><path d="m7.71997 759.82h-5.18164v5.173h5.18164z" fill="#fff" opacity=".05"/><path d="m21.8831 759.82h-5.1817v5.173h5.1817z" fill="#fff" opacity=".2"/><path d="m7.71997 766.89h-5.18164v5.173h5.18164z" fill="#fff" opacity=".27"/><path d="m14.8015 766.89h-5.18157v5.173h5.18157z" fill="#fff" opacity=".13"/><path d="m.638458 773.96h-5.181668v5.173h5.181668z" fill="#fff" opacity=".46"/><path d="m7.71997 773.96h-5.18164v5.173h5.18164z" fill="#fff" opacity=".12"/><path d="m14.8015 773.96h-5.18157v5.173h5.18157z" fill="#fff" opacity=".04"/><path d="m21.8831 773.96h-5.1817v5.173h5.1817z" fill="#fff" opacity=".3"/><path d="m14.8015 653.939h-5.18157v5.173h5.18157z" fill="#fff" opacity=".08"/><path d="m14.8015 668.079h-5.18157v5.173h5.18157z" fill="#fff" opacity=".08"/><path d="m21.8831 675.149h-5.1817v5.174h5.1817z" fill="#fff" opacity=".01"/><path d="m.638458 682.219h-5.181668v5.174h5.181668z" fill="#fff" opacity=".15"/><path d="m21.8831 682.219h-5.1817v5.174h5.1817z" fill="#fff" opacity=".12"/><path d="m7.71997 696.36h-5.18164v5.173h5.18164z" fill="#fff" opacity=".13"/><path d="m21.8831 696.36h-5.1817v5.173h5.1817z" fill="#fff" opacity=".07"/><path d="m.638458 710.328h-5.181668v5.173h5.181668z" fill="#fff" opacity=".02"/><path d="m7.71997 710.328h-5.18164v5.173h5.18164z" fill="#fff" opacity=".02"/><path d="m14.8015 710.328h-5.18157v5.173h5.18157z" fill="#fff" opacity=".14"/><path d="m.638458 724.468h-5.181668v5.174h5.181668z" fill="#fff" opacity=".09"/><path d="m14.8015 724.468h-5.18157v5.174h5.18157z" fill="#fff" opacity=".02"/><path d="m.638458 731.539h-5.181668v5.173h5.181668z" fill="#fff" opacity=".19"/><path d="m14.8015 731.539h-5.18157v5.173h5.18157z" fill="#fff" opacity=".06"/><path d="m.638458 738.609h-5.181668v5.173h5.181668z" fill="#fff" opacity=".16"/><path d="m14.8015 752.749h-5.18157v5.174h5.18157z" fill="#fff" opacity=".04"/><path d="m14.8015 759.82h-5.18157v5.173h5.18157z" fill="#fff" opacity=".04"/><path d="m21.8831 766.89h-5.1817v5.173h5.1817z" fill="#fff" opacity=".18"/><g fill="#e6e6e6" opacity=".7"><path d="m36.2188 651.007h-5.3543v127.091h5.3543z" opacity=".7"/><path d="m45.373 651.007h-5.3543v127.091h5.3543z" opacity=".7"/><path d="m54.6999 651.007h-5.3543v127.091h5.3543z" opacity=".7"/><path d="m64.0268 651.007h-5.3543v127.091h5.3543z" opacity=".7"/><path d="m73.3537 651.007h-5.3543v127.091h5.3543z" opacity=".7"/></g><path d="m108.416 778.099h-107.432113l107.432113-93.465z" fill="#333"/><path d="m99.2618 761.544h-36.9621v20.693h36.9621z" fill="#4d4d4d"/><path d="m96.4983 756.716h-31.4351v9.657h31.4351z" fill="#4d4d4d"/><path d="m92.8712 759.647h-24.3536l8.4633-14.14h7.4269z" fill="#4d4d4d"/><path d="m89.4168 765.683h-17.272v12.588h17.272z" fill="#fff"/><path d="m91.4893 770.684h-21.4173v2.586h21.4173z" fill="#4d4d4d"/><path d="m264.21 795.515c.518 13.451-9.845 25.005-23.49 25.522-13.472.517-25.045-10.002-25.563-23.452-.518-13.451 9.845-25.005 23.49-25.522 13.472-.517 24.872 10.002 25.563 23.452z" fill="#333"/><path d="m260.064 788.79c.346 7.76-5.699 14.313-13.472 14.658-7.772.345-14.335-5.691-14.681-13.451-.345-7.76 5.7-14.313 13.472-14.658 7.773-.345 14.336 5.691 14.681 13.451z" fill="#4d4d4d"/><path d="m17.5651 770.166c0 3.277-2.7636 6.036-6.0453 6.036-3.28166 0-6.04519-2.759-6.04519-6.036 0-3.276 2.76353-6.035 6.04519-6.035 3.2817 0 6.0453 2.586 6.0453 6.035z" fill="#333"/><path d="m19.6377 776.202c0 4.483-3.6271 8.105-8.1179 8.105-4.49068 0-8.11782-3.622-8.11782-8.105 0-4.484 3.62714-8.105 8.11782-8.105 4.4908 0 8.1179 3.621 8.1179 8.105z" fill="#333"/><path d="m15.4924 764.993c0 2.242-1.7272 4.139-3.9725 4.139-2.24539 0-3.9726-1.897-3.9726-4.139s1.72721-4.139 3.9726-4.139c2.2453 0 3.9725 1.897 3.9725 4.139z" fill="#333"/><path d="m16.7014 770.166c0 1.897-1.5544 3.449-3.4543 3.449-1.9 0-3.45444-1.552-3.45444-3.449s1.55444-3.449 3.45444-3.449c1.8999 0 3.4543 1.552 3.4543 3.449z" fill="#4d4d4d"/><path d="m14.9742 765.51c0 1.38-1.209 2.587-2.5907 2.587-1.3818 0-2.59084-1.207-2.59084-2.587 0-1.379 1.20904-2.587 2.59084-2.587 1.3817-.172 2.5907 1.035 2.5907 2.587z" fill="#4d4d4d"/><path d="m132.77 782.754c0 4.312-3.628 7.933-7.946 7.933s-7.945-3.621-7.945-7.933c0-4.311 3.455-7.932 7.945-7.932 4.318 0 7.946 3.621 7.946 7.932z" fill="#333"/><path d="m130.006 776.029c0 2.932-2.245 5.346-5.182 5.346-2.936 0-5.181-2.414-5.181-5.346 0-2.931 2.245-5.346 5.181-5.346 2.764 0 5.182 2.415 5.182 5.346z" fill="#333"/><path d="m129.315 776.546c0 1.897-1.554 3.449-3.454 3.449s-3.455-1.552-3.455-3.449 1.555-3.449 3.455-3.449 3.454 1.552 3.454 3.449z" fill="#4d4d4d"/><path d="m122.061 788.618c-.864 8.277-8.291 14.14-16.408 13.278-8.2911-.862-14.1636-8.277-13.3-16.382.8636-8.278 8.291-14.141 16.408-13.278 8.118.862 14.164 8.104 13.3 16.382z" fill="#333"/><path d="m118.261 775.34c-.518 5.518-5.354 9.657-10.881 9.139-5.355-.517-9.3273-5.518-8.8091-11.036s5.3541-9.657 10.8811-9.14c5.527.518 9.327 5.518 8.809 11.037z" fill="#333"/><path d="m116.879 776.374c-.345 3.622-3.627 6.208-7.081 5.863-3.627-.345-6.218-3.621-5.873-7.07.346-3.621 3.627-6.208 7.082-5.863 3.627.345 6.218 3.621 5.872 7.07z" fill="#4d4d4d"/><path d="m200.303 781.375c0 7.588-6.045 13.623-13.645 13.623s-13.645-6.035-13.645-13.623 6.045-13.623 13.645-13.623c7.427 0 13.645 6.035 13.645 13.623z" fill="#333"/><path d="m195.467 769.649c0 5.173-3.973 9.312-8.981 9.312-5.009 0-8.982-4.139-8.982-9.312 0-5.174 3.973-9.312 8.982-9.312 5.008.172 8.981 4.311 8.981 9.312z" fill="#333"/><path d="m198.231 781.375c0 4.311-3.455 7.932-7.946 7.932-4.318 0-7.945-3.448-7.945-7.932 0-4.311 3.455-7.932 7.945-7.932 4.318.172 7.946 3.621 7.946 7.932z" fill="#4d4d4d"/><path d="m194.258 770.856c0 3.276-2.591 6.035-6.045 6.035-3.282 0-6.045-2.586-6.045-6.035 0-3.277 2.59-5.863 6.045-5.863 3.454-.173 6.045 2.586 6.045 5.863z" fill="#4d4d4d"/><path d="m170.077 792.756c0 9.657-7.945 17.589-17.617 17.589-9.673 0-17.618-7.932-17.618-17.589s7.945-17.589 17.618-17.589c9.672 0 17.617 7.76 17.617 17.589z" fill="#333"/><path d="m164.032 777.581c0 6.553-5.182 11.899-11.572 11.899-6.391 0-11.573-5.346-11.573-11.899s5.182-11.899 11.573-11.899c6.39 0 11.572 5.346 11.572 11.899z" fill="#333"/><path d="m162.477 779.133c0 4.311-3.454 7.588-7.772 7.588s-7.773-3.449-7.773-7.588c0-4.311 3.455-7.76 7.773-7.76s7.772 3.449 7.772 7.76z" fill="#4d4d4d"/><path d="m212.739 779.65c0 2.07-1.554 3.622-3.454 3.622s-3.455-1.552-3.455-3.622c0-2.069 1.555-3.621 3.455-3.621s3.454 1.552 3.454 3.621z" fill="#333"/><path d="m287.009 775.34c0 6.725-5.355 12.071-12.091 12.071s-12.09-5.346-12.09-12.071c0-6.726 5.354-12.072 12.09-12.072s12.091 5.346 12.091 12.072z" fill="#333"/><path d="m291.154 787.411c0 8.967-7.254 16.21-16.236 16.21-8.981 0-16.235-7.243-16.235-16.21s7.254-16.21 16.235-16.21c8.982 0 16.236 7.243 16.236 16.21z" fill="#333"/><path d="m282.864 764.993c0 4.484-3.628 8.277-7.946 8.277s-7.945-3.621-7.945-8.277c0-4.484 3.627-8.277 7.945-8.277s7.946 3.793 7.946 8.277z" fill="#333"/><path d="m285.109 775.34c0 3.793-3.109 6.897-6.909 6.897s-6.909-3.104-6.909-6.897c0-3.794 3.109-6.898 6.909-6.898s6.909 3.104 6.909 6.898z" fill="#4d4d4d"/><path d="m281.827 766.028c0 2.931-2.418 5.345-5.354 5.345s-5.354-2.414-5.354-5.345c0-2.932 2.418-5.346 5.354-5.346s5.354 2.414 5.354 5.346z" fill="#4d4d4d"/><path d="m332.089 790.515c0 8.967-7.254 16.209-16.236 16.209-8.981 0-16.236-7.242-16.236-16.209s7.255-16.21 16.236-16.21c8.982.172 16.236 7.415 16.236 16.21z" fill="#333"/><path d="m326.389 776.719c0 6.036-4.836 11.037-10.536 11.037-5.873 0-10.709-4.829-10.709-11.037 0-6.035 4.836-10.864 10.709-10.864 5.872 0 10.536 4.829 10.536 10.864z" fill="#333"/><path d="m325.007 778.099c0 3.966-3.109 7.07-7.081 7.07-3.973 0-7.082-3.104-7.082-7.07s3.109-7.07 7.082-7.07c3.972 0 7.081 3.104 7.081 7.07z" fill="#4d4d4d"/><path d="m596.351 797.068c0 14.83-11.918 26.729-26.772 26.729s-26.772-11.899-26.772-26.729c0-14.831 11.918-26.729 26.772-26.729s26.772 12.071 26.772 26.729z" fill="#333"/><path d="m592.378 789.653c0 8.449-6.909 15.347-15.372 15.347s-15.372-6.898-15.372-15.347c0-8.45 6.909-15.348 15.372-15.348s15.372 6.898 15.372 15.348z" fill="#4d4d4d"/><path d="m630.722 785.514c0 12.416-10.19 22.59-22.626 22.59s-22.627-10.174-22.627-22.59 10.191-22.59 22.627-22.59c12.608 0 22.626 10.001 22.626 22.59z" fill="#333"/><path d="m627.268 779.133c0 7.243-5.873 12.934-12.954 12.934-7.255 0-12.954-5.863-12.954-12.934 0-7.07 5.872-12.933 12.954-12.933 7.081 0 12.954 5.863 12.954 12.933z" fill="#4d4d4d"/><path d="m573.034 789.135c0 12.416-10.191 22.59-22.627 22.59s-22.626-10.174-22.626-22.59 10.19-22.59 22.626-22.59c12.609 0 22.627 10.001 22.627 22.59z" fill="#333"/><path d="m569.579 782.755c0 7.242-5.872 12.933-12.954 12.933-7.081 0-12.954-5.863-12.954-12.933 0-7.243 5.873-12.934 12.954-12.934 7.082 0 12.954 5.691 12.954 12.934z" fill="#4d4d4d"/><path d="m503.255 794.309c0 12.416-10.191 22.59-22.627 22.59s-22.626-10.174-22.626-22.59 10.19-22.59 22.626-22.59c12.609 0 22.627 10.174 22.627 22.59z" fill="#333"/><path d="m499.8 787.928c0 7.243-5.872 12.934-12.954 12.934-7.254 0-12.954-5.863-12.954-12.934 0-7.242 5.873-12.933 12.954-12.933 7.082 0 12.954 5.863 12.954 12.933z" fill="#4d4d4d"/><path d="m475.965 790.515c0 12.416-10.191 22.59-22.627 22.59s-22.626-10.174-22.626-22.59 10.19-22.59 22.626-22.59 22.627 10.001 22.627 22.59z" fill="#333"/><path d="m472.51 784.134c0 7.243-5.872 12.934-12.954 12.934-7.254 0-12.954-5.863-12.954-12.934 0-7.242 5.873-12.933 12.954-12.933 7.082 0 12.954 5.691 12.954 12.933z" fill="#4d4d4d"/><path d="m493.582 786.893c0 7.243-5.872 12.933-12.954 12.933-7.254 0-12.954-5.863-12.954-12.933 0-7.243 5.873-12.933 12.954-12.933 7.254 0 12.954 5.863 12.954 12.933z" fill="#4d4d4d"/><path d="m397.032 787.928c0 8.105-6.564 14.83-14.854 14.83-8.118 0-14.854-6.553-14.854-14.83 0-8.105 6.563-14.831 14.854-14.831 8.29.173 14.854 6.726 14.854 14.831z" fill="#333"/><path d="m394.786 783.789c0 4.656-3.8 8.45-8.463 8.45s-8.463-3.794-8.463-8.45 3.8-8.45 8.463-8.45 8.463 3.794 8.463 8.45z" fill="#4d4d4d"/><path d="m8.92905 776.202c0 6.897-5.52707 12.416-12.43588 12.416-6.90877 0-12.43587-5.519-12.43587-12.416 0-6.898 5.5271-12.416 12.43587-12.416 6.73609-.173 12.43588 5.518 12.43588 12.416z" fill="#333"/><path d="m13.0743 788.618c0 9.312-7.42694 16.727-16.75382 16.727s-16.75378-7.415-16.75378-16.727 7.4269-16.727 16.75378-16.727 16.75382 7.415 16.75382 16.727z" fill="#333"/><path d="m4.61105 765.51c0 4.656-3.627126 8.45-8.29057 8.45-4.49072 0-8.29058-3.794-8.29058-8.45s3.62714-8.45 8.29058-8.45c4.663444 0 8.29057 3.794 8.29057 8.45z" fill="#333"/><path d="m7.02902 776.201c0 3.967-3.28168 7.243-7.254255 7.243s-7.254255-3.276-7.254255-7.243c0-3.966 3.28168-7.242 7.254255-7.242s7.254255 3.276 7.254255 7.242z" fill="#4d4d4d"/><path d="m3.57465 766.545c0 2.931-2.41809 5.518-5.52707 5.518-2.93626 0-5.52707-2.414-5.52707-5.518 0-2.932 2.41809-5.518 5.52707-5.518 2.936255 0 5.52707 2.414 5.52707 5.518z" fill="#4d4d4d"/><path d="m67.8267 781.03c0 5.519-4.4907 10.002-10.0178 10.002s-10.0178-4.483-10.0178-10.002c0-5.518 4.4907-10.001 10.0178-10.001s10.0178 4.483 10.0178 10.001z" fill="#333"/><path d="m64.3723 772.408c0 3.794-2.9363 6.898-6.5634 6.898-3.6272 0-6.5634-3.104-6.5634-6.898s2.9362-6.898 6.5634-6.898c3.6271.173 6.5634 3.104 6.5634 6.898z" fill="#333"/><path d="m66.2722 781.03c0 3.277-2.5908 5.863-5.8725 5.863s-5.8725-2.586-5.8725-5.863c0-3.104 2.5908-5.69 5.8725-5.69 3.2817-.173 5.8725 2.414 5.8725 5.69z" fill="#4d4d4d"/><path d="m63.5087 773.27c0 2.415-1.8999 4.311-4.318 4.311s-4.318-1.896-4.318-4.311c0-2.414 1.8999-4.311 4.318-4.311 2.4181-.172 4.318 1.897 4.318 4.311z" fill="#4d4d4d"/></g></svg>