<svg fill="none" height="777" viewBox="0 0 729 777" width="729" xmlns="http://www.w3.org/2000/svg" xmlns:xlink="http://www.w3.org/1999/xlink"><clipPath id="a"><path d="m-398 .321777h1127v776h-1127z"/></clipPath><g clip-path="url(#a)" opacity=".05"><path d="m257.128 646.696h-56.998v133.3h56.998z" fill="#333"/><path d="m226.038 639.971h-25.908v7.588h25.908z" fill="#333"/><path d="m215.157 635.66h-15.027v4.311h15.027z" fill="#333"/><path d="m233.293 656.008h-9.327v6.898h9.327z" fill="#fff" opacity=".06"/><path d="m233.293 673.08h-9.327v6.898h9.327z" fill="#fff" opacity=".12"/><path d="m233.293 707.224h-9.327v6.898h9.327z" fill="#fff" opacity=".19"/><path d="m233.293 741.368h-9.327v6.898h9.327z" fill="#fff" opacity=".14"/><path d="m233.293 758.44h-9.327v6.898h9.327z" fill="#fff" opacity=".1"/><path d="m114.116 661.181h-78.0699v71.392h78.0699z" fill="#333"/><path d="m101.853 654.801h-53.371v30.695h53.371z" fill="#333"/><path d="m119.815 706.189h-78.0692v71.392h78.0692z" fill="#333"/><path d="m107.38 699.808h-53.371v30.695h53.371z" fill="#333"/><path d="m223.793 696.704h-78.069v82.257h78.069z" fill="#333"/><path d="m211.53 689.462h-53.371v35.523h53.371z" fill="#333"/><path d="m485.119 721.71h-78.07v79.496h78.07z" fill="#333"/><path d="m472.856 714.639h-53.371v34.317h53.371z" fill="#333"/><path d="m315.853 557.542h-87.224v221.247h87.224z" fill="#333"/><path d="m254.019 567.544h-21.072v3.967h21.072z" fill="#e6e6e6" opacity=".46"/><path d="m282.863 567.544h-21.071v3.967h21.071z" fill="#e6e6e6" opacity=".34"/><path d="m311.535 567.544h-21.072v3.967h21.072z" fill="#e6e6e6" opacity=".52"/><path d="m254.019 576.684h-21.072v3.966h21.072z" fill="#e6e6e6" opacity=".54"/><path d="m282.863 576.684h-21.071v3.966h21.071z" fill="#e6e6e6" opacity=".3"/><path d="m311.535 576.684h-21.072v3.966h21.072z" fill="#e6e6e6" opacity=".06"/><path d="m254.019 585.823h-21.072v3.967h21.072z" fill="#e6e6e6" opacity=".15"/><path d="m282.863 585.823h-21.071v3.967h21.071z" fill="#e6e6e6" opacity=".42"/><path d="m311.535 585.823h-21.072v3.967h21.072z" fill="#e6e6e6" opacity=".48"/><path d="m254.019 594.963h-21.072v3.966h21.072z" fill="#e6e6e6" opacity=".18"/><path d="m311.535 594.963h-21.072v3.966h21.072z" fill="#e6e6e6" opacity=".28"/><path d="m254.019 604.102h-21.072v3.967h21.072z" fill="#e6e6e6" opacity=".29"/><path d="m282.863 604.102h-21.071v3.967h21.071z" fill="#e6e6e6" opacity=".28"/><path d="m311.535 604.102h-21.072v3.967h21.072z" fill="#e6e6e6" opacity=".56"/><path d="m254.019 613.242h-21.072v3.966h21.072z" fill="#e6e6e6" opacity=".41"/><path d="m282.863 613.242h-21.071v3.966h21.071z" fill="#e6e6e6" opacity=".16"/><path d="m311.535 613.242h-21.072v3.966h21.072z" fill="#e6e6e6" opacity=".4"/><path d="m254.019 622.382h-21.072v3.966h21.072z" fill="#e6e6e6" opacity=".1"/><path d="m282.863 622.382h-21.071v3.966h21.071z" fill="#e6e6e6" opacity=".17"/><path d="m311.535 622.382h-21.072v3.966h21.072z" fill="#e6e6e6" opacity=".08"/><path d="m254.019 631.521h-21.072v3.966h21.072z" fill="#e6e6e6" opacity=".49"/><path d="m282.863 631.521h-21.071v3.966h21.071z" fill="#e6e6e6" opacity=".58"/><path d="m311.535 631.521h-21.072v3.966h21.072z" fill="#e6e6e6" opacity=".58"/><path d="m254.019 640.661h-21.072v3.966h21.072z" fill="#e6e6e6" opacity=".26"/><path d="m282.863 640.661h-21.071v3.966h21.071z" fill="#e6e6e6" opacity=".37"/><path d="m311.535 640.661h-21.072v3.966h21.072z" fill="#e6e6e6" opacity=".34"/><path d="m254.019 649.8h-21.072v3.966h21.072z" fill="#e6e6e6" opacity=".55"/><path d="m282.863 649.8h-21.071v3.966h21.071z" fill="#e6e6e6" opacity=".12"/><path d="m311.535 649.8h-21.072v3.966h21.072z" fill="#e6e6e6" opacity=".6"/><path d="m254.019 658.94h-21.072v3.966h21.072z" fill="#e6e6e6" opacity=".02"/><path d="m282.863 658.94h-21.071v3.966h21.071z" fill="#e6e6e6" opacity=".28"/><path d="m311.535 658.94h-21.072v3.966h21.072z" fill="#e6e6e6" opacity=".21"/><path d="m254.019 668.079h-21.072v3.967h21.072z" fill="#e6e6e6" opacity=".57"/><path d="m282.863 668.079h-21.071v3.967h21.071z" fill="#e6e6e6" opacity=".38"/><path d="m311.535 668.079h-21.072v3.967h21.072z" fill="#e6e6e6" opacity=".25"/><path d="m254.019 677.219h-21.072v3.966h21.072z" fill="#e6e6e6" opacity=".15"/><path d="m282.863 677.219h-21.071v3.966h21.071z" fill="#e6e6e6" opacity=".47"/><path d="m311.535 677.219h-21.072v3.966h21.072z" fill="#e6e6e6" opacity=".3"/><path d="m254.019 686.358h-21.072v3.967h21.072z" fill="#e6e6e6" opacity=".4"/><path d="m282.863 686.358h-21.071v3.967h21.071z" fill="#e6e6e6" opacity=".39"/><path d="m311.535 686.358h-21.072v3.967h21.072z" fill="#e6e6e6" opacity=".24"/><path d="m254.019 695.498h-21.072v3.966h21.072z" fill="#e6e6e6" opacity=".46"/><path d="m282.863 695.498h-21.071v3.966h21.071z" fill="#e6e6e6" opacity=".22"/><path d="m311.535 695.498h-21.072v3.966h21.072z" fill="#e6e6e6" opacity=".11"/><path d="m282.863 704.638h-21.071v3.966h21.071z" fill="#e6e6e6" opacity=".11"/><path d="m311.535 704.638h-21.072v3.966h21.072z" fill="#e6e6e6" opacity=".02"/><path d="m254.019 713.777h-21.072v3.967h21.072z" fill="#e6e6e6" opacity=".27"/><path d="m282.863 713.777h-21.071v3.967h21.071z" fill="#e6e6e6" opacity=".21"/><path d="m311.535 713.777h-21.072v3.967h21.072z" fill="#e6e6e6" opacity=".49"/><path d="m254.019 722.917h-21.072v3.966h21.072z" fill="#e6e6e6" opacity=".6"/><path d="m282.863 722.917h-21.071v3.966h21.071z" fill="#e6e6e6" opacity=".31"/><path d="m311.535 722.917h-21.072v3.966h21.072z" fill="#e6e6e6" opacity=".22"/><path d="m254.019 732.056h-21.072v3.967h21.072z" fill="#e6e6e6" opacity=".54"/><path d="m282.863 732.056h-21.071v3.967h21.071z" fill="#e6e6e6" opacity=".6"/><path d="m311.535 732.056h-21.072v3.967h21.072z" fill="#e6e6e6" opacity=".08"/><path d="m282.863 741.196h-21.071v3.966h21.071z" fill="#e6e6e6" opacity=".55"/><path d="m311.535 741.196h-21.072v3.966h21.072z" fill="#e6e6e6"/><path d="m255.401 567.544h-1.382v177.618h1.382z" fill="#e6e6e6" opacity=".6"/><path d="m290.463 567.544h-1.382v177.618h1.382z" fill="#e6e6e6" opacity=".6"/><path d="m359.378 557.542h-43.525v221.247h43.525z" fill="#4d4d4d"/><path d="m352.988 567.544h-32.817v3.967h32.817z" fill="#e6e6e6" opacity=".69"/><path d="m352.988 576.684h-32.817v3.966h32.817z" fill="#e6e6e6" opacity=".79"/><path d="m352.988 585.823h-32.817v3.967h32.817z" fill="#e6e6e6" opacity=".19"/><path d="m352.988 594.963h-32.817v3.966h32.817z" fill="#e6e6e6" opacity=".88"/><path d="m352.988 604.102h-32.817v3.967h32.817z" fill="#e6e6e6" opacity=".5"/><path d="m352.988 613.242h-32.817v3.966h32.817z" fill="#e6e6e6" opacity=".25"/><path d="m352.988 622.382h-32.817v3.966h32.817z" fill="#e6e6e6" opacity=".91"/><path d="m352.988 631.521h-32.817v3.966h32.817z" fill="#e6e6e6" opacity=".02"/><path d="m352.988 640.661h-32.817v3.966h32.817z" fill="#e6e6e6" opacity=".53"/><path d="m352.988 649.8h-32.817v3.966h32.817z" fill="#e6e6e6" opacity=".65"/><path d="m352.988 658.94h-32.817v3.966h32.817z" fill="#e6e6e6"/><path d="m352.988 668.079h-32.817v3.967h32.817z" fill="#e6e6e6" opacity=".8"/><path d="m352.988 677.219h-32.817v3.966h32.817z" fill="#e6e6e6" opacity=".82"/><path d="m352.988 686.358h-32.817v3.967h32.817z" fill="#e6e6e6" opacity=".75"/><path d="m352.988 695.498h-32.817v3.966h32.817z" fill="#e6e6e6" opacity=".31"/><path d="m352.988 704.638h-32.817v3.966h32.817z" fill="#e6e6e6" opacity=".22"/><path d="m352.988 713.777h-32.817v3.967h32.817z" fill="#e6e6e6" opacity=".43"/><path d="m352.988 722.917h-32.817v3.966h32.817z" fill="#e6e6e6" opacity=".68"/><path d="m352.988 732.056h-32.817v3.967h32.817z" fill="#e6e6e6" opacity=".38"/><path d="m352.988 741.196h-32.817v3.966h32.817z" fill="#e6e6e6" opacity=".84"/><path d="m244.001 545.816v11.726h56.48v-11.726zm12.609 7.933h-5.873v-3.967h5.873zm9.154 0h-5.7v-3.967h5.7zm9.327 0h-5.7v-3.967h5.7zm9.327 0h-5.873v-3.967h5.873zm9.327 0h-5.873v-3.967h5.873z" fill="#333"/><path d="m310.844 549.782h-1.554v3.967h1.554z" fill="#333"/><path d="m300.481 545.816v11.726h26.599v-11.726zm10.363 7.933h-5.7v-3.967h5.7zm12.263 0h-5.699v-3.967h5.699z" fill="#4d4d4d"/><path d="m322.935 549.782h-1.555v3.967h1.555z" fill="#333"/><path d="m327.425 793.79h-117.449l117.449-86.567z" fill="#333"/><path d="m152.287 510.637h-9.5v36.041h9.5z" fill="#4d4d4d"/><path d="m142.96 510.637h-9.672v36.041h9.672z" fill="#333"/><path d="m162.132 510.637h-9.672v36.041h9.672z" fill="#666"/><path d="m190.113 571.338h-26.945v205.554h26.945z" fill="#666"/><path d="m131.561 571.338h-23.49v205.554h23.49z" fill="#333"/><path d="m163.168 571.338h-31.78v205.554h31.78z" fill="#4d4d4d"/><path d="m114.807 577.373h-3.455v196.759h3.455z" fill="#e6e6e6" opacity=".6"/><path d="m121.543 577.373h-3.455v196.759h3.455z" fill="#e6e6e6" opacity=".6"/><path d="m128.279 577.373h-3.454v196.759h3.454z" fill="#e6e6e6" opacity=".6"/><path d="m168.523 577.373h-3.455v196.759h3.455z" fill="#e6e6e6"/><path d="m175.259 577.373h-3.455v196.759h3.455z" fill="#e6e6e6"/><path d="m188.385 577.373h-3.454v196.759h3.454z" fill="#e6e6e6"/><path d="m181.995 577.373h-3.455v196.759h3.455z" fill="#e6e6e6"/><path d="m135.36 774.132h23.836v-196.759h-23.836zm3.8-193.31h16.236v189.862h-16.236z" fill="#e6e6e6" opacity=".8"/><path d="m142.269 767.407h10.191v-183.481h-10.191zm3.455-179.17h1.209.691 1.381v174.859h-1.381-.691-1.209z" fill="#e6e6e6" opacity=".8"/><path d="m147.624 588.237h-.691v174.859h.691z" fill="#e6e6e6" opacity=".8"/><path d="m159.541 535.297h-23.835v36.041h23.835z" fill="#4d4d4d"/><path d="m159.541 535.297h-23.835v36.041h23.835z" fill="#4d4d4d"/><path d="m183.377 535.297h-23.836v36.041h23.836z" fill="#666"/><path d="m135.706 535.297h-23.836v36.041h23.836z" fill="#333"/><path d="m161.959 510.637h-28.671l9.499 6.553h9.673z" fill="#808080"/><path d="m674.42 497.359h-13.817v40.525h13.817z" fill="#4d4d4d"/><path d="m660.43 497.359h-13.818v40.525h13.818z" fill="#333"/><path d="m688.238 497.359h-13.818v40.525h13.818z" fill="#666"/><path d="m729 565.82h-39.035v231.593h39.035z" fill="#666"/><path d="m644.021 565.82h-33.853v231.593h33.853z" fill="#333"/><path d="m689.965 565.82h-45.943v231.593h45.943z" fill="#4d4d4d"/><path d="m619.841 572.717h-5.009v221.591h5.009z" fill="#e6e6e6" opacity=".4"/><path d="m629.686 572.717h-5.009v221.591h5.009z" fill="#e6e6e6" opacity=".4"/><path d="m639.531 572.717h-5.009v221.591h5.009z" fill="#e6e6e6" opacity=".4"/><path d="m697.738 572.717h-5.009v221.591h5.009z" fill="#e6e6e6"/><path d="m707.583 572.717h-5.009v221.591h5.009z" fill="#e6e6e6"/><path d="m726.409 572.717h-5.009v221.591h5.009z" fill="#e6e6e6"/><path d="m717.255 572.717h-5.009v221.591h5.009z" fill="#e6e6e6"/><path d="m649.894 794.308h34.544v-221.591h-34.544zm5.354-217.797h23.49v214.003h-23.49z" fill="#e6e6e6"/><path d="m659.566 786.893h14.854v-206.76h-14.854zm5.182-201.932h1.9.864 1.899v197.104h-1.899-.864-1.9z" fill="#e6e6e6"/><path d="m667.512 584.961h-.864v197.104h.864z" fill="#e6e6e6"/><path d="m684.784 525.295h-34.544v40.525h34.544z" fill="#4d4d4d"/><path d="m684.784 525.295h-34.544v40.525h34.544z" fill="#4d4d4d"/><path d="m719.328 525.295h-34.544v40.525h34.544z" fill="#666"/><path d="m650.412 525.295h-34.544v40.525h34.544z" fill="#333"/><path d="m688.411 497.359h-41.799l13.991 7.415h13.817z" fill="#808080"/><path d="m574.761 597.894h-94.478v31.384h94.478z" fill="#e6e6e6"/><path d="m517.418 597.894h-37.135v31.384h37.135z" fill="#b3b3b3"/><path d="m517.418 629.451h-73.407v152.441h73.407z" fill="#333"/><path d="m632.104 629.451h-114.686v152.441h114.686z" fill="#4d4d4d"/><path d="m508.436 613.931h-56.479v15.52h56.479z" fill="#333"/><path d="m615.005 613.931h-80.661v15.52h80.661z" fill="#4d4d4d"/><path d="m549.716 585.995h-32.298v11.898h32.298z" fill="#e6e6e6"/><path d="m533.481 573.924h-16.063v11.899h16.063z" fill="#4d4d4d"/><path d="m517.245 573.924h-16.063v11.899h16.063z" fill="#333"/><path d="m517.418 585.995h-24.699v11.898h24.699z" fill="#b3b3b3"/><path d="m516.381 573.924 1.037-27.591.863 27.591z" fill="#333"/><g fill="#fff"><path d="m467.156 635.659h-6.045v6.035h6.045z" opacity=".12"/><path d="m475.447 635.659h-6.046v6.035h6.046z" opacity=".25"/><path d="m483.737 635.659h-6.045v6.035h6.045z" opacity=".36"/><path d="m492.028 635.659h-6.046v6.035h6.046z" opacity=".12"/><path d="m500.318 635.659h-6.045v6.035h6.045z" opacity=".14"/><path d="m467.156 643.591h-6.045v6.036h6.045z" opacity=".28"/><path d="m475.447 643.591h-6.046v6.036h6.046z" opacity=".4"/><path d="m483.737 643.591h-6.045v6.036h6.045z" opacity=".16"/><path d="m500.318 643.591h-6.045v6.036h6.045z" opacity=".17"/><path d="m467.156 651.524h-6.045v6.035h6.045z" opacity=".27"/><path d="m475.447 651.524h-6.046v6.035h6.046z" opacity=".45"/><path d="m483.737 651.524h-6.045v6.035h6.045z" opacity=".45"/><path d="m492.028 651.524h-6.046v6.035h6.046z" opacity=".48"/><path d="m500.318 651.524h-6.045v6.035h6.045z" opacity=".25"/><path d="m467.156 659.456h-6.045v6.036h6.045z" opacity=".28"/><path d="m475.447 659.456h-6.046v6.036h6.046z" opacity=".13"/><path d="m483.737 659.456h-6.045v6.036h6.045z" opacity=".07"/><path d="m492.028 659.456h-6.046v6.036h6.046z" opacity=".39"/><path d="m500.318 659.456h-6.045v6.036h6.045z" opacity=".47"/><path d="m467.156 667.388h-6.045v6.036h6.045z" opacity=".28"/><path d="m475.447 667.388h-6.046v6.036h6.046z" opacity=".2"/><path d="m483.737 667.388h-6.045v6.036h6.045z" opacity=".04"/><path d="m492.028 667.388h-6.046v6.036h6.046z" opacity=".43"/><path d="m500.318 667.388h-6.045v6.036h6.045z" opacity=".48"/><path d="m467.156 675.321h-6.045v6.036h6.045z" opacity=".28"/><path d="m475.447 675.321h-6.046v6.036h6.046z" opacity=".19"/><path d="m483.737 675.321h-6.045v6.036h6.045z" opacity=".01"/><path d="m492.028 675.321h-6.046v6.036h6.046z" opacity=".27"/><path d="m500.318 675.321h-6.045v6.036h6.045z" opacity=".24"/><path d="m467.156 683.426h-6.045v6.035h6.045z" opacity=".07"/><path d="m475.447 683.426h-6.046v6.035h6.046z" opacity=".25"/><path d="m483.737 683.426h-6.045v6.035h6.045z" opacity=".26"/><path d="m492.028 683.426h-6.046v6.035h6.046z" opacity=".39"/><path d="m500.318 683.426h-6.045v6.035h6.045z" opacity=".22"/><path d="m467.156 691.358h-6.045v6.036h6.045z" opacity=".15"/><path d="m475.447 691.358h-6.046v6.036h6.046z" opacity=".23"/><path d="m483.737 691.358h-6.045v6.036h6.045z" opacity=".05"/><path d="m492.028 691.358h-6.046v6.036h6.046z" opacity=".2"/><path d="m500.318 691.358h-6.045v6.036h6.045z" opacity=".31"/><path d="m467.156 699.291h-6.045v6.035h6.045z" opacity=".15"/><path d="m475.447 699.291h-6.046v6.035h6.046z" opacity=".33"/><path d="m483.737 699.291h-6.045v6.035h6.045z" opacity=".46"/><path d="m492.028 699.291h-6.046v6.035h6.046z" opacity=".25"/><path d="m500.318 699.291h-6.045v6.035h6.045z" opacity=".43"/><path d="m467.156 707.223h-6.045v6.036h6.045z" opacity=".4"/><path d="m475.447 707.223h-6.046v6.036h6.046z" opacity=".39"/><path d="m483.737 707.223h-6.045v6.036h6.045z" opacity=".01"/><path d="m492.028 707.223h-6.046v6.036h6.046z" opacity=".12"/><path d="m500.318 707.223h-6.045v6.036h6.045z" opacity=".07"/><path d="m467.156 715.156h-6.045v6.035h6.045z" opacity=".07"/><path d="m475.447 715.156h-6.046v6.035h6.046z" opacity=".02"/><path d="m483.737 715.156h-6.045v6.035h6.045z" opacity=".12"/><path d="m492.028 715.156h-6.046v6.035h6.046z" opacity=".23"/><path d="m500.318 715.156h-6.045v6.035h6.045z" opacity=".26"/><path d="m467.156 723.088h-6.045v6.036h6.045z" opacity=".27"/><path d="m475.447 723.088h-6.046v6.036h6.046z" opacity=".38"/><path d="m483.737 723.088h-6.045v6.036h6.045z" opacity=".05"/><path d="m492.028 723.088h-6.046v6.036h6.046z" opacity=".45"/><path d="m500.318 723.088h-6.045v6.036h6.045z" opacity=".15"/><path d="m467.156 731.021h-6.045v6.035h6.045z" opacity=".06"/><path d="m475.447 731.021h-6.046v6.035h6.046z" opacity=".47"/><path d="m483.737 731.021h-6.045v6.035h6.045z" opacity=".15"/><path d="m492.028 731.021h-6.046v6.035h6.046z" opacity=".44"/><path d="m500.318 731.021h-6.045v6.035h6.045z" opacity=".14"/><path d="m467.156 738.953h-6.045v6.036h6.045z" opacity=".15"/><path d="m475.447 738.953h-6.046v6.036h6.046z" opacity=".43"/><path d="m483.737 738.953h-6.045v6.036h6.045z" opacity=".07"/><path d="m492.028 738.953h-6.046v6.036h6.046z" opacity=".47"/><path d="m500.318 738.953h-6.045v6.036h6.045z" opacity=".11"/><path d="m467.156 746.885h-6.045v6.036h6.045z" opacity=".07"/><path d="m475.447 746.885h-6.046v6.036h6.046z" opacity=".34"/><path d="m483.737 746.885h-6.045v6.036h6.045z" opacity=".5"/><path d="m492.028 746.885h-6.046v6.036h6.046z" opacity=".36"/><path d="m500.318 746.885h-6.045v6.036h6.045z" opacity=".34"/><path d="m467.156 754.818h-6.045v6.036h6.045z" opacity=".47"/><path d="m475.447 754.818h-6.046v6.036h6.046z" opacity=".41"/><path d="m483.737 754.818h-6.045v6.036h6.045z" opacity=".3"/><path d="m492.028 754.818h-6.046v6.036h6.046z" opacity=".33"/><path d="m500.318 754.818h-6.045v6.036h6.045z" opacity=".12"/><path d="m467.156 762.75h-6.045v6.036h6.045z" opacity=".24"/><path d="m475.447 762.75h-6.046v6.036h6.046z" opacity=".29"/><path d="m492.028 762.75h-6.046v6.036h6.046z" opacity=".27"/><path d="m500.318 762.75h-6.045v6.036h6.045z" opacity=".04"/><path d="m467.156 770.683h-6.045v6.035h6.045z" opacity=".11"/><path d="m475.447 770.683h-6.046v6.035h6.046z" opacity=".05"/><path d="m483.737 770.683h-6.045v6.035h6.045z" opacity=".04"/><path d="m492.028 770.683h-6.046v6.035h6.046z" opacity=".02"/><path d="m537.453 635.659h-6.045v6.035h6.045z" opacity=".3"/><path d="m545.398 635.659h-6.045v6.035h6.045z" opacity=".72"/><path d="m553.516 635.659h-6.045v6.035h6.045z" opacity=".7"/><path d="m561.634 635.659h-6.045v6.035h6.045z" opacity=".52"/><path d="m569.752 635.659h-6.046v6.035h6.046z" opacity=".2"/><path d="m577.697 635.659h-6.045v6.035h6.045z" opacity=".32"/><path d="m585.815 635.659h-6.045v6.035h6.045z" opacity=".13"/><path d="m593.933 635.659h-6.046v6.035h6.046z" opacity=".38"/><path d="m601.878 635.659h-6.045v6.035h6.045z" opacity=".61"/><path d="m609.996 635.659h-6.046v6.035h6.046z"/><path d="m618.113 635.659h-6.045v6.035h6.045z" opacity=".91"/><path d="m537.453 643.591h-6.045v6.036h6.045z" opacity=".66"/><path d="m545.398 643.591h-6.045v6.036h6.045z" opacity=".31"/><path d="m553.516 643.591h-6.045v6.036h6.045z" opacity=".95"/><path d="m561.634 643.591h-6.045v6.036h6.045z" opacity=".7"/><path d="m569.752 643.591h-6.046v6.036h6.046z" opacity=".12"/><path d="m577.697 643.591h-6.045v6.036h6.045z" opacity=".24"/><path d="m585.815 643.591h-6.045v6.036h6.045z" opacity=".66"/><path d="m593.933 643.591h-6.046v6.036h6.046z" opacity=".71"/><path d="m601.878 643.591h-6.045v6.036h6.045z" opacity=".42"/><path d="m609.996 643.591h-6.046v6.036h6.046z" opacity=".09"/><path d="m618.113 643.591h-6.045v6.036h6.045z" opacity=".32"/><path d="m537.453 651.524h-6.045v6.035h6.045z" opacity=".65"/><path d="m545.398 651.524h-6.045v6.035h6.045z"/><path d="m553.516 651.524h-6.045v6.035h6.045z"/><path d="m561.634 651.524h-6.045v6.035h6.045z" opacity=".71"/><path d="m569.752 651.524h-6.046v6.035h6.046z" opacity=".2"/><path d="m577.697 651.524h-6.045v6.035h6.045z" opacity=".19"/><path d="m585.815 651.524h-6.045v6.035h6.045z" opacity=".62"/><path d="m593.933 651.524h-6.046v6.035h6.046z" opacity=".93"/><path d="m601.878 651.524h-6.045v6.035h6.045z" opacity=".56"/><path d="m609.996 651.524h-6.046v6.035h6.046z" opacity=".57"/><path d="m618.113 651.524h-6.045v6.035h6.045z" opacity=".52"/><path d="m537.453 659.456h-6.045v6.036h6.045z" opacity=".74"/><path d="m545.398 659.456h-6.045v6.036h6.045z" opacity=".56"/><path d="m553.516 659.456h-6.045v6.036h6.045z" opacity=".78"/><path d="m561.634 659.456h-6.045v6.036h6.045z" opacity=".41"/><path d="m569.752 659.456h-6.046v6.036h6.046z" opacity=".14"/><path d="m577.697 659.456h-6.045v6.036h6.045z" opacity=".28"/><path d="m585.815 659.456h-6.045v6.036h6.045z" opacity=".36"/><path d="m593.933 659.456h-6.046v6.036h6.046z" opacity=".14"/><path d="m601.878 659.456h-6.045v6.036h6.045z" opacity=".5"/><path d="m609.996 659.456h-6.046v6.036h6.046z" opacity=".98"/><path d="m618.113 659.456h-6.045v6.036h6.045z" opacity=".59"/><path d="m537.453 667.388h-6.045v6.036h6.045z" opacity=".07"/><path d="m545.398 667.388h-6.045v6.036h6.045z" opacity=".1"/><path d="m553.516 667.388h-6.045v6.036h6.045z" opacity=".88"/><path d="m561.634 667.388h-6.045v6.036h6.045z" opacity=".68"/><path d="m569.752 667.388h-6.046v6.036h6.046z" opacity=".81"/><path d="m577.697 667.388h-6.045v6.036h6.045z" opacity=".62"/><path d="m585.815 667.388h-6.045v6.036h6.045z" opacity=".97"/><path d="m593.933 667.388h-6.046v6.036h6.046z" opacity=".81"/><path d="m601.878 667.388h-6.045v6.036h6.045z" opacity=".79"/><path d="m609.996 667.388h-6.046v6.036h6.046z" opacity=".03"/><path d="m618.113 667.388h-6.045v6.036h6.045z" opacity=".95"/><path d="m537.453 675.321h-6.045v6.036h6.045z" opacity=".62"/><path d="m545.398 675.321h-6.045v6.036h6.045z" opacity=".22"/><path d="m553.516 675.321h-6.045v6.036h6.045z" opacity=".42"/><path d="m561.634 675.321h-6.045v6.036h6.045z" opacity=".56"/><path d="m569.752 675.321h-6.046v6.036h6.046z" opacity=".03"/><path d="m577.697 675.321h-6.045v6.036h6.045z" opacity=".64"/><path d="m585.815 675.321h-6.045v6.036h6.045z" opacity=".82"/><path d="m593.933 675.321h-6.046v6.036h6.046z" opacity=".52"/><path d="m601.878 675.321h-6.045v6.036h6.045z" opacity=".46"/><path d="m609.996 675.321h-6.046v6.036h6.046z" opacity=".27"/><path d="m618.113 675.321h-6.045v6.036h6.045z" opacity=".46"/><path d="m537.453 683.426h-6.045v6.035h6.045z" opacity=".66"/><path d="m545.398 683.426h-6.045v6.035h6.045z" opacity=".7"/><path d="m553.516 683.426h-6.045v6.035h6.045z" opacity=".94"/><path d="m561.634 683.426h-6.045v6.035h6.045z" opacity=".5"/><path d="m569.752 683.426h-6.046v6.035h6.046z" opacity=".12"/><path d="m577.697 683.426h-6.045v6.035h6.045z" opacity=".36"/><path d="m585.815 683.426h-6.045v6.035h6.045z" opacity=".51"/><path d="m593.933 683.426h-6.046v6.035h6.046z" opacity=".37"/><path d="m601.878 683.426h-6.045v6.035h6.045z" opacity=".66"/><path d="m609.996 683.426h-6.046v6.035h6.046z" opacity=".42"/><path d="m618.113 683.426h-6.045v6.035h6.045z" opacity=".5"/><path d="m537.453 691.358h-6.045v6.036h6.045z" opacity=".52"/><path d="m545.398 691.358h-6.045v6.036h6.045z" opacity=".61"/><path d="m553.516 691.358h-6.045v6.036h6.045z" opacity=".84"/><path d="m561.634 691.358h-6.045v6.036h6.045z" opacity=".89"/><path d="m569.752 691.358h-6.046v6.036h6.046z" opacity=".33"/><path d="m577.697 691.358h-6.045v6.036h6.045z" opacity=".25"/><path d="m585.815 691.358h-6.045v6.036h6.045z" opacity=".95"/><path d="m593.933 691.358h-6.046v6.036h6.046z" opacity=".09"/><path d="m601.878 691.358h-6.045v6.036h6.045z" opacity=".44"/><path d="m609.996 691.358h-6.046v6.036h6.046z" opacity=".51"/><path d="m618.113 691.358h-6.045v6.036h6.045z" opacity=".97"/><path d="m537.453 699.291h-6.045v6.035h6.045z" opacity=".26"/><path d="m545.398 699.291h-6.045v6.035h6.045z" opacity=".92"/><path d="m553.516 699.291h-6.045v6.035h6.045z" opacity=".33"/><path d="m561.634 699.291h-6.045v6.035h6.045z" opacity=".23"/><path d="m569.752 699.291h-6.046v6.035h6.046z" opacity=".42"/><path d="m577.697 699.291h-6.045v6.035h6.045z" opacity=".57"/><path d="m585.815 699.291h-6.045v6.035h6.045z" opacity=".73"/><path d="m593.933 699.291h-6.046v6.035h6.046z" opacity=".87"/><path d="m601.878 699.291h-6.045v6.035h6.045z" opacity=".22"/><path d="m609.996 699.291h-6.046v6.035h6.046z" opacity=".89"/><path d="m618.113 699.291h-6.045v6.035h6.045z" opacity=".73"/><path d="m537.453 707.223h-6.045v6.036h6.045z" opacity=".35"/><path d="m545.398 707.223h-6.045v6.036h6.045z" opacity=".81"/><path d="m553.516 707.223h-6.045v6.036h6.045z" opacity=".56"/><path d="m561.634 707.223h-6.045v6.036h6.045z" opacity=".81"/><path d="m569.752 707.223h-6.046v6.036h6.046z" opacity=".87"/><path d="m577.697 707.223h-6.045v6.036h6.045z" opacity=".39"/><path d="m585.815 707.223h-6.045v6.036h6.045z" opacity=".31"/><path d="m593.933 707.223h-6.046v6.036h6.046z" opacity=".98"/><path d="m601.878 707.223h-6.045v6.036h6.045z" opacity=".17"/><path d="m609.996 707.223h-6.046v6.036h6.046z" opacity=".06"/><path d="m618.113 707.223h-6.045v6.036h6.045z" opacity=".57"/><path d="m537.453 715.156h-6.045v6.035h6.045z" opacity=".67"/><path d="m545.398 715.156h-6.045v6.035h6.045z" opacity=".83"/><path d="m553.516 715.156h-6.045v6.035h6.045z" opacity=".99"/><path d="m561.634 715.156h-6.045v6.035h6.045z" opacity=".62"/><path d="m569.752 715.156h-6.046v6.035h6.046z" opacity=".87"/><path d="m577.697 715.156h-6.045v6.035h6.045z" opacity=".14"/><path d="m585.815 715.156h-6.045v6.035h6.045z" opacity=".12"/><path d="m593.933 715.156h-6.046v6.035h6.046z" opacity=".11"/><path d="m601.878 715.156h-6.045v6.035h6.045z" opacity=".39"/><path d="m609.996 715.156h-6.046v6.035h6.046z" opacity=".58"/><path d="m618.113 715.156h-6.045v6.035h6.045z" opacity=".54"/><path d="m537.453 723.088h-6.045v6.036h6.045z" opacity=".99"/><path d="m545.398 723.088h-6.045v6.036h6.045z" opacity=".28"/><path d="m553.516 723.088h-6.045v6.036h6.045z" opacity=".78"/><path d="m561.634 723.088h-6.045v6.036h6.045z" opacity=".65"/><path d="m569.752 723.088h-6.046v6.036h6.046z" opacity=".32"/><path d="m577.697 723.088h-6.045v6.036h6.045z" opacity=".55"/><path d="m585.815 723.088h-6.045v6.036h6.045z" opacity=".4"/><path d="m593.933 723.088h-6.046v6.036h6.046z" opacity=".22"/><path d="m601.878 723.088h-6.045v6.036h6.045z" opacity=".87"/><path d="m609.996 723.088h-6.046v6.036h6.046z" opacity=".02"/><path d="m618.113 723.088h-6.045v6.036h6.045z" opacity=".39"/><path d="m537.453 731.021h-6.045v6.035h6.045z" opacity=".89"/><path d="m545.398 731.021h-6.045v6.035h6.045z" opacity=".97"/><path d="m553.516 731.021h-6.045v6.035h6.045z" opacity=".79"/><path d="m561.634 731.021h-6.045v6.035h6.045z" opacity=".41"/><path d="m569.752 731.021h-6.046v6.035h6.046z" opacity=".13"/><path d="m577.697 731.021h-6.045v6.035h6.045z" opacity=".9"/><path d="m585.815 731.021h-6.045v6.035h6.045z" opacity=".98"/><path d="m593.933 731.021h-6.046v6.035h6.046z" opacity=".67"/><path d="m601.878 731.021h-6.045v6.035h6.045z" opacity=".65"/><path d="m609.996 731.021h-6.046v6.035h6.046z" opacity=".89"/><path d="m618.113 731.021h-6.045v6.035h6.045z" opacity=".98"/><path d="m537.453 738.953h-6.045v6.036h6.045z" opacity=".29"/><path d="m545.398 738.953h-6.045v6.036h6.045z" opacity=".74"/><path d="m553.516 738.953h-6.045v6.036h6.045z" opacity=".64"/><path d="m561.634 738.953h-6.045v6.036h6.045z" opacity=".65"/><path d="m569.752 738.953h-6.046v6.036h6.046z" opacity=".07"/><path d="m577.697 738.953h-6.045v6.036h6.045z" opacity=".16"/><path d="m585.815 738.953h-6.045v6.036h6.045z" opacity=".84"/><path d="m593.933 738.953h-6.046v6.036h6.046z" opacity=".88"/><path d="m601.878 738.953h-6.045v6.036h6.045z" opacity=".57"/><path d="m609.996 738.953h-6.046v6.036h6.046z" opacity=".31"/><path d="m618.113 738.953h-6.045v6.036h6.045z" opacity=".03"/><path d="m537.453 746.885h-6.045v6.036h6.045z" opacity=".3"/><path d="m545.398 746.885h-6.045v6.036h6.045z" opacity=".59"/><path d="m553.516 746.885h-6.045v6.036h6.045z" opacity=".93"/><path d="m561.634 746.885h-6.045v6.036h6.045z" opacity=".06"/><path d="m569.752 746.885h-6.046v6.036h6.046z" opacity=".74"/><path d="m577.697 746.885h-6.045v6.036h6.045z" opacity=".22"/><path d="m585.815 746.885h-6.045v6.036h6.045z" opacity=".51"/><path d="m593.933 746.885h-6.046v6.036h6.046z" opacity=".7"/><path d="m601.878 746.885h-6.045v6.036h6.045z" opacity=".47"/><path d="m609.996 746.885h-6.046v6.036h6.046z" opacity=".08"/><path d="m618.113 746.885h-6.045v6.036h6.045z" opacity=".93"/><path d="m537.453 754.818h-6.045v6.036h6.045z" opacity=".81"/><path d="m545.398 754.818h-6.045v6.036h6.045z" opacity=".9"/><path d="m553.516 754.818h-6.045v6.036h6.045z" opacity=".55"/><path d="m561.634 754.818h-6.045v6.036h6.045z" opacity=".14"/><path d="m569.752 754.818h-6.046v6.036h6.046z" opacity=".66"/><path d="m577.697 754.818h-6.045v6.036h6.045z" opacity=".92"/><path d="m585.815 754.818h-6.045v6.036h6.045z" opacity=".4"/><path d="m593.933 754.818h-6.046v6.036h6.046z" opacity=".6"/><path d="m601.878 754.818h-6.045v6.036h6.045z" opacity=".99"/><path d="m609.996 754.818h-6.046v6.036h6.046z" opacity=".68"/><path d="m618.113 754.818h-6.045v6.036h6.045z" opacity=".01"/><path d="m537.453 762.75h-6.045v6.036h6.045z" opacity=".82"/><path d="m545.398 762.75h-6.045v6.036h6.045z" opacity=".92"/><path d="m553.516 762.75h-6.045v6.036h6.045z" opacity=".29"/><path d="m561.634 762.75h-6.045v6.036h6.045z" opacity=".73"/><path d="m569.752 762.75h-6.046v6.036h6.046z" opacity=".42"/><path d="m577.697 762.75h-6.045v6.036h6.045z" opacity=".06"/><path d="m585.815 762.75h-6.045v6.036h6.045z" opacity=".7"/><path d="m593.933 762.75h-6.046v6.036h6.046z" opacity=".97"/><path d="m601.878 762.75h-6.045v6.036h6.045z" opacity=".51"/><path d="m609.996 762.75h-6.046v6.036h6.046z" opacity=".69"/><path d="m618.113 762.75h-6.045v6.036h6.045z" opacity=".49"/><path d="m537.453 770.683h-6.045v6.035h6.045z" opacity=".45"/><path d="m545.398 770.683h-6.045v6.035h6.045z" opacity=".46"/><path d="m553.516 770.683h-6.045v6.035h6.045z" opacity=".04"/><path d="m561.634 770.683h-6.045v6.035h6.045z" opacity=".56"/><path d="m569.752 770.683h-6.046v6.035h6.046z" opacity=".4"/><path d="m577.697 770.683h-6.045v6.035h6.045z" opacity=".59"/><path d="m585.815 770.683h-6.045v6.035h6.045z" opacity=".82"/><path d="m593.933 770.683h-6.046v6.035h6.046z" opacity=".99"/><path d="m601.878 770.683h-6.045v6.035h6.045z" opacity=".1"/><path d="m609.996 770.683h-6.046v6.035h6.046z" opacity=".87"/><path d="m618.113 770.683h-6.045v6.035h6.045z"/></g><path d="m435.375 596.859h-56.997v178.308h56.997z" fill="#333"/><path d="m404.286 587.892h-25.908v10.002h25.908z" fill="#333"/><path d="m393.404 582.029h-15.026v5.863h15.026z" fill="#333"/><path d="m411.367 609.448h-9.327v9.312h9.327z" fill="#fff" opacity=".25"/><path d="m411.367 632.383h-9.327v9.312h9.327z" fill="#fff" opacity=".15"/><path d="m411.367 678.08h-9.327v9.312h9.327z" fill="#fff" opacity=".19"/><path d="m411.367 700.843h-9.327v9.312h9.327z" fill="#fff" opacity=".17"/><path d="m411.367 723.606h-9.327v9.312h9.327z" fill="#fff" opacity=".22"/><path d="m411.367 746.541h-9.327v9.312h9.327z" fill="#fff"/><path d="m393.059 696.187h-53.371v15.692h53.371z" fill="#333"/><path d="m419.658 696.187h-26.599v15.692h26.599z" fill="#4d4d4d"/><path d="m339.688 696.187 16.582-7.932 36.789 7.932z" fill="#333"/><path d="m356.27 688.255 36.789 7.932h26.599z" fill="#4d4d4d"/><path d="m405.495 707.223h-78.07v71.392h78.07z" fill="#333"/><path d="m431.403 707.223h-25.908v71.392h25.908z" fill="#4d4d4d"/><path d="m425.358 712.224h-13.991v5.174h13.991z" fill="#fff" opacity=".81"/><path d="m425.358 721.709h-13.991v5.173h13.991z" fill="#fff" opacity=".76"/><path d="m425.358 731.193h-13.991v5.174h13.991z" fill="#fff" opacity=".32"/><path d="m425.358 740.85h-13.991v5.173h13.991z" fill="#fff" opacity=".49"/><path d="m425.358 759.819h-13.991v5.173h13.991z" fill="#fff" opacity=".99"/><path d="m353.852 712.224h-13.991v5.174h13.991z" fill="#fff" opacity=".1"/><path d="m373.369 712.224h-13.991v5.174h13.991z" fill="#fff" opacity=".04"/><path d="m393.059 712.224h-13.99v5.174h13.99z" fill="#fff" opacity=".07"/><path d="m353.852 721.709h-13.991v5.173h13.991z" fill="#fff" opacity=".06"/><path d="m373.369 721.709h-13.991v5.173h13.991z" fill="#fff" opacity=".44"/><path d="m393.059 721.709h-13.99v5.173h13.99z" fill="#fff" opacity=".24"/><path d="m353.852 731.193h-13.991v5.174h13.991z" fill="#fff" opacity=".55"/><path d="m373.369 731.193h-13.991v5.174h13.991z" fill="#fff" opacity=".02"/><path d="m393.059 731.193h-13.99v5.174h13.99z" fill="#fff" opacity=".14"/><path d="m353.852 740.85h-13.991v5.173h13.991z" fill="#fff" opacity=".43"/><path d="m373.369 740.85h-13.991v5.173h13.991z" fill="#fff" opacity=".41"/><path d="m393.059 740.85h-13.99v5.173h13.99z" fill="#fff" opacity=".46"/><path d="m353.852 750.335h-13.991v5.173h13.991z" fill="#fff" opacity=".45"/><path d="m373.369 750.335h-13.991v5.173h13.991z" fill="#fff" opacity=".33"/><path d="m393.059 750.335h-13.99v5.173h13.99z" fill="#fff" opacity=".05"/><path d="m353.852 759.819h-13.991v5.174h13.991z" fill="#fff" opacity=".27"/><path d="m373.369 759.819h-13.991v5.174h13.991z" fill="#fff" opacity=".15"/><path d="m393.059 759.819h-13.99v5.174h13.99z" fill="#fff" opacity=".7"/><path d="m25.6829 635.832h-48.3617v148.819h48.3617z" fill="#333"/><path d="m80.7806 635.832h-54.925v148.819h54.925z" fill="#4d4d4d"/><path d="m25.6829 648.42h-48.3617v2.587h48.3617z" fill="#4d4d4d"/><path d="m80.7806 648.42h-54.925v2.587h54.925z" fill="#333"/><path d="m.638458 653.939h-5.181668v5.173h5.181668z" fill="#fff" opacity=".32"/><path d="m7.71997 653.939h-5.18164v5.173h5.18164z" fill="#fff" opacity=".25"/><path d="m21.8831 653.939h-5.1817v5.173h5.1817z" fill="#fff" opacity=".12"/><path d="m.638458 661.009h-5.181668v5.173h5.181668z" fill="#fff" opacity=".22"/><path d="m7.71997 661.009h-5.18164v5.173h5.18164z" fill="#fff" opacity=".47"/><path d="m14.8015 661.009h-5.18157v5.173h5.18157z" fill="#fff" opacity=".22"/><path d="m21.8831 661.009h-5.1817v5.173h5.1817z" fill="#fff" opacity=".32"/><path d="m.638458 668.079h-5.181668v5.173h5.181668z" fill="#fff" opacity=".18"/><path d="m7.71997 668.079h-5.18164v5.173h5.18164z" fill="#fff" opacity=".28"/><path d="m21.8831 668.079h-5.1817v5.173h5.1817z" fill="#fff" opacity=".2"/><path d="m.638458 675.149h-5.181668v5.174h5.181668z" fill="#fff" opacity=".33"/><path d="m7.71997 675.149h-5.18164v5.174h5.18164z" fill="#fff" opacity=".05"/><path d="m14.8015 675.149h-5.18157v5.174h5.18157z" fill="#fff" opacity=".08"/><path d="m7.71997 682.219h-5.18164v5.174h5.18164z" fill="#fff" opacity=".08"/><path d="m14.8015 682.219h-5.18157v5.174h5.18157z" fill="#fff" opacity=".02"/><path d="m.638458 689.29h-5.181668v5.173h5.181668z" fill="#fff" opacity=".05"/><path d="m7.71997 689.29h-5.18164v5.173h5.18164z" fill="#fff" opacity=".2"/><path d="m14.8015 689.29h-5.18157v5.173h5.18157z" fill="#fff" opacity=".23"/><path d="m.638458 696.36h-5.181668v5.173h5.181668z" fill="#fff" opacity=".14"/><path d="m14.8015 696.36h-5.18157v5.173h5.18157z" fill="#fff" opacity=".24"/><path d="m.638458 703.43h-5.181668v5.173h5.181668z" fill="#fff" opacity=".23"/><path d="m7.71997 703.43h-5.18164v5.173h5.18164z" fill="#fff" opacity=".02"/><path d="m14.8015 703.43h-5.18157v5.173h5.18157z" fill="#fff" opacity=".04"/><path d="m21.8831 703.43h-5.1817v5.173h5.1817z" fill="#fff" opacity=".3"/><path d="m21.8831 710.328h-5.1817v5.173h5.1817z" fill="#fff" opacity=".4"/><path d="m.638458 717.398h-5.181668v5.174h5.181668z" fill="#fff" opacity=".12"/><path d="m14.8015 717.398h-5.18157v5.174h5.18157z" fill="#fff" opacity=".19"/><path d="m21.8831 717.398h-5.1817v5.174h5.1817z" fill="#fff" opacity=".43"/><path d="m7.71997 724.468h-5.18164v5.174h5.18164z" fill="#fff" opacity=".42"/><path d="m21.8831 724.468h-5.1817v5.174h5.1817z" fill="#fff" opacity=".31"/><path d="m7.71997 731.539h-5.18164v5.173h5.18164z" fill="#fff" opacity=".31"/><path d="m21.8831 731.539h-5.1817v5.173h5.1817z" fill="#fff" opacity=".33"/><path d="m7.71997 738.609h-5.18164v5.173h5.18164z" fill="#fff" opacity=".17"/><path d="m14.8015 738.609h-5.18157v5.173h5.18157z" fill="#fff" opacity=".01"/><path d="m21.8831 738.609h-5.1817v5.173h5.1817z" fill="#fff" opacity=".48"/><path d="m.638458 745.679h-5.181668v5.173h5.181668z" fill="#fff" opacity=".28"/><path d="m7.71997 745.679h-5.18164v5.173h5.18164z" fill="#fff" opacity=".02"/><path d="m14.8015 745.679h-5.18157v5.173h5.18157z" fill="#fff" opacity=".17"/><path d="m21.8831 745.679h-5.1817v5.173h5.1817z" fill="#fff" opacity=".42"/><path d="m.638458 752.749h-5.181668v5.174h5.181668z" fill="#fff" opacity=".11"/><path d="m7.71997 752.749h-5.18164v5.174h5.18164z" fill="#fff" opacity=".02"/><path d="m21.8831 752.749h-5.1817v5.174h5.1817z" fill="#fff" opacity=".3"/><path d="m.638458 759.82h-5.181668v5.173h5.181668z" fill="#fff" opacity=".19"/><path d="m7.71997 759.82h-5.18164v5.173h5.18164z" fill="#fff" opacity=".05"/><path d="m21.8831 759.82h-5.1817v5.173h5.1817z" fill="#fff" opacity=".2"/><path d="m7.71997 766.89h-5.18164v5.173h5.18164z" fill="#fff" opacity=".27"/><path d="m14.8015 766.89h-5.18157v5.173h5.18157z" fill="#fff" opacity=".13"/><path d="m.638458 773.96h-5.181668v5.173h5.181668z" fill="#fff" opacity=".46"/><path d="m7.71997 773.96h-5.18164v5.173h5.18164z" fill="#fff" opacity=".12"/><path d="m14.8015 773.96h-5.18157v5.173h5.18157z" fill="#fff" opacity=".04"/><path d="m21.8831 773.96h-5.1817v5.173h5.1817z" fill="#fff" opacity=".3"/><path d="m14.8015 653.939h-5.18157v5.173h5.18157z" fill="#fff" opacity=".08"/><path d="m14.8015 668.079h-5.18157v5.173h5.18157z" fill="#fff" opacity=".08"/><path d="m21.8831 675.149h-5.1817v5.174h5.1817z" fill="#fff" opacity=".01"/><path d="m.638458 682.219h-5.181668v5.174h5.181668z" fill="#fff" opacity=".15"/><path d="m21.8831 682.219h-5.1817v5.174h5.1817z" fill="#fff" opacity=".12"/><path d="m7.71997 696.36h-5.18164v5.173h5.18164z" fill="#fff" opacity=".13"/><path d="m21.8831 696.36h-5.1817v5.173h5.1817z" fill="#fff" opacity=".07"/><path d="m.638458 710.328h-5.181668v5.173h5.181668z" fill="#fff" opacity=".02"/><path d="m7.71997 710.328h-5.18164v5.173h5.18164z" fill="#fff" opacity=".02"/><path d="m14.8015 710.328h-5.18157v5.173h5.18157z" fill="#fff" opacity=".14"/><path d="m.638458 724.468h-5.181668v5.174h5.181668z" fill="#fff" opacity=".09"/><path d="m14.8015 724.468h-5.18157v5.174h5.18157z" fill="#fff" opacity=".02"/><path d="m.638458 731.539h-5.181668v5.173h5.181668z" fill="#fff" opacity=".19"/><path d="m14.8015 731.539h-5.18157v5.173h5.18157z" fill="#fff" opacity=".06"/><path d="m.638458 738.609h-5.181668v5.173h5.181668z" fill="#fff" opacity=".16"/><path d="m14.8015 752.749h-5.18157v5.174h5.18157z" fill="#fff" opacity=".04"/><path d="m14.8015 759.82h-5.18157v5.173h5.18157z" fill="#fff" opacity=".04"/><path d="m21.8831 766.89h-5.1817v5.173h5.1817z" fill="#fff" opacity=".18"/><g fill="#e6e6e6" opacity=".7"><path d="m36.2188 651.007h-5.3543v127.091h5.3543z" opacity=".7"/><path d="m45.373 651.007h-5.3543v127.091h5.3543z" opacity=".7"/><path d="m54.6999 651.007h-5.3543v127.091h5.3543z" opacity=".7"/><path d="m64.0268 651.007h-5.3543v127.091h5.3543z" opacity=".7"/><path d="m73.3537 651.007h-5.3543v127.091h5.3543z" opacity=".7"/></g><path d="m108.416 778.099h-107.432113l107.432113-93.465z" fill="#333"/><path d="m99.2618 761.544h-36.9621v20.693h36.9621z" fill="#4d4d4d"/><path d="m96.4983 756.716h-31.4351v9.657h31.4351z" fill="#4d4d4d"/><path d="m92.8712 759.647h-24.3536l8.4633-14.14h7.4269z" fill="#4d4d4d"/><path d="m89.4168 765.683h-17.272v12.588h17.272z" fill="#fff"/><path d="m91.4893 770.684h-21.4173v2.586h21.4173z" fill="#4d4d4d"/><path d="m264.21 795.515c.518 13.451-9.845 25.005-23.49 25.522-13.472.517-25.045-10.002-25.563-23.452-.518-13.451 9.845-25.005 23.49-25.522 13.472-.517 24.872 10.002 25.563 23.452z" fill="#333"/><path d="m260.064 788.79c.346 7.76-5.699 14.313-13.472 14.658-7.772.345-14.335-5.691-14.681-13.451-.345-7.76 5.7-14.313 13.472-14.658 7.773-.345 14.336 5.691 14.681 13.451z" fill="#4d4d4d"/><path d="m17.5651 770.166c0 3.277-2.7636 6.036-6.0453 6.036-3.28166 0-6.04519-2.759-6.04519-6.036 0-3.276 2.76353-6.035 6.04519-6.035 3.2817 0 6.0453 2.586 6.0453 6.035z" fill="#333"/><path d="m19.6377 776.202c0 4.483-3.6271 8.105-8.1179 8.105-4.49068 0-8.11782-3.622-8.11782-8.105 0-4.484 3.62714-8.105 8.11782-8.105 4.4908 0 8.1179 3.621 8.1179 8.105z" fill="#333"/><path d="m15.4924 764.993c0 2.242-1.7272 4.139-3.9725 4.139-2.24539 0-3.9726-1.897-3.9726-4.139s1.72721-4.139 3.9726-4.139c2.2453 0 3.9725 1.897 3.9725 4.139z" fill="#333"/><path d="m16.7014 770.166c0 1.897-1.5544 3.449-3.4543 3.449-1.9 0-3.45444-1.552-3.45444-3.449s1.55444-3.449 3.45444-3.449c1.8999 0 3.4543 1.552 3.4543 3.449z" fill="#4d4d4d"/><path d="m14.9742 765.51c0 1.38-1.209 2.587-2.5907 2.587-1.3818 0-2.59084-1.207-2.59084-2.587 0-1.379 1.20904-2.587 2.59084-2.587 1.3817-.172 2.5907 1.035 2.5907 2.587z" fill="#4d4d4d"/><path d="m132.77 782.754c0 4.312-3.628 7.933-7.946 7.933s-7.945-3.621-7.945-7.933c0-4.311 3.455-7.932 7.945-7.932 4.318 0 7.946 3.621 7.946 7.932z" fill="#333"/><path d="m130.006 776.029c0 2.932-2.245 5.346-5.182 5.346-2.936 0-5.181-2.414-5.181-5.346 0-2.931 2.245-5.346 5.181-5.346 2.764 0 5.182 2.415 5.182 5.346z" fill="#333"/><path d="m129.315 776.546c0 1.897-1.554 3.449-3.454 3.449s-3.455-1.552-3.455-3.449 1.555-3.449 3.455-3.449 3.454 1.552 3.454 3.449z" fill="#4d4d4d"/><path d="m122.061 788.618c-.864 8.277-8.291 14.14-16.408 13.278-8.2911-.862-14.1636-8.277-13.3-16.382.8636-8.278 8.291-14.141 16.408-13.278 8.118.862 14.164 8.104 13.3 16.382z" fill="#333"/><path d="m118.261 775.34c-.518 5.518-5.354 9.657-10.881 9.139-5.355-.517-9.3273-5.518-8.8091-11.036s5.3541-9.657 10.8811-9.14c5.527.518 9.327 5.518 8.809 11.037z" fill="#333"/><path d="m116.879 776.374c-.345 3.622-3.627 6.208-7.081 5.863-3.627-.345-6.218-3.621-5.873-7.07.346-3.621 3.627-6.208 7.082-5.863 3.627.345 6.218 3.621 5.872 7.07z" fill="#4d4d4d"/><path d="m200.303 781.375c0 7.588-6.045 13.623-13.645 13.623s-13.645-6.035-13.645-13.623 6.045-13.623 13.645-13.623c7.427 0 13.645 6.035 13.645 13.623z" fill="#333"/><path d="m195.467 769.649c0 5.173-3.973 9.312-8.981 9.312-5.009 0-8.982-4.139-8.982-9.312 0-5.174 3.973-9.312 8.982-9.312 5.008.172 8.981 4.311 8.981 9.312z" fill="#333"/><path d="m198.231 781.375c0 4.311-3.455 7.932-7.946 7.932-4.318 0-7.945-3.448-7.945-7.932 0-4.311 3.455-7.932 7.945-7.932 4.318.172 7.946 3.621 7.946 7.932z" fill="#4d4d4d"/><path d="m194.258 770.856c0 3.276-2.591 6.035-6.045 6.035-3.282 0-6.045-2.586-6.045-6.035 0-3.277 2.59-5.863 6.045-5.863 3.454-.173 6.045 2.586 6.045 5.863z" fill="#4d4d4d"/><path d="m170.077 792.756c0 9.657-7.945 17.589-17.617 17.589-9.673 0-17.618-7.932-17.618-17.589s7.945-17.589 17.618-17.589c9.672 0 17.617 7.76 17.617 17.589z" fill="#333"/><path d="m164.032 777.581c0 6.553-5.182 11.899-11.572 11.899-6.391 0-11.573-5.346-11.573-11.899s5.182-11.899 11.573-11.899c6.39 0 11.572 5.346 11.572 11.899z" fill="#333"/><path d="m162.477 779.133c0 4.311-3.454 7.588-7.772 7.588s-7.773-3.449-7.773-7.588c0-4.311 3.455-7.76 7.773-7.76s7.772 3.449 7.772 7.76z" fill="#4d4d4d"/><path d="m212.739 779.65c0 2.07-1.554 3.622-3.454 3.622s-3.455-1.552-3.455-3.622c0-2.069 1.555-3.621 3.455-3.621s3.454 1.552 3.454 3.621z" fill="#333"/><path d="m287.009 775.34c0 6.725-5.355 12.071-12.091 12.071s-12.09-5.346-12.09-12.071c0-6.726 5.354-12.072 12.09-12.072s12.091 5.346 12.091 12.072z" fill="#333"/><path d="m291.154 787.411c0 8.967-7.254 16.21-16.236 16.21-8.981 0-16.235-7.243-16.235-16.21s7.254-16.21 16.235-16.21c8.982 0 16.236 7.243 16.236 16.21z" fill="#333"/><path d="m282.864 764.993c0 4.484-3.628 8.277-7.946 8.277s-7.945-3.621-7.945-8.277c0-4.484 3.627-8.277 7.945-8.277s7.946 3.793 7.946 8.277z" fill="#333"/><path d="m285.109 775.34c0 3.793-3.109 6.897-6.909 6.897s-6.909-3.104-6.909-6.897c0-3.794 3.109-6.898 6.909-6.898s6.909 3.104 6.909 6.898z" fill="#4d4d4d"/><path d="m281.827 766.028c0 2.931-2.418 5.345-5.354 5.345s-5.354-2.414-5.354-5.345c0-2.932 2.418-5.346 5.354-5.346s5.354 2.414 5.354 5.346z" fill="#4d4d4d"/><path d="m332.089 790.515c0 8.967-7.254 16.209-16.236 16.209-8.981 0-16.236-7.242-16.236-16.209s7.255-16.21 16.236-16.21c8.982.172 16.236 7.415 16.236 16.21z" fill="#333"/><path d="m326.389 776.719c0 6.036-4.836 11.037-10.536 11.037-5.873 0-10.709-4.829-10.709-11.037 0-6.035 4.836-10.864 10.709-10.864 5.872 0 10.536 4.829 10.536 10.864z" fill="#333"/><path d="m325.007 778.099c0 3.966-3.109 7.07-7.081 7.07-3.973 0-7.082-3.104-7.082-7.07s3.109-7.07 7.082-7.07c3.972 0 7.081 3.104 7.081 7.07z" fill="#4d4d4d"/><path d="m596.351 797.068c0 14.83-11.918 26.729-26.772 26.729s-26.772-11.899-26.772-26.729c0-14.831 11.918-26.729 26.772-26.729s26.772 12.071 26.772 26.729z" fill="#333"/><path d="m592.378 789.653c0 8.449-6.909 15.347-15.372 15.347s-15.372-6.898-15.372-15.347c0-8.45 6.909-15.348 15.372-15.348s15.372 6.898 15.372 15.348z" fill="#4d4d4d"/><path d="m630.722 785.514c0 12.416-10.19 22.59-22.626 22.59s-22.627-10.174-22.627-22.59 10.191-22.59 22.627-22.59c12.608 0 22.626 10.001 22.626 22.59z" fill="#333"/><path d="m627.268 779.133c0 7.243-5.873 12.934-12.954 12.934-7.255 0-12.954-5.863-12.954-12.934 0-7.07 5.872-12.933 12.954-12.933 7.081 0 12.954 5.863 12.954 12.933z" fill="#4d4d4d"/><path d="m573.034 789.135c0 12.416-10.191 22.59-22.627 22.59s-22.626-10.174-22.626-22.59 10.19-22.59 22.626-22.59c12.609 0 22.627 10.001 22.627 22.59z" fill="#333"/><path d="m569.579 782.755c0 7.242-5.872 12.933-12.954 12.933-7.081 0-12.954-5.863-12.954-12.933 0-7.243 5.873-12.934 12.954-12.934 7.082 0 12.954 5.691 12.954 12.934z" fill="#4d4d4d"/><path d="m503.255 794.309c0 12.416-10.191 22.59-22.627 22.59s-22.626-10.174-22.626-22.59 10.19-22.59 22.626-22.59c12.609 0 22.627 10.174 22.627 22.59z" fill="#333"/><path d="m499.8 787.928c0 7.243-5.872 12.934-12.954 12.934-7.254 0-12.954-5.863-12.954-12.934 0-7.242 5.873-12.933 12.954-12.933 7.082 0 12.954 5.863 12.954 12.933z" fill="#4d4d4d"/><path d="m475.965 790.515c0 12.416-10.191 22.59-22.627 22.59s-22.626-10.174-22.626-22.59 10.19-22.59 22.626-22.59 22.627 10.001 22.627 22.59z" fill="#333"/><path d="m472.51 784.134c0 7.243-5.872 12.934-12.954 12.934-7.254 0-12.954-5.863-12.954-12.934 0-7.242 5.873-12.933 12.954-12.933 7.082 0 12.954 5.691 12.954 12.933z" fill="#4d4d4d"/><path d="m493.582 786.893c0 7.243-5.872 12.933-12.954 12.933-7.254 0-12.954-5.863-12.954-12.933 0-7.243 5.873-12.933 12.954-12.933 7.254 0 12.954 5.863 12.954 12.933z" fill="#4d4d4d"/><path d="m397.032 787.928c0 8.105-6.564 14.83-14.854 14.83-8.118 0-14.854-6.553-14.854-14.83 0-8.105 6.563-14.831 14.854-14.831 8.29.173 14.854 6.726 14.854 14.831z" fill="#333"/><path d="m394.786 783.789c0 4.656-3.8 8.45-8.463 8.45s-8.463-3.794-8.463-8.45 3.8-8.45 8.463-8.45 8.463 3.794 8.463 8.45z" fill="#4d4d4d"/><path d="m8.92905 776.202c0 6.897-5.52707 12.416-12.43588 12.416-6.90877 0-12.43587-5.519-12.43587-12.416 0-6.898 5.5271-12.416 12.43587-12.416 6.73609-.173 12.43588 5.518 12.43588 12.416z" fill="#333"/><path d="m13.0743 788.618c0 9.312-7.42694 16.727-16.75382 16.727s-16.75378-7.415-16.75378-16.727 7.4269-16.727 16.75378-16.727 16.75382 7.415 16.75382 16.727z" fill="#333"/><path d="m4.61105 765.51c0 4.656-3.627125 8.45-8.29057 8.45-4.49072 0-8.29058-3.794-8.29058-8.45s3.62714-8.45 8.29058-8.45c4.663445 0 8.29057 3.794 8.29057 8.45z" fill="#333"/><path d="m7.02902 776.201c0 3.967-3.28168 7.243-7.254255 7.243s-7.254255-3.276-7.254255-7.243c0-3.966 3.28168-7.242 7.254255-7.242s7.254255 3.276 7.254255 7.242z" fill="#4d4d4d"/><path d="m3.57465 766.545c0 2.931-2.41809 5.518-5.52707 5.518-2.93626 0-5.52707-2.414-5.52707-5.518 0-2.932 2.41809-5.518 5.52707-5.518 2.936255 0 5.52707 2.414 5.52707 5.518z" fill="#4d4d4d"/><path d="m67.8267 781.03c0 5.519-4.4907 10.002-10.0178 10.002s-10.0178-4.483-10.0178-10.002c0-5.518 4.4907-10.001 10.0178-10.001s10.0178 4.483 10.0178 10.001z" fill="#333"/><path d="m64.3723 772.408c0 3.794-2.9363 6.898-6.5634 6.898-3.6272 0-6.5634-3.104-6.5634-6.898s2.9362-6.898 6.5634-6.898c3.6271.173 6.5634 3.104 6.5634 6.898z" fill="#333"/><path d="m66.2722 781.03c0 3.277-2.5908 5.863-5.8725 5.863s-5.8725-2.586-5.8725-5.863c0-3.104 2.5908-5.69 5.8725-5.69 3.2817-.173 5.8725 2.414 5.8725 5.69z" fill="#4d4d4d"/><path d="m63.5087 773.27c0 2.415-1.8999 4.311-4.318 4.311s-4.318-1.896-4.318-4.311c0-2.414 1.8999-4.311 4.318-4.311 2.4181-.172 4.318 1.897 4.318 4.311z" fill="#4d4d4d"/></g></svg>