<svg fill="none" height="113" viewBox="0 0 113 113" width="113" xmlns="http://www.w3.org/2000/svg" xmlns:xlink="http://www.w3.org/1999/xlink"><filter id="a" color-interpolation-filters="sRGB" filterUnits="userSpaceOnUse" height="112" width="112" x=".5" y=".442383"><feFlood flood-opacity="0" result="BackgroundImageFix"/><feColorMatrix in="SourceAlpha" result="hardAlpha" type="matrix" values="0 0 0 0 0 0 0 0 0 0 0 0 0 0 0 0 0 0 127 0"/><feOffset dy="10"/><feGaussianBlur stdDeviation="10"/><feColorMatrix type="matrix" values="0 0 0 0 0.929412 0 0 0 0 0.752941 0 0 0 0 0.470588 0 0 0 0.2 0"/><feBlend in2="BackgroundImageFix" mode="normal" result="effect1_dropShadow_1_11114"/><feBlend in="SourceGraphic" in2="effect1_dropShadow_1_11114" mode="normal" result="shape"/></filter><g filter="url(#a)"><circle cx="56.5" cy="46.4424" fill="#e3b873" r="36"/></g><g fill="#fff" stroke="#fff" stroke-width=".1"><path d="m56.8396 53.7206c-.3782 0-.687.2993-.687.6711v1.3246c0 .3718.3088.671.687.671s.6869-.2992.6869-.671v-1.3246c0-.3718-.3087-.6711-.6869-.6711z"/><path d="m73.5581 44.4428v-.0001c-.4512-2.1578-1.463-4.1919-2.926-5.8825-1.4084-1.6276-3.2107-2.9089-5.2203-3.7165-.329-1.336-1.0191-2.7137-2.3732-3.7511-1.3181-1.0097-2.6455-1.2044-2.7048-1.2127-.1964-.0273-.3961.0297-.5466.157-.1506.1273-.2374.3123-.2374.5073v3.3036h-2.2244c-.5894-1.9141-2.4112-3.3121-4.562-3.3121-2.1982 0-4.0538 1.4599-4.6002 3.439-3.148.4258-6.0435 1.9165-8.194 4.23l.0367.034-.0367-.034c-2.2692 2.4415-3.5192 5.6023-3.5192 8.9001 0 7.3896 3.9339 13.3999 5.1391 15.0654.3814.5271 1.0054.8413 1.6691.8413h2.711c1.1269 0 2.0458-.8941 2.0458-1.9959v-.8016c.6699.0977 1.3499.1478 2.0307.1478h6.1071v.6538c0 1.1018.9189 1.9959 2.0458 1.9959h2.9779c.9575 0 1.7991-.6624 2.0002-1.5774l.3202-1.4565c4.1761-1.0016 7.5355-3.8581 9.199-7.5647h2.4878c.7522 0 1.3663-.5969 1.3663-1.3334v-5.2995c0-.3566-.1425-.6918-.4007-.9435-.2581-.2516-.601-.39-.9655-.39h-.0001-.0001-.0001l-1.6243.0002c-.0005-.0013-.0008-.0026-.0011-.0039zm1.6181 6.5865h-.0001v.0415h-1.965c.3358-1.0436.5427-2.1395.6027-3.2688.0199-.3713-.2727-.6858-.6505-.7049-.3776-.0187-.7018.264-.7215.6353-.2672 5.0226-3.7557 9.3162-8.62 10.7664l.8718-3.9663c.08-.3636-.1578-.7197-.528-.797-.3695-.0775-.7355.1521-.8153.5153l-1.5169 6.9015c-.0656.2986-.3415.5171-.6569.5171h-2.9781c-.3716 0-.6718-.2946-.6718-.6538v-2.6498c0-.3718-.3088-.671-.687-.671s-.6869.2992-.6869.671v.6539h-6.1072c-.6818 0-1.3624-.056-2.0307-.1648v-4.4635c0-.3718-.3087-.671-.6869-.671s-.687.2992-.687.671v6.6242c0 .3593-.3002.6539-.6718.6539h-2.7109c-.2227 0-.4216-.1001-.5471-.2738-1.147-1.5853-4.8872-7.2991-4.8872-14.291 0-2.9634 1.123-5.8037 3.1625-7.9979l-.0366-.034.0366.034c1.8537-1.9944 4.3228-3.3086 7.0173-3.7507.015.388.0797.7715.1913 1.1413h-.1876c-.3782 0-.6869.2992-.6869.671s.3087.6711.6869.6711h9.5117c.3783 0 .687-.2993.687-.6711s-.3087-.671-.687-.671h-.1876c.1277-.4225.1943-.863.1951-1.3077h2.0232v1.3163c0 .3718.3087.671.6869.671s.687-.2992.687-.671v-5.0741c.5946.2292 1.4193.6777 2.1051 1.5332.7116.8875 1.2768 2.2169 1.2768 4.2034 0 .3718.3088.671.687.671s.6869-.2992.6869-.671c0-.2379-.0079-.4877-.0259-.7456 1.4991.7249 2.8442 1.7499 3.9293 3.0038 1.3148 1.5195 2.2239 3.3469 2.6291 5.2847.1306.6249.6929 1.0775 1.3367 1.0774l1.6275-.0001zm-22.4129-19.1515c1.8701 0 3.3894 1.4832 3.3894 3.3035 0 .4548-.0975.9031-.2817 1.3162h-6.2155c-.1841-.4132-.2818-.8614-.2818-1.3162 0-1.8204 1.5194-3.3035 3.3896-3.3035z"/><path d="m64.4116 44.8828c.4034-1.0547 1.4692-1.761 2.6505-1.761 1.1812 0 2.2472.7063 2.6504 1.761v.0001l-.0467.0178c.1229.3213-.0447.679-.3743.7988zm0 0c-.1332.3484.0489.7347.4039.8637m-.4039-.8637.4039.8637m0 0c.3545.129.7502-.0464.8831-.3941zm4.2536.0423c.0797 0 .1606-.0136.2395-.0423l-3.61-.3941c.2025-.5295.7493-.8886 1.3634-.8886s1.161.3591 1.3635.8886c.1034.2705.3658.4364.6436.4364z"/><path d="m55.7116 47.5181c-.6515-.4418-1.4915-.7125-2.2614-.9248v-3.079c.5949.0772 1.0982.2495 1.4545.4622.3711.2217.5686.478.5686.7065 0 .3718.3088.671.687.671s.6869-.2992.6869-.671c0-.6556-.374-1.2417-.9883-1.6849-.6049-.4364-1.4462-.7375-2.4087-.8353v-.026c0-.3718-.3088-.6711-.687-.6711s-.6869.2993-.6869.6711v.026c-.9625.0978-1.8039.3989-2.4087.8353-.6143.4432-.9884 1.0293-.9884 1.6849 0 .9275.4716 1.5584 1.1357 2.0088.6514.4418 1.4915.7125 2.2614.9248v3.0789c-.5949-.0771-1.0982-.2494-1.4545-.4622-.3712-.2216-.5686-.4779-.5686-.7064 0-.3718-.3088-.671-.687-.671s-.687.2992-.687.671c0 .6556.3741 1.2417.9884 1.6849.6048.4364 1.4462.7374 2.4087.8353v.026c0 .3718.3087.671.6869.671s.687-.2992.687-.671v-.026c.9625-.0979 1.8038-.3989 2.4087-.8353.6143-.4432.9883-1.0293.9883-1.6849 0-.9276-.4715-1.5585-1.1356-2.0088zm-3.6353-4.0038v2.6962c-.7477-.2323-1.2515-.4535-1.5696-.6949-.324-.2457-.4535-.5105-.4535-.8326 0-.2285.1974-.4848.5686-.7065.3563-.2127.8596-.385 1.4545-.4622zm2.8284 6.7191c-.3563.2128-.8597.3851-1.4545.4622v-2.6962c.7477.2323 1.2514.4535 1.5696.6949.3239.2457.4535.5106.4535.8327 0 .2284-.1975.4847-.5686.7064z"/></g></svg>