<svg fill="none" height="88" viewBox="0 0 88 88" width="88" xmlns="http://www.w3.org/2000/svg" xmlns:xlink="http://www.w3.org/1999/xlink"><filter id="a" color-interpolation-filters="sRGB" filterUnits="userSpaceOnUse" height="87.7571" width="87.757" x="0" y="0"><feFlood flood-opacity="0" result="BackgroundImageFix"/><feColorMatrix in="SourceAlpha" result="hardAlpha" type="matrix" values="0 0 0 0 0 0 0 0 0 0 0 0 0 0 0 0 0 0 127 0"/><feOffset dy="5"/><feGaussianBlur stdDeviation="7.5"/><feColorMatrix type="matrix" values="0 0 0 0 0.890196 0 0 0 0 0.721569 0 0 0 0 0.45098 0 0 0 0.15 0"/><feBlend in2="BackgroundImageFix" mode="normal" result="effect1_dropShadow_63498_5"/><feBlend in="SourceGraphic" in2="effect1_dropShadow_63498_5" mode="normal" result="shape"/></filter><g filter="url(#a)"><rect fill="#e3b873" height="41.7571" rx="20.8785" width="41.7571" x="23" y="18"/><rect height="49.7571" rx="24.8785" stroke="#fff" stroke-width="8" width="49.7571" x="19" y="14"/></g><path d="m38.4708 44.7517c-.972 0-1.854-.258-2.646-.774s-1.422-1.266-1.89-2.25c-.456-.996-.684-2.178-.684-3.546s.228-2.544.684-3.528c.468-.996 1.098-1.752 1.89-2.268s1.674-.774 2.646-.774 1.854.258 2.646.774 1.416 1.272 1.872 2.268c.468.984.702 2.16.702 3.528s-.234 2.55-.702 3.546c-.456.984-1.08 1.734-1.872 2.25s-1.674.774-2.646.774zm0-.36c1.38 0 2.07-2.07 2.07-6.21s-.69-6.21-2.07-6.21-2.07 2.07-2.07 6.21.69 6.21 2.07 6.21zm6.5686-.72c0-.708.138-1.35.414-1.926.288-.588.636-1.098 1.044-1.53s.942-.942 1.602-1.53c.612-.54 1.092-.99 1.44-1.35.348-.372.642-.786.882-1.242.24-.468.36-.972.36-1.512 0-.792-.192-1.41-.576-1.854s-.882-.666-1.494-.666c-.348 0-.702.048-1.062.144l-.378.126v2.88l-.234.054c-.192.024-.354.036-.486.036-.408 0-.738-.12-.99-.36-.24-.252-.36-.582-.36-.99 0-.384.144-.756.432-1.116.3-.36.738-.654 1.314-.882.588-.228 1.296-.342 2.124-.342 1.62 0 2.82.324 3.6.972s1.17 1.554 1.17 2.718c0 .732-.192 1.362-.576 1.89-.372.528-.834.966-1.386 1.314-.54.348-1.266.744-2.178 1.188-.768.372-1.392.702-1.872.99-.468.276-.906.612-1.314 1.008-.396.396-.678.846-.846 1.35h6.66c.084-.648.288-1.188.612-1.62.132-.204.288-.384.468-.54h.54v3.6h-8.91z" fill="#fff"/></svg>