<svg fill="none" height="88" viewBox="0 0 88 88" width="88" xmlns="http://www.w3.org/2000/svg" xmlns:xlink="http://www.w3.org/1999/xlink"><filter id="a" color-interpolation-filters="sRGB" filterUnits="userSpaceOnUse" height="87.7571" width="87.757" x="0" y=".216309"><feFlood flood-opacity="0" result="BackgroundImageFix"/><feColorMatrix in="SourceAlpha" result="hardAlpha" type="matrix" values="0 0 0 0 0 0 0 0 0 0 0 0 0 0 0 0 0 0 127 0"/><feOffset dy="5"/><feGaussianBlur stdDeviation="7.5"/><feColorMatrix type="matrix" values="0 0 0 0 0.890196 0 0 0 0 0.721569 0 0 0 0 0.45098 0 0 0 0.15 0"/><feBlend in2="BackgroundImageFix" mode="normal" result="effect1_dropShadow_63498_4"/><feBlend in="SourceGraphic" in2="effect1_dropShadow_63498_4" mode="normal" result="shape"/></filter><g filter="url(#a)"><rect fill="#e3b873" height="41.7571" rx="20.8785" width="41.7571" x="23" y="18.2163"/><rect height="49.7571" rx="24.8785" stroke="#fff" stroke-width="8" width="49.7571" x="19" y="14.2163"/></g><path d="m40.5727 45.27c-.972 0-1.854-.258-2.646-.774s-1.422-1.266-1.89-2.25c-.456-.996-.684-2.178-.684-3.546s.228-2.544.684-3.528c.468-.996 1.098-1.752 1.89-2.268s1.674-.774 2.646-.774 1.854.258 2.646.774 1.416 1.272 1.872 2.268c.468.984.702 2.16.702 3.528s-.234 2.55-.702 3.546c-.456.984-1.08 1.734-1.872 2.25s-1.674.774-2.646.774zm0-.36c1.38 0 2.07-2.07 2.07-6.21s-.69-6.21-2.07-6.21-2.07 2.07-2.07 6.21.69 6.21 2.07 6.21zm7.2886.09v-.27l1.26-.36v-9.882l-1.89 1.332-.36-.45 3.276-2.97h1.944v11.97l1.26.36v.27z" fill="#fff"/></svg>