<svg fill="none" height="88" viewBox="0 0 88 88" width="88" xmlns="http://www.w3.org/2000/svg" xmlns:xlink="http://www.w3.org/1999/xlink"><filter id="a" color-interpolation-filters="sRGB" filterUnits="userSpaceOnUse" height="87.7571" width="87.757" x="0" y="0"><feFlood flood-opacity="0" result="BackgroundImageFix"/><feColorMatrix in="SourceAlpha" result="hardAlpha" type="matrix" values="0 0 0 0 0 0 0 0 0 0 0 0 0 0 0 0 0 0 127 0"/><feOffset dy="5"/><feGaussianBlur stdDeviation="7.5"/><feColorMatrix type="matrix" values="0 0 0 0 0.890196 0 0 0 0 0.721569 0 0 0 0 0.45098 0 0 0 0.15 0"/><feBlend in2="BackgroundImageFix" mode="normal" result="effect1_dropShadow_63498_3"/><feBlend in="SourceGraphic" in2="effect1_dropShadow_63498_3" mode="normal" result="shape"/></filter><g filter="url(#a)"><rect fill="#e3b873" height="41.7571" rx="20.8785" width="41.7571" x="23" y="18"/><rect height="49.7571" rx="24.8785" stroke="#fff" stroke-width="8" width="49.7571" x="19" y="14"/></g><path d="m38.2361 44.1323c-.972 0-1.854-.258-2.646-.774s-1.422-1.266-1.89-2.25c-.456-.996-.684-2.178-.684-3.546s.228-2.544.684-3.528c.468-.996 1.098-1.752 1.89-2.268s1.674-.774 2.646-.774 1.854.258 2.646.774 1.416 1.272 1.872 2.268c.468.984.702 2.16.702 3.528s-.234 2.55-.702 3.546c-.456.984-1.08 1.734-1.872 2.25s-1.674.774-2.646.774zm0-.36c1.38 0 2.07-2.07 2.07-6.21s-.69-6.21-2.07-6.21-2.07 2.07-2.07 6.21.69 6.21 2.07 6.21zm10.3485.36c-.828 0-1.536-.114-2.124-.342-.576-.228-1.014-.522-1.314-.882-.288-.36-.432-.732-.432-1.116 0-.408.12-.732.36-.972.252-.252.582-.378.99-.378.096 0 .192.012.288.036.096.012.162.018.198.018l.234.036v2.88c.012 0 .138.048.378.144.312.084.666.126 1.062.126.84 0 1.482-.252 1.926-.756.456-.516.684-1.284.684-2.304 0-1.044-.222-1.83-.666-2.358-.432-.528-1.02-.792-1.764-.792h-.9v-.45h.9c.54 0 .99-.24 1.35-.72s.54-1.17.54-2.07-.186-1.59-.558-2.07-.846-.72-1.422-.72c-.312 0-.612.048-.9.144-.036.012-.156.054-.36.126v2.88l-.234.054c-.192.024-.354.036-.486.036-.408 0-.738-.12-.99-.36-.24-.252-.36-.582-.36-.99 0-.372.144-.738.432-1.098s.708-.654 1.26-.882c.564-.24 1.23-.36 1.998-.36 1.008 0 1.86.15 2.556.45.708.288 1.236.678 1.584 1.17.36.492.54 1.032.54 1.62 0 .684-.174 1.23-.522 1.638-.348.396-.804.714-1.368.954-.552.216-1.182.342-1.89.378v.09c.792.036 1.512.174 2.16.414 1.44.576 2.16 1.548 2.16 2.916 0 1.056-.438 1.908-1.314 2.556-.864.636-2.196.954-3.996.954z" fill="#fff"/></svg>