<svg fill="none" height="30" viewBox="0 0 114 30" width="114" xmlns="http://www.w3.org/2000/svg"><g fill="#e3b873"><rect height="1.54334" rx=".771672" width="32" x=".00061" y="14"/><rect height="1.54334" rx=".771672" width="32" x="82.0006" y="14"/><path d="m62.4261 9.56018-4.8455-1.45375c-.3637-.10852-.7376-.14673-1.108-.1332v-.01247h-5.8893l-10.4437-3.47053.0316 14.67497 2.998 1.4985 1.7751-4.3394 2.593 1.0374.6724-1.6803.9738.9737-.9085.9088c-.3158.3157-.4967.7525-.4967 1.1993 0 .9143.7291 1.6578 1.636 1.6899.0316.8862.744 1.5986 1.6302 1.6302.0316.8862.744 1.5986 1.6302 1.6302.0326.9069.7755 1.636 1.6901 1.636.4466 0 .8836-.181 1.1991-.4967l.9087-.9085.3651.3651c.3158.3157.7525.4967 1.1993.4967.9146 0 1.6578-.7291 1.6899-1.636.8862-.0316 1.5986-.744 1.6302-1.6302.8862-.0316 1.5986-.744 1.6302-1.6302.9069-.0327 1.6363-.7756 1.6363-1.6899 0-.0772-.0125-.1534-.0228-.2301l.7798-.7798.6301 1.2609 3.4133-1.7069 2.0626 3.9381 2.3747-1.5825v-14.04474zm-19.8199 9.60712-1.3492-.6748-.0274-12.49492 5.9546 1.9791zm4.3259-3.2185-1.5768-.6304 2.8626-6.99838 1.5578.51793zm1.933 2.8144c0-.1605.0644-.3174.178-.4312l.9554-.9552c.1136-.1135.2707-.1783.4309-.1783.336 0 .6092.2736.6092.6092 0 .1603-.0647.3174-.1783.4309l-.9551.9555c-.1136.1135-.2707.178-.4309.178-.336 0-.6092-.2733-.6092-.6089zm1.6301 1.6302c0-.1606.0645-.3174.1781-.4312l.9554-.9552c.1136-.1135.2707-.1783.4309-.1783.3359 0 .6092.2736.6092.6092 0 .1603-.0647.3174-.1783.4309l-.9552.9555c-.1135.1135-.2706.178-.4309.178-.3359 0-.6092-.2733-.6092-.6089zm1.6302 1.6302c0-.1606.0645-.3174.1781-.4312l.9554-.9552c.1136-.1135.2707-.1783.4309-.1783.3359 0 .6092.2736.6092.6092 0 .1603-.0647.3173-.1783.4309l-.9552.9555c-.1135.1135-.2706.178-.4309.178-.3359 0-.6092-.2733-.6092-.6089zm3.6255 1.1056-.9552.9555c-.1135.1135-.2706.178-.4309.178-.3359 0-.6092-.2733-.6092-.6089 0-.1606.0645-.3174.1781-.4312l.9554-.9552c.1136-.1136.2707-.1783.4309-.1783.3359 0 .6092.2736.6092.6092 0 .1603-.0647.3173-.1783.4309zm7.1767-4.3005c-.1603 0-.3173-.0645-.4309-.178l-4.5531-4.5534-.7684.7684 4.5531 4.5531c.1136.1138.1783.2707.1783.4312 0 .3356-.2733.6089-.6092.6089-.1603 0-.3173-.0645-.4309-.178l-4.5531-4.5534-.7684.7684 4.5531 4.5531c.1136.1138.1783.2706.1783.4312 0 .3356-.2733.6089-.6092.6089-.1603 0-.3173-.0645-.4309-.178l-4.5531-4.5534-.7684.7684 4.5531 4.5531c.1136.1138.1783.2706.1783.4312 0 .3356-.2733.6089-.6092.6089-.1602 0-.3173-.0645-.4309-.178l-.6129-.6132c.0109-.0759.0228-.1521.0228-.2298 0-.9146-.7294-1.6578-1.6363-1.6899-.0315-.8862-.744-1.5986-1.6302-1.6302-.0315-.8862-.744-1.5986-1.6302-1.6302-.0326-.9069-.7753-1.6363-1.6899-1.6363-.0772 0-.1533.0125-.2297.0228l-1.5514-1.5513 2.2147-5.53564h3.211l-1.9953 1.99554c-.3207.32-.4967.7461-.4967 1.1993 0 .935.7607 1.6957 1.696 1.6957.4466 0 .8836-.1809 1.1991-.4967l1.4397-1.4399c.2945-.2935.8132-.3049 1.1199-.0239l1.2704 1.1645c.4222.3869.8913.7087 1.3933.9608l3.6581 3.6857c.1136.1138.1783.2707.1783.4312 0 .3356-.2733.6089-.6092.6089zm1.1526-1.8552-2.2336-2.2505c.1996.0188.4007.0302.6034.0302v-1.0868c-1.2651 0-2.4758-.4709-3.4082-1.3258l-1.2706-1.164c-.7172-.6586-1.9338-.6323-2.6223.057l-1.4394 1.4397c-.1141.113-.2712.178-.4315.178-.3359 0-.6092-.2732-.6092-.6089 0-.1632.0629-.3157.1781-.4312l2.0714-2.07113c.6087-.60867 1.5227-.8403 2.3498-.59248l4.8004 1.43991 2.7989 5.5988zm2.4164.0393-3.2947-6.5898 2.4063-.94401 3.3114 6.32201zm6.278 1.5254-.886.5906-5.2626-10.04861 6.1486-2.41159z"/><circle cx="59.6667" cy="1.70141" r=".485591"/><circle cx="47.4099" cy="24.6306" r=".485591"/><circle cx="49.468" cy="26.3191" r=".485591"/><circle cx="51.8166" cy="27.5579" r=".485591"/><circle cx="54.3655" cy="28.3503" r=".485591"/><circle cx="62.2141" cy="2.47436" r=".485591"/><circle cx="64.5632" cy="3.72876" r=".485591"/></g><path d="m66.8305 3.02686v2.80169h-2.8334" stroke="#e3b873" stroke-linecap="round" stroke-linejoin="round"/><path d="m45.0104 24.314v-2.2669h2.264" stroke="#e3b873" stroke-linecap="round" stroke-linejoin="round"/><path d="m47.8008 5.00987c1.5351-1.33581 2.5116-1.95038 4.3511-2.66863 1.9514-.76194 3.2718-.94086 5.3922-.94085" stroke="#e3b873" stroke-linecap="round"/><path d="m68.4046 22.4984c-1.1413 1.7802-3.267 3.5183-4.9957 4.4728-1.8339 1.0125-3.7987 1.5831-6.4158 1.7194" stroke="#e3b873" stroke-linecap="round"/></svg>