<svg fill="none" height="29" viewBox="0 0 28 29" width="28" xmlns="http://www.w3.org/2000/svg"><circle cx="14" cy="14.3218" fill="#e3b873" r="14"/><g stroke="#fff" stroke-width="1.5"><path d="m17 8.72119h-6c-1.65684 0-2.99999 1.34311-2.99999 3.00001v6c0 1.6568 1.34315 3 2.99999 3h6c1.6569 0 3-1.3432 3-3v-6c0-1.6569-1.3431-3.00001-3-3.00001z"/><path d="m16.4 14.3434c.0741.4993-.0112 1.0093-.2437 1.4574s-.6004.8114-1.0513 1.0384c-.4509.2269-.9619.3059-1.4603.2257s-.9588-.3155-1.3158-.6724c-.3569-.357-.5922-.8174-.6724-1.3158s-.0012-1.0094.2257-1.4603c.227-.4509.5903-.8188 1.0384-1.0513s.9581-.3178 1.4574-.2437c.5094.0755.9809.3129 1.345.677.3642.3641.6015.8356.677 1.345z" stroke-linecap="round" stroke-linejoin="round"/></g></svg>