<svg fill="none" height="29" viewBox="0 0 114 29" width="114" xmlns="http://www.w3.org/2000/svg"><g fill="#e3b873"><rect height="1.54334" rx=".771672" width="32" x=".000488" y="13.812"/><rect height="1.54334" rx=".771672" width="32" x="82.0005" y="13.812"/><path d="m73.8511 9.76553-24.1205-8.936224c-.3085-.114006-.6513.043752-.7651.352514-.0002.00025-.0002.0005-.0005.00075l-2.6701 7.26814c-.1135.30877.0447.65129.3535.76479h.0005l2.7959 1.0266-.616 1.6783c-.1133.3088.045.6508.3537.7643l5.5928 2.0533-.411 1.1189c-.3735 1.002-.025 2.1301.8491 2.7463v3.0402h-8.016c-.388-.887-1.182-1.5311-2.1303-1.7276v-1.251c0-.3291-.2665-.5958-.5958-.5958h-2.4019c-.329 0-.5958.2667-.5958.5958v9.5317c0 .3293.2668.5958.5958.5958h2.4019c.3293 0 .5958-.2665.5958-.5958v-1.2508c.9483-.1968 1.7423-.8406 2.1303-1.7279h8.016v.5958c0 .9871.8 1.7874 1.7871 1.7874.987 0 1.7873-.8003 1.7873-1.7874v-6.5996c.5415-.2685.9598-.7343 1.1683-1.3018l.411-1.1188 5.0333 1.8469c.0658.0242.135.0365.205.0365.2498 0 .4733-.1558.5595-.3903l.2233-.6083c1.9386.3648 3.8057-.911 4.1702-2.8494.1348-.7163.0473-1.4566-.2507-2.1216l3.6114-1.8544c.2928-.15.4085-.509.2585-.8018-.068-.13296-.1835-.23547-.3235-.28722zm-17.4464 9.38047.4933.1788c.2245.0805.46.1267.6982.137v2.1816h-1.1915zm-12.5289 8.455h-1.2106v-8.3405h1.2106zm2.3828-3.5745c-.001.7571-.478 1.4319-1.1915 1.6854v-4.5623c.7135.2533 1.1905.9281 1.1915 1.6854zm1.2101-1.1915h10.1275v1.1915h-10.1275zm9.5318 3.5744c-.3291 0-.5958-.2668-.5958-.5958v-.5958h1.1915v.5958c0 .329-.2667.5958-.5957.5958zm2.2483-10.0263-.411 1.1188c-.227.6171-.9113.9336-1.5288.7071l-1.1206-.4105c-.6175-.2268-.9345-.9113-.7078-1.5291 0 0 0 0 0-.0003l.4113-1.118 3.0197 1.1085zm6.0033.9353-15.0998-5.5448.4113-1.1188 8.9475 3.2857c.2118.077.4493.0288.614-.1253l1.6719-1.5738 4.6872 1.7216zm4.028-2.3283c-.3775 1.0178-1.3928 1.6538-2.4731 1.549l.9205-2.5076 1.5036-.7743c.2353.5505.2528 1.1701.049 1.7329zm-2.0108-2.0599c-.0316.0027-.0628.0082-.0936.0165l-5.3115-1.9504c-.2117-.0777-.4493-.0295-.6138.1251l-1.6738 1.574-11.9579-4.3912 2.2586-6.14982 22.2902 8.25822z"/></g><path d="m53.1292 8.70337-.5254 1.41993m2.8152-.5799-.5255 1.4199m2.7475-.5934-.5255 1.4199" stroke="#e3b873" stroke-linecap="round"/></svg>