<svg fill="none" height="9" viewBox="0 0 153 9" width="153" xmlns="http://www.w3.org/2000/svg"><path d="m.957.245h.902v7.755h-.902zm6.12545 7.843c-.73333 0-1.37133-.15767-1.914-.473-.54266-.32267-.96066-.781-1.254-1.375-.286-.60133-.429-1.309-.429-2.123s.143-1.518.429-2.112c.29334-.594.71134-1.048667 1.254-1.364.54267-.322667 1.18067-.484001 1.914-.484001.53534 0 1.02667.084334 1.474.253.44734.161334.836.403334 1.166.726001l-.341.693c-.374-.31533-.74066-.54267-1.1-.682-.35933-.13933-.75533-.209-1.188-.209-.85066 0-1.51066.27867-1.98.836-.462.55-.693 1.331-.693 2.343 0 1.01933.231 1.80767.693 2.365.46934.55 1.12934.825 1.98.825.43267 0 .82867-.06967 1.188-.209.35934-.13933.726-.36667 1.1-.682l.341.693c-.33.32267-.71866.56833-1.166.737-.44733.16133-.93866.242-1.474.242zm6.69425-7.843h1.056l-.22 3.047h-.594zm2.2 0h1.056l-.22 3.047h-.594zm8.8099 7.755h-.99l-1.32-2.486c-.1613-.30067-.352-.506-.572-.616-.2127-.11733-.506-.176-.88-.176h-1.452v3.278h-.891v-7.755h3.19c.8433 0 1.485.187 1.925.561.4473.374.671.924.671 1.65 0 .60133-.1723 1.089-.517 1.463-.3373.36667-.8213.59767-1.452.693.198.05867.3703.15767.517.297.154.13933.2933.32633.418.561zm-2.992-4.026c.6013 0 1.0487-.12467 1.342-.374.3007-.24933.451-.627.451-1.133 0-.49867-.1467-.869-.44-1.111s-.7443-.363-1.353-.363h-2.222v2.981zm4.428-3.729h4.906v.748h-4.015v2.695h3.795v.748h-3.795v2.816h4.015v.748h-4.906zm6.4024 0h3.069c.814 0 1.4446.198 1.892.594.4546.396.682.957.682 1.683s-.2274 1.29067-.682 1.694c-.4547.40333-1.0854.605-1.892.605h-2.167v3.179h-.902zm2.981 3.828c1.1806 0 1.771-.517 1.771-1.551 0-1.01933-.5904-1.529-1.771-1.529h-2.079v3.08zm8.3527 1.936h-4.048l-.858 1.991h-.924l3.41-7.755h.781l3.41 7.755h-.913zm-.319-.748-1.705-3.971-1.705 3.971zm3.2402-5.016h.902v7.755h-.902zm8.9194 7.755h-.99l-1.32-2.486c-.1613-.30067-.352-.506-.572-.616-.2127-.11733-.506-.176-.88-.176h-1.452v3.278h-.891v-7.755h3.19c.8433 0 1.485.187 1.925.561.4473.374.671.924.671 1.65 0 .60133-.1723 1.089-.517 1.463-.3373.36667-.8213.59767-1.452.693.198.05867.3703.15767.517.297.154.13933.2933.32633.418.561zm-2.992-4.026c.6013 0 1.0487-.12467 1.342-.374.3007-.24933.451-.627.451-1.133 0-.49867-.1467-.869-.44-1.111s-.7443-.363-1.353-.363h-2.222v2.981zm7.264-3.729h2.607c1.2393 0 2.1963.337333 2.871 1.012.682.66733 1.023 1.62067 1.023 2.86s-.341 2.19633-1.023 2.871c-.6747.67467-1.6317 1.012-2.871 1.012h-2.607zm2.552 6.985c2.0093 0 3.014-1.03767 3.014-3.113 0-2.068-1.0047-3.102-3.014-3.102h-1.65v6.215zm5.5798-6.985h4.906v.748h-4.015v2.695h3.795v.748h-3.795v2.816h4.015v.748h-4.906zm8.7589 7.843c-1.21 0-2.178-.32633-2.904-.979l.352-.693c.3813.32267.77.55367 1.166.693.4033.13933.869.209 1.397.209.6233 0 1.1037-.121 1.441-.363s.506-.583.506-1.023c0-.25667-.0807-.46567-.242-.627s-.374-.28967-.638-.385-.6197-.19433-1.067-.297c-.6013-.13933-1.0963-.286-1.485-.44-.3813-.154-.693-.374-.935-.66-.2347-.286-.352-.66-.352-1.122 0-.44.1137-.82867.341-1.166.2347-.344667.5647-.608667.99-.792.4327-.190667.9313-.286001 1.496-.286001.5353 0 1.034.084334 1.496.253.4693.168667.8653.410667 1.188.726001l-.341.693c-.3667-.31533-.7407-.54267-1.122-.682-.374-.14667-.781-.22-1.221-.22-.6013 0-1.0743.12833-1.419.385-.3373.24933-.506.60133-.506 1.056 0 .38867.1503.682.451.88s.7553.36667 1.364.506c.6673.16133 1.1917.31167 1.573.451.3813.132.6967.33367.946.605.2567.27133.385.63433.385 1.089 0 .44-.1173.825-.352 1.155-.2273.33-.5573.58667-.99.77-.4327.176-.9387.264-1.518.264zm4.3251-7.843h.902v7.755h-.902zm8.9524 3.718v3.586c-.308.16133-.7113.29333-1.21.396-.4913.09533-.99.143-1.496.143-.77 0-1.4336-.15767-1.991-.473-.5573-.31533-.9863-.77-1.287-1.364-.2933-.594-.44-1.30533-.44-2.134 0-.82133.1467-1.529.44-2.123.2934-.594.715-1.048667 1.265-1.364.55-.315334 1.199-.473001 1.947-.473001.5427 0 1.0414.084334 1.496.253.4547.161334.8434.403334 1.166.726001l-.341.693c-.374-.32267-.7443-.55367-1.111-.693-.3593-.139333-.7626-.209-1.21-.209-.8726 0-1.5436.275-2.013.825-.4693.55-.704 1.33833-.704 2.365 0 1.04867.2384 1.848.715 2.398.4767.54267 1.1734.814 2.09.814.6674 0 1.287-.099 1.859-.297v-2.365h-1.925v-.704zm8.037-3.718v7.755h-.693l-4.675-6.237v6.237h-.847v-7.755h.693l4.675 6.237v-6.237zm4.7525 0h3.069c.814 0 1.445.198 1.892.594.455.396.682.957.682 1.683s-.227 1.29067-.682 1.694c-.454.40333-1.085.605-1.892.605h-2.167v3.179h-.902zm2.981 3.828c1.181 0 1.771-.517 1.771-1.551 0-1.01933-.59-1.529-1.771-1.529h-2.079v3.08zm10.214 3.927h-.99l-1.32-2.486c-.161-.30067-.352-.506-.572-.616-.213-.11733-.506-.176-.88-.176h-1.452v3.278h-.891v-7.755h3.19c.843 0 1.485.187 1.925.561.447.374.671.924.671 1.65 0 .60133-.172 1.089-.517 1.463-.337.36667-.821.59767-1.452.693.198.05867.37.15767.517.297.154.13933.293.32633.418.561zm-2.992-4.026c.601 0 1.049-.12467 1.342-.374.301-.24933.451-.627.451-1.133 0-.49867-.147-.869-.44-1.111s-.744-.363-1.353-.363h-2.222v2.981zm7.619 4.114c-.718 0-1.345-.16133-1.881-.484-.528-.32267-.935-.781-1.221-1.375s-.429-1.29433-.429-2.101c0-.814.14-1.518.418-2.112.286-.60133.693-1.059667 1.221-1.375.536-.322667 1.166-.484001 1.892-.484001s1.353.161334 1.881.484001c.536.315333.943.77367 1.221 1.375.286.594.429 1.29433.429 2.101s-.143 1.51067-.429 2.112c-.286.594-.696 1.05233-1.232 1.375-.528.32267-1.151.484-1.87.484zm0-.77c.822 0 1.46-.275 1.914-.825.462-.55733.693-1.34933.693-2.376s-.227-1.815-.682-2.365c-.454-.55-1.096-.825-1.925-.825-.821 0-1.463.27867-1.925.836-.454.55-.682 1.33467-.682 2.354s.228 1.80767.682 2.365c.462.55733 1.104.836 1.925.836zm3.767 0 .66-.044c.367-.02933.649-.15767.847-.385.205-.23467.308-.55367.308-.957v-5.687h.902v5.698c0 .638-.165 1.13667-.495 1.496s-.81.55733-1.441.594l-.715.044zm4.633-7.073h4.906v.748h-4.015v2.695h3.795v.748h-3.795v2.816h4.015v.748h-4.906zm9.67 7.843c-.733 0-1.371-.15767-1.914-.473-.542-.32267-.96-.781-1.254-1.375-.286-.60133-.429-1.309-.429-2.123s.143-1.518.429-2.112c.294-.594.712-1.048667 1.254-1.364.543-.322667 1.181-.484001 1.914-.484001.536 0 1.027.084334 1.474.253.448.161334.836.403334 1.166.726001l-.341.693c-.374-.31533-.74-.54267-1.1-.682-.359-.13933-.755-.209-1.188-.209-.85 0-1.51.27867-1.98.836-.462.55-.693 1.331-.693 2.343 0 1.01933.231 1.80767.693 2.365.47.55 1.13.825 1.98.825.433 0 .829-.06967 1.188-.209.36-.13933.726-.36667 1.1-.682l.341.693c-.33.32267-.718.56833-1.166.737-.447.16133-.938.242-1.474.242zm5.896-7.073h-2.695v-.77h6.314v.77h-2.706v6.985h-.913zm4.429-.77h1.056l-.22 3.047h-.594zm2.2 0h1.056l-.22 3.047h-.594z" fill="#e3b873"/></svg>